G75*
G70*
%OFA0B0*%
%FSLAX24Y24*%
%IPPOS*%
%LPD*%
%AMOC8*
5,1,8,0,0,1.08239X$1,22.5*
%
%ADD10C,0.1064*%
%ADD11C,0.0150*%
%ADD12C,0.0142*%
%ADD13C,0.0145*%
%ADD14C,0.0169*%
%ADD15C,0.0474*%
%ADD16R,0.0150X0.0335*%
%ADD17R,0.0335X0.0150*%
%ADD18C,0.0552*%
%ADD19C,0.0163*%
%ADD20C,0.0165*%
%ADD21C,0.0156*%
%ADD22C,0.0174*%
%ADD23C,0.0437*%
D10*
X003124Y003001D03*
D11*
X006706Y003004D02*
X006950Y003004D01*
X006706Y003004D02*
X006706Y003248D01*
X006950Y003248D01*
X006950Y003004D01*
X006950Y003153D02*
X006706Y003153D01*
X007297Y003004D02*
X007541Y003004D01*
X007297Y003004D02*
X007297Y003248D01*
X007541Y003248D01*
X007541Y003004D01*
X007541Y003153D02*
X007297Y003153D01*
X012496Y003959D02*
X012496Y004203D01*
X012496Y003959D02*
X012252Y003959D01*
X012252Y004203D01*
X012496Y004203D01*
X012496Y004108D02*
X012252Y004108D01*
X012496Y004550D02*
X012496Y004794D01*
X012496Y004550D02*
X012252Y004550D01*
X012252Y004794D01*
X012496Y004794D01*
X012496Y004699D02*
X012252Y004699D01*
X013456Y005248D02*
X013700Y005248D01*
X013700Y005004D01*
X013456Y005004D01*
X013456Y005248D01*
X013456Y005153D02*
X013700Y005153D01*
X014047Y005248D02*
X014291Y005248D01*
X014291Y005004D01*
X014047Y005004D01*
X014047Y005248D01*
X014047Y005153D02*
X014291Y005153D01*
X015496Y004544D02*
X015496Y004300D01*
X015252Y004300D01*
X015252Y004544D01*
X015496Y004544D01*
X015496Y004449D02*
X015252Y004449D01*
X015496Y003953D02*
X015496Y003709D01*
X015252Y003709D01*
X015252Y003953D01*
X015496Y003953D01*
X015496Y003858D02*
X015252Y003858D01*
X015252Y003294D02*
X015252Y003050D01*
X015252Y003294D02*
X015496Y003294D01*
X015496Y003050D01*
X015252Y003050D01*
X015252Y003199D02*
X015496Y003199D01*
X015252Y002703D02*
X015252Y002459D01*
X015252Y002703D02*
X015496Y002703D01*
X015496Y002459D01*
X015252Y002459D01*
X015252Y002608D02*
X015496Y002608D01*
X015558Y005959D02*
X015558Y006203D01*
X015558Y005959D02*
X015314Y005959D01*
X015314Y006203D01*
X015558Y006203D01*
X015558Y006108D02*
X015314Y006108D01*
X015558Y006550D02*
X015558Y006794D01*
X015558Y006550D02*
X015314Y006550D01*
X015314Y006794D01*
X015558Y006794D01*
X015558Y006699D02*
X015314Y006699D01*
X012877Y006737D02*
X012877Y006981D01*
X013121Y006981D01*
X013121Y006737D01*
X012877Y006737D01*
X012877Y006886D02*
X013121Y006886D01*
X012877Y006391D02*
X012877Y006147D01*
X012877Y006391D02*
X013121Y006391D01*
X013121Y006147D01*
X012877Y006147D01*
X012877Y006296D02*
X013121Y006296D01*
X010252Y007334D02*
X010252Y007578D01*
X010496Y007578D01*
X010496Y007334D01*
X010252Y007334D01*
X010252Y007483D02*
X010496Y007483D01*
X010252Y007925D02*
X010252Y008169D01*
X010496Y008169D01*
X010496Y007925D01*
X010252Y007925D01*
X010252Y008074D02*
X010496Y008074D01*
X007791Y008129D02*
X007547Y008129D01*
X007547Y008373D01*
X007791Y008373D01*
X007791Y008129D01*
X007791Y008278D02*
X007547Y008278D01*
X007200Y008129D02*
X006956Y008129D01*
X006956Y008373D01*
X007200Y008373D01*
X007200Y008129D01*
X007200Y008278D02*
X006956Y008278D01*
X015252Y008703D02*
X015496Y008703D01*
X015496Y008459D01*
X015252Y008459D01*
X015252Y008703D01*
X015252Y008608D02*
X015496Y008608D01*
X015496Y009294D02*
X015252Y009294D01*
X015496Y009294D02*
X015496Y009050D01*
X015252Y009050D01*
X015252Y009294D01*
X015252Y009199D02*
X015496Y009199D01*
D12*
X014746Y007716D02*
X014414Y007716D01*
X014746Y007716D02*
X014746Y007286D01*
X014414Y007286D01*
X014414Y007716D01*
X014414Y007427D02*
X014746Y007427D01*
X014746Y007568D02*
X014414Y007568D01*
X014414Y007709D02*
X014746Y007709D01*
X013959Y007716D02*
X013627Y007716D01*
X013959Y007716D02*
X013959Y007286D01*
X013627Y007286D01*
X013627Y007716D01*
X013627Y007427D02*
X013959Y007427D01*
X013959Y007568D02*
X013627Y007568D01*
X013627Y007709D02*
X013959Y007709D01*
X011426Y005416D02*
X011426Y005084D01*
X010938Y005084D01*
X010938Y005416D01*
X011426Y005416D01*
X011426Y005225D02*
X010938Y005225D01*
X010938Y005366D02*
X011426Y005366D01*
X011426Y004668D02*
X011426Y004336D01*
X010938Y004336D01*
X010938Y004668D01*
X011426Y004668D01*
X011426Y004477D02*
X010938Y004477D01*
X010938Y004618D02*
X011426Y004618D01*
X011426Y004041D02*
X011426Y003709D01*
X010938Y003709D01*
X010938Y004041D01*
X011426Y004041D01*
X011426Y003850D02*
X010938Y003850D01*
X010938Y003991D02*
X011426Y003991D01*
X011426Y003293D02*
X011426Y002961D01*
X010938Y002961D01*
X010938Y003293D01*
X011426Y003293D01*
X011426Y003102D02*
X010938Y003102D01*
X010938Y003243D02*
X011426Y003243D01*
X010560Y003335D02*
X010560Y003667D01*
X010560Y003335D02*
X010072Y003335D01*
X010072Y003667D01*
X010560Y003667D01*
X010560Y003476D02*
X010072Y003476D01*
X010072Y003617D02*
X010560Y003617D01*
X010560Y004710D02*
X010560Y005042D01*
X010560Y004710D02*
X010072Y004710D01*
X010072Y005042D01*
X010560Y005042D01*
X010560Y004851D02*
X010072Y004851D01*
X010072Y004992D02*
X010560Y004992D01*
X007933Y008724D02*
X007601Y008724D01*
X007601Y009154D01*
X007933Y009154D01*
X007933Y008724D01*
X007933Y008865D02*
X007601Y008865D01*
X007601Y009006D02*
X007933Y009006D01*
X007933Y009147D02*
X007601Y009147D01*
X007146Y008724D02*
X006814Y008724D01*
X006814Y009154D01*
X007146Y009154D01*
X007146Y008724D01*
X007146Y008865D02*
X006814Y008865D01*
X006814Y009006D02*
X007146Y009006D01*
X007146Y009147D02*
X006814Y009147D01*
X004647Y009176D02*
X004647Y009508D01*
X004647Y009176D02*
X003725Y009176D01*
X003725Y009508D01*
X004647Y009508D01*
X004647Y009317D02*
X003725Y009317D01*
X003725Y009458D02*
X004647Y009458D01*
X004647Y008327D02*
X004647Y007995D01*
X003725Y007995D01*
X003725Y008327D01*
X004647Y008327D01*
X004647Y008136D02*
X003725Y008136D01*
X003725Y008277D02*
X004647Y008277D01*
X003397Y008327D02*
X003397Y007995D01*
X002475Y007995D01*
X002475Y008327D01*
X003397Y008327D01*
X003397Y008136D02*
X002475Y008136D01*
X002475Y008277D02*
X003397Y008277D01*
X003397Y009176D02*
X003397Y009508D01*
X003397Y009176D02*
X002475Y009176D01*
X002475Y009508D01*
X003397Y009508D01*
X003397Y009317D02*
X002475Y009317D01*
X002475Y009458D02*
X003397Y009458D01*
D13*
X005183Y009221D02*
X005493Y009221D01*
X005183Y009221D02*
X005183Y009531D01*
X005493Y009531D01*
X005493Y009221D01*
X005493Y009365D02*
X005183Y009365D01*
X005183Y009509D02*
X005493Y009509D01*
X005754Y009221D02*
X006064Y009221D01*
X005754Y009221D02*
X005754Y009531D01*
X006064Y009531D01*
X006064Y009221D01*
X006064Y009365D02*
X005754Y009365D01*
X005754Y009509D02*
X006064Y009509D01*
X009904Y008192D02*
X009904Y007882D01*
X009594Y007882D01*
X009594Y008192D01*
X009904Y008192D01*
X009904Y008026D02*
X009594Y008026D01*
X009594Y008170D02*
X009904Y008170D01*
X009904Y007621D02*
X009904Y007311D01*
X009594Y007311D01*
X009594Y007621D01*
X009904Y007621D01*
X009904Y007455D02*
X009594Y007455D01*
X009594Y007599D02*
X009904Y007599D01*
X014469Y008436D02*
X014469Y008746D01*
X014779Y008746D01*
X014779Y008436D01*
X014469Y008436D01*
X014469Y008580D02*
X014779Y008580D01*
X014779Y008724D02*
X014469Y008724D01*
X014469Y009007D02*
X014469Y009317D01*
X014779Y009317D01*
X014779Y009007D01*
X014469Y009007D01*
X014469Y009151D02*
X014779Y009151D01*
X014779Y009295D02*
X014469Y009295D01*
D14*
X012150Y006538D02*
X012042Y006538D01*
X012042Y006706D01*
X012150Y006706D01*
X012150Y006538D01*
X012150Y006706D02*
X012042Y006706D01*
X011835Y006538D02*
X011727Y006538D01*
X011727Y006706D01*
X011835Y006706D01*
X011835Y006538D01*
X011835Y006706D02*
X011727Y006706D01*
X011520Y006538D02*
X011412Y006538D01*
X011412Y006706D01*
X011520Y006706D01*
X011520Y006538D01*
X011520Y006706D02*
X011412Y006706D01*
X011205Y006538D02*
X011097Y006538D01*
X011097Y006706D01*
X011205Y006706D01*
X011205Y006538D01*
X011205Y006706D02*
X011097Y006706D01*
X011097Y006046D02*
X011205Y006046D01*
X011097Y006046D02*
X011097Y006214D01*
X011205Y006214D01*
X011205Y006046D01*
X011205Y006214D02*
X011097Y006214D01*
X011412Y006046D02*
X011520Y006046D01*
X011412Y006046D02*
X011412Y006214D01*
X011520Y006214D01*
X011520Y006046D01*
X011520Y006214D02*
X011412Y006214D01*
X011727Y006046D02*
X011835Y006046D01*
X011727Y006046D02*
X011727Y006214D01*
X011835Y006214D01*
X011835Y006046D01*
X011835Y006214D02*
X011727Y006214D01*
X012042Y006046D02*
X012150Y006046D01*
X012042Y006046D02*
X012042Y006214D01*
X012150Y006214D01*
X012150Y006046D01*
X012150Y006214D02*
X012042Y006214D01*
X010286Y006165D02*
X010286Y006273D01*
X010454Y006273D01*
X010454Y006165D01*
X010286Y006165D01*
X010286Y005958D02*
X010286Y005850D01*
X010286Y005958D02*
X010454Y005958D01*
X010454Y005850D01*
X010286Y005850D01*
X009794Y005850D02*
X009794Y005958D01*
X009962Y005958D01*
X009962Y005850D01*
X009794Y005850D01*
X009794Y006165D02*
X009794Y006273D01*
X009962Y006273D01*
X009962Y006165D01*
X009794Y006165D01*
X009794Y006480D02*
X009794Y006588D01*
X009962Y006588D01*
X009962Y006480D01*
X009794Y006480D01*
X009794Y006795D02*
X009794Y006903D01*
X009962Y006903D01*
X009962Y006795D01*
X009794Y006795D01*
X010286Y006795D02*
X010286Y006903D01*
X010454Y006903D01*
X010454Y006795D01*
X010286Y006795D01*
X010286Y006588D02*
X010286Y006480D01*
X010286Y006588D02*
X010454Y006588D01*
X010454Y006480D01*
X010286Y006480D01*
X004786Y006480D02*
X004786Y006588D01*
X004954Y006588D01*
X004954Y006480D01*
X004786Y006480D01*
X004786Y006273D02*
X004786Y006165D01*
X004786Y006273D02*
X004954Y006273D01*
X004954Y006165D01*
X004786Y006165D01*
X004786Y005958D02*
X004786Y005850D01*
X004786Y005958D02*
X004954Y005958D01*
X004954Y005850D01*
X004786Y005850D01*
X004294Y005850D02*
X004294Y005958D01*
X004462Y005958D01*
X004462Y005850D01*
X004294Y005850D01*
X004294Y006165D02*
X004294Y006273D01*
X004462Y006273D01*
X004462Y006165D01*
X004294Y006165D01*
X004294Y006480D02*
X004294Y006588D01*
X004462Y006588D01*
X004462Y006480D01*
X004294Y006480D01*
X004294Y006795D02*
X004294Y006903D01*
X004462Y006903D01*
X004462Y006795D01*
X004294Y006795D01*
X004786Y006795D02*
X004786Y006903D01*
X004954Y006903D01*
X004954Y006795D01*
X004786Y006795D01*
X004954Y005153D02*
X004954Y005045D01*
X004786Y005045D01*
X004786Y005153D01*
X004954Y005153D01*
X004954Y004838D02*
X004954Y004730D01*
X004786Y004730D01*
X004786Y004838D01*
X004954Y004838D01*
X004954Y004523D02*
X004954Y004415D01*
X004786Y004415D01*
X004786Y004523D01*
X004954Y004523D01*
X004954Y004208D02*
X004954Y004100D01*
X004786Y004100D01*
X004786Y004208D01*
X004954Y004208D01*
X004462Y004208D02*
X004462Y004100D01*
X004294Y004100D01*
X004294Y004208D01*
X004462Y004208D01*
X004462Y004415D02*
X004462Y004523D01*
X004462Y004415D02*
X004294Y004415D01*
X004294Y004523D01*
X004462Y004523D01*
X004462Y004730D02*
X004462Y004838D01*
X004462Y004730D02*
X004294Y004730D01*
X004294Y004838D01*
X004462Y004838D01*
X004462Y005045D02*
X004462Y005153D01*
X004462Y005045D02*
X004294Y005045D01*
X004294Y005153D01*
X004462Y005153D01*
D15*
X014186Y002314D03*
X014749Y002314D03*
D16*
X014366Y002849D03*
X014169Y002849D03*
X013972Y002849D03*
X013775Y002849D03*
X013578Y002849D03*
X013382Y002849D03*
X013382Y004404D03*
X013578Y004404D03*
X013775Y004404D03*
X013972Y004404D03*
X014169Y004404D03*
X014366Y004404D03*
D17*
X014651Y004118D03*
X014651Y003922D03*
X014651Y003725D03*
X014651Y003528D03*
X014651Y003331D03*
X014651Y003134D03*
X013096Y003134D03*
X013096Y003331D03*
X013096Y003528D03*
X013096Y003725D03*
X013096Y003922D03*
X013096Y004118D03*
D18*
X011374Y002376D03*
X008374Y002376D03*
D19*
X013542Y005998D02*
X013542Y006132D01*
X013932Y006132D01*
X013932Y005998D01*
X013542Y005998D01*
X013542Y006372D02*
X013542Y006506D01*
X013932Y006506D01*
X013932Y006372D01*
X013542Y006372D01*
X013542Y006746D02*
X013542Y006880D01*
X013932Y006880D01*
X013932Y006746D01*
X013542Y006746D01*
X014566Y006746D02*
X014566Y006880D01*
X014956Y006880D01*
X014956Y006746D01*
X014566Y006746D01*
X014566Y006132D02*
X014566Y005998D01*
X014566Y006132D02*
X014956Y006132D01*
X014956Y005998D01*
X014566Y005998D01*
D20*
X008856Y006031D02*
X008856Y006167D01*
X009272Y006167D01*
X009272Y006031D01*
X008856Y006031D01*
X008856Y005852D02*
X008856Y005716D01*
X008856Y005852D02*
X009272Y005852D01*
X009272Y005716D01*
X008856Y005716D01*
X008856Y005537D02*
X008856Y005401D01*
X008856Y005537D02*
X009272Y005537D01*
X009272Y005401D01*
X008856Y005401D01*
X008856Y005222D02*
X008856Y005086D01*
X008856Y005222D02*
X009272Y005222D01*
X009272Y005086D01*
X008856Y005086D01*
X008856Y004907D02*
X008856Y004771D01*
X008856Y004907D02*
X009272Y004907D01*
X009272Y004771D01*
X008856Y004771D01*
X008856Y004592D02*
X008856Y004456D01*
X008856Y004592D02*
X009272Y004592D01*
X009272Y004456D01*
X008856Y004456D01*
X008408Y004144D02*
X008408Y003728D01*
X008408Y004144D02*
X008544Y004144D01*
X008544Y003728D01*
X008408Y003728D01*
X008408Y003892D02*
X008544Y003892D01*
X008544Y004056D02*
X008408Y004056D01*
X008093Y004144D02*
X008093Y003728D01*
X008093Y004144D02*
X008229Y004144D01*
X008229Y003728D01*
X008093Y003728D01*
X008093Y003892D02*
X008229Y003892D01*
X008229Y004056D02*
X008093Y004056D01*
X007778Y004144D02*
X007778Y003728D01*
X007778Y004144D02*
X007914Y004144D01*
X007914Y003728D01*
X007778Y003728D01*
X007778Y003892D02*
X007914Y003892D01*
X007914Y004056D02*
X007778Y004056D01*
X007463Y004144D02*
X007463Y003728D01*
X007463Y004144D02*
X007599Y004144D01*
X007599Y003728D01*
X007463Y003728D01*
X007463Y003892D02*
X007599Y003892D01*
X007599Y004056D02*
X007463Y004056D01*
X007148Y004144D02*
X007148Y003728D01*
X007148Y004144D02*
X007284Y004144D01*
X007284Y003728D01*
X007148Y003728D01*
X007148Y003892D02*
X007284Y003892D01*
X007284Y004056D02*
X007148Y004056D01*
X006833Y004144D02*
X006833Y003728D01*
X006833Y004144D02*
X006969Y004144D01*
X006969Y003728D01*
X006833Y003728D01*
X006833Y003892D02*
X006969Y003892D01*
X006969Y004056D02*
X006833Y004056D01*
X006518Y004144D02*
X006518Y003728D01*
X006518Y004144D02*
X006654Y004144D01*
X006654Y003728D01*
X006518Y003728D01*
X006518Y003892D02*
X006654Y003892D01*
X006654Y004056D02*
X006518Y004056D01*
X006203Y004144D02*
X006203Y003728D01*
X006203Y004144D02*
X006339Y004144D01*
X006339Y003728D01*
X006203Y003728D01*
X006203Y003892D02*
X006339Y003892D01*
X006339Y004056D02*
X006203Y004056D01*
X005476Y004456D02*
X005476Y004592D01*
X005892Y004592D01*
X005892Y004456D01*
X005476Y004456D01*
X005476Y004771D02*
X005476Y004907D01*
X005892Y004907D01*
X005892Y004771D01*
X005476Y004771D01*
X005476Y005086D02*
X005476Y005222D01*
X005892Y005222D01*
X005892Y005086D01*
X005476Y005086D01*
X005476Y005401D02*
X005476Y005537D01*
X005892Y005537D01*
X005892Y005401D01*
X005476Y005401D01*
X005476Y005716D02*
X005476Y005852D01*
X005892Y005852D01*
X005892Y005716D01*
X005476Y005716D01*
X005476Y006031D02*
X005476Y006167D01*
X005892Y006167D01*
X005892Y006031D01*
X005476Y006031D01*
X005476Y006346D02*
X005476Y006482D01*
X005892Y006482D01*
X005892Y006346D01*
X005476Y006346D01*
X005476Y006661D02*
X005476Y006797D01*
X005892Y006797D01*
X005892Y006661D01*
X005476Y006661D01*
X006203Y007108D02*
X006203Y007524D01*
X006339Y007524D01*
X006339Y007108D01*
X006203Y007108D01*
X006203Y007272D02*
X006339Y007272D01*
X006339Y007436D02*
X006203Y007436D01*
X006518Y007524D02*
X006518Y007108D01*
X006518Y007524D02*
X006654Y007524D01*
X006654Y007108D01*
X006518Y007108D01*
X006518Y007272D02*
X006654Y007272D01*
X006654Y007436D02*
X006518Y007436D01*
X006833Y007524D02*
X006833Y007108D01*
X006833Y007524D02*
X006969Y007524D01*
X006969Y007108D01*
X006833Y007108D01*
X006833Y007272D02*
X006969Y007272D01*
X006969Y007436D02*
X006833Y007436D01*
X007148Y007524D02*
X007148Y007108D01*
X007148Y007524D02*
X007284Y007524D01*
X007284Y007108D01*
X007148Y007108D01*
X007148Y007272D02*
X007284Y007272D01*
X007284Y007436D02*
X007148Y007436D01*
X007463Y007524D02*
X007463Y007108D01*
X007463Y007524D02*
X007599Y007524D01*
X007599Y007108D01*
X007463Y007108D01*
X007463Y007272D02*
X007599Y007272D01*
X007599Y007436D02*
X007463Y007436D01*
X007778Y007524D02*
X007778Y007108D01*
X007778Y007524D02*
X007914Y007524D01*
X007914Y007108D01*
X007778Y007108D01*
X007778Y007272D02*
X007914Y007272D01*
X007914Y007436D02*
X007778Y007436D01*
X008093Y007524D02*
X008093Y007108D01*
X008093Y007524D02*
X008229Y007524D01*
X008229Y007108D01*
X008093Y007108D01*
X008093Y007272D02*
X008229Y007272D01*
X008229Y007436D02*
X008093Y007436D01*
X008408Y007524D02*
X008408Y007108D01*
X008408Y007524D02*
X008544Y007524D01*
X008544Y007108D01*
X008408Y007108D01*
X008408Y007272D02*
X008544Y007272D01*
X008544Y007436D02*
X008408Y007436D01*
X008856Y006797D02*
X008856Y006661D01*
X008856Y006797D02*
X009272Y006797D01*
X009272Y006661D01*
X008856Y006661D01*
X008856Y006482D02*
X008856Y006346D01*
X008856Y006482D02*
X009272Y006482D01*
X009272Y006346D01*
X008856Y006346D01*
D21*
X005820Y008740D02*
X005678Y008598D01*
X005820Y008740D02*
X006238Y008322D01*
X006096Y008180D01*
X005678Y008598D01*
X005941Y008335D02*
X006225Y008335D01*
X006070Y008490D02*
X005786Y008490D01*
X005725Y008645D02*
X005915Y008645D01*
X005486Y008406D02*
X005344Y008264D01*
X005486Y008406D02*
X005904Y007988D01*
X005762Y007846D01*
X005344Y008264D01*
X005607Y008001D02*
X005891Y008001D01*
X005736Y008156D02*
X005452Y008156D01*
X005391Y008311D02*
X005581Y008311D01*
X005152Y008072D02*
X005010Y007930D01*
X005152Y008072D02*
X005570Y007654D01*
X005428Y007512D01*
X005010Y007930D01*
X005273Y007667D02*
X005557Y007667D01*
X005402Y007822D02*
X005118Y007822D01*
X005057Y007977D02*
X005247Y007977D01*
D22*
X003639Y007204D02*
X003639Y006798D01*
X002733Y006798D01*
X002733Y007204D01*
X003639Y007204D01*
X003639Y006971D02*
X002733Y006971D01*
X002733Y007144D02*
X003639Y007144D01*
X003639Y006142D02*
X003639Y005736D01*
X002733Y005736D01*
X002733Y006142D01*
X003639Y006142D01*
X003639Y005909D02*
X002733Y005909D01*
X002733Y006082D02*
X003639Y006082D01*
X003639Y005204D02*
X003639Y004798D01*
X002733Y004798D01*
X002733Y005204D01*
X003639Y005204D01*
X003639Y004971D02*
X002733Y004971D01*
X002733Y005144D02*
X003639Y005144D01*
X002077Y005204D02*
X002077Y004798D01*
X001171Y004798D01*
X001171Y005204D01*
X002077Y005204D01*
X002077Y004971D02*
X001171Y004971D01*
X001171Y005144D02*
X002077Y005144D01*
X002077Y005798D02*
X002077Y006204D01*
X002077Y005798D02*
X001171Y005798D01*
X001171Y006204D01*
X002077Y006204D01*
X002077Y005971D02*
X001171Y005971D01*
X001171Y006144D02*
X002077Y006144D01*
X002077Y006798D02*
X002077Y007204D01*
X002077Y006798D02*
X001171Y006798D01*
X001171Y007204D01*
X002077Y007204D01*
X002077Y006971D02*
X001171Y006971D01*
X001171Y007144D02*
X002077Y007144D01*
X002077Y007798D02*
X002077Y008204D01*
X002077Y007798D02*
X001171Y007798D01*
X001171Y008204D01*
X002077Y008204D01*
X002077Y007971D02*
X001171Y007971D01*
X001171Y008144D02*
X002077Y008144D01*
X002077Y004204D02*
X002077Y003798D01*
X001171Y003798D01*
X001171Y004204D01*
X002077Y004204D01*
X002077Y003971D02*
X001171Y003971D01*
X001171Y004144D02*
X002077Y004144D01*
X008827Y008673D02*
X008827Y009579D01*
X008827Y008673D02*
X008421Y008673D01*
X008421Y009579D01*
X008827Y009579D01*
X008827Y008846D02*
X008421Y008846D01*
X008421Y009019D02*
X008827Y009019D01*
X008827Y009192D02*
X008421Y009192D01*
X008421Y009365D02*
X008827Y009365D01*
X008827Y009538D02*
X008421Y009538D01*
X009827Y009579D02*
X009827Y008673D01*
X009421Y008673D01*
X009421Y009579D01*
X009827Y009579D01*
X009827Y008846D02*
X009421Y008846D01*
X009421Y009019D02*
X009827Y009019D01*
X009827Y009192D02*
X009421Y009192D01*
X009421Y009365D02*
X009827Y009365D01*
X009827Y009538D02*
X009421Y009538D01*
X010827Y009579D02*
X010827Y008673D01*
X010421Y008673D01*
X010421Y009579D01*
X010827Y009579D01*
X010827Y008846D02*
X010421Y008846D01*
X010421Y009019D02*
X010827Y009019D01*
X010827Y009192D02*
X010421Y009192D01*
X010421Y009365D02*
X010827Y009365D01*
X010827Y009538D02*
X010421Y009538D01*
X011827Y009579D02*
X011827Y008673D01*
X011421Y008673D01*
X011421Y009579D01*
X011827Y009579D01*
X011827Y008846D02*
X011421Y008846D01*
X011421Y009019D02*
X011827Y009019D01*
X011827Y009192D02*
X011421Y009192D01*
X011421Y009365D02*
X011827Y009365D01*
X011827Y009538D02*
X011421Y009538D01*
X012827Y009579D02*
X012827Y008673D01*
X012421Y008673D01*
X012421Y009579D01*
X012827Y009579D01*
X012827Y008846D02*
X012421Y008846D01*
X012421Y009019D02*
X012827Y009019D01*
X012827Y009192D02*
X012421Y009192D01*
X012421Y009365D02*
X012827Y009365D01*
X012827Y009538D02*
X012421Y009538D01*
X013827Y009579D02*
X013827Y008673D01*
X013421Y008673D01*
X013421Y009579D01*
X013827Y009579D01*
X013827Y008846D02*
X013421Y008846D01*
X013421Y009019D02*
X013827Y009019D01*
X013827Y009192D02*
X013421Y009192D01*
X013421Y009365D02*
X013827Y009365D01*
X013827Y009538D02*
X013421Y009538D01*
D23*
X012999Y007876D03*
X006874Y009376D03*
X003436Y007001D03*
X002936Y007001D03*
X002936Y005939D03*
X003436Y005939D03*
X001874Y008001D03*
X001374Y008001D03*
M02*
