G75*
G70*
%OFA0B0*%
%FSLAX24Y24*%
%IPPOS*%
%LPD*%
%AMOC8*
5,1,8,0,0,1.08239X$1,22.5*
%
%ADD10C,0.0120*%
%ADD11C,0.0118*%
%ADD12C,0.0120*%
%ADD13R,0.0150X0.0335*%
%ADD14R,0.0335X0.0150*%
%ADD15C,0.0119*%
%ADD16C,0.0121*%
%ADD17C,0.0121*%
%ADD18C,0.0150*%
D10*
X006731Y003029D02*
X006925Y003029D01*
X006731Y003029D02*
X006731Y003223D01*
X006925Y003223D01*
X006925Y003029D01*
X006925Y003148D02*
X006731Y003148D01*
X007322Y003029D02*
X007516Y003029D01*
X007322Y003029D02*
X007322Y003223D01*
X007516Y003223D01*
X007516Y003029D01*
X007516Y003148D02*
X007322Y003148D01*
X012471Y003984D02*
X012471Y004178D01*
X012471Y003984D02*
X012277Y003984D01*
X012277Y004178D01*
X012471Y004178D01*
X012471Y004103D02*
X012277Y004103D01*
X012471Y004575D02*
X012471Y004769D01*
X012471Y004575D02*
X012277Y004575D01*
X012277Y004769D01*
X012471Y004769D01*
X012471Y004694D02*
X012277Y004694D01*
X013481Y005223D02*
X013675Y005223D01*
X013675Y005029D01*
X013481Y005029D01*
X013481Y005223D01*
X013481Y005148D02*
X013675Y005148D01*
X014072Y005223D02*
X014266Y005223D01*
X014266Y005029D01*
X014072Y005029D01*
X014072Y005223D01*
X014072Y005148D02*
X014266Y005148D01*
X015471Y004519D02*
X015471Y004325D01*
X015277Y004325D01*
X015277Y004519D01*
X015471Y004519D01*
X015471Y004444D02*
X015277Y004444D01*
X015471Y003928D02*
X015471Y003734D01*
X015277Y003734D01*
X015277Y003928D01*
X015471Y003928D01*
X015471Y003853D02*
X015277Y003853D01*
X015277Y003269D02*
X015277Y003075D01*
X015277Y003269D02*
X015471Y003269D01*
X015471Y003075D01*
X015277Y003075D01*
X015277Y003194D02*
X015471Y003194D01*
X015277Y002678D02*
X015277Y002484D01*
X015277Y002678D02*
X015471Y002678D01*
X015471Y002484D01*
X015277Y002484D01*
X015277Y002603D02*
X015471Y002603D01*
X015533Y005984D02*
X015533Y006178D01*
X015533Y005984D02*
X015339Y005984D01*
X015339Y006178D01*
X015533Y006178D01*
X015533Y006103D02*
X015339Y006103D01*
X015533Y006575D02*
X015533Y006769D01*
X015533Y006575D02*
X015339Y006575D01*
X015339Y006769D01*
X015533Y006769D01*
X015533Y006694D02*
X015339Y006694D01*
X012902Y006762D02*
X012902Y006956D01*
X013096Y006956D01*
X013096Y006762D01*
X012902Y006762D01*
X012902Y006881D02*
X013096Y006881D01*
X012902Y006366D02*
X012902Y006172D01*
X012902Y006366D02*
X013096Y006366D01*
X013096Y006172D01*
X012902Y006172D01*
X012902Y006291D02*
X013096Y006291D01*
X010277Y007359D02*
X010277Y007553D01*
X010471Y007553D01*
X010471Y007359D01*
X010277Y007359D01*
X010277Y007478D02*
X010471Y007478D01*
X010277Y007950D02*
X010277Y008144D01*
X010471Y008144D01*
X010471Y007950D01*
X010277Y007950D01*
X010277Y008069D02*
X010471Y008069D01*
X009876Y008164D02*
X009876Y007910D01*
X009622Y007910D01*
X009622Y008164D01*
X009876Y008164D01*
X009876Y008029D02*
X009622Y008029D01*
X009622Y008148D02*
X009876Y008148D01*
X009876Y007593D02*
X009876Y007339D01*
X009622Y007339D01*
X009622Y007593D01*
X009876Y007593D01*
X009876Y007458D02*
X009622Y007458D01*
X009622Y007577D02*
X009876Y007577D01*
X007766Y008154D02*
X007572Y008154D01*
X007572Y008348D01*
X007766Y008348D01*
X007766Y008154D01*
X007766Y008273D02*
X007572Y008273D01*
X007175Y008154D02*
X006981Y008154D01*
X006981Y008348D01*
X007175Y008348D01*
X007175Y008154D01*
X007175Y008273D02*
X006981Y008273D01*
X006036Y009249D02*
X005782Y009249D01*
X005782Y009503D01*
X006036Y009503D01*
X006036Y009249D01*
X006036Y009368D02*
X005782Y009368D01*
X005782Y009487D02*
X006036Y009487D01*
X005465Y009249D02*
X005211Y009249D01*
X005211Y009503D01*
X005465Y009503D01*
X005465Y009249D01*
X005465Y009368D02*
X005211Y009368D01*
X005211Y009487D02*
X005465Y009487D01*
X014497Y009289D02*
X014497Y009035D01*
X014497Y009289D02*
X014751Y009289D01*
X014751Y009035D01*
X014497Y009035D01*
X014497Y009154D02*
X014751Y009154D01*
X014751Y009273D02*
X014497Y009273D01*
X014497Y008718D02*
X014497Y008464D01*
X014497Y008718D02*
X014751Y008718D01*
X014751Y008464D01*
X014497Y008464D01*
X014497Y008583D02*
X014751Y008583D01*
X014751Y008702D02*
X014497Y008702D01*
X015277Y008678D02*
X015471Y008678D01*
X015471Y008484D01*
X015277Y008484D01*
X015277Y008678D01*
X015277Y008603D02*
X015471Y008603D01*
X015471Y009269D02*
X015277Y009269D01*
X015471Y009269D02*
X015471Y009075D01*
X015277Y009075D01*
X015277Y009269D01*
X015277Y009194D02*
X015471Y009194D01*
D11*
X014718Y007688D02*
X014442Y007688D01*
X014718Y007688D02*
X014718Y007314D01*
X014442Y007314D01*
X014442Y007688D01*
X014442Y007431D02*
X014718Y007431D01*
X014718Y007548D02*
X014442Y007548D01*
X014442Y007665D02*
X014718Y007665D01*
X013931Y007688D02*
X013655Y007688D01*
X013931Y007688D02*
X013931Y007314D01*
X013655Y007314D01*
X013655Y007688D01*
X013655Y007431D02*
X013931Y007431D01*
X013931Y007548D02*
X013655Y007548D01*
X013655Y007665D02*
X013931Y007665D01*
X011398Y005388D02*
X011398Y005112D01*
X010966Y005112D01*
X010966Y005388D01*
X011398Y005388D01*
X011398Y005229D02*
X010966Y005229D01*
X010966Y005346D02*
X011398Y005346D01*
X011398Y004640D02*
X011398Y004364D01*
X010966Y004364D01*
X010966Y004640D01*
X011398Y004640D01*
X011398Y004481D02*
X010966Y004481D01*
X010966Y004598D02*
X011398Y004598D01*
X011398Y004013D02*
X011398Y003737D01*
X010966Y003737D01*
X010966Y004013D01*
X011398Y004013D01*
X011398Y003854D02*
X010966Y003854D01*
X010966Y003971D02*
X011398Y003971D01*
X011398Y003265D02*
X011398Y002989D01*
X010966Y002989D01*
X010966Y003265D01*
X011398Y003265D01*
X011398Y003106D02*
X010966Y003106D01*
X010966Y003223D02*
X011398Y003223D01*
X010532Y003363D02*
X010532Y003639D01*
X010532Y003363D02*
X010100Y003363D01*
X010100Y003639D01*
X010532Y003639D01*
X010532Y003480D02*
X010100Y003480D01*
X010100Y003597D02*
X010532Y003597D01*
X010532Y004738D02*
X010532Y005014D01*
X010532Y004738D02*
X010100Y004738D01*
X010100Y005014D01*
X010532Y005014D01*
X010532Y004855D02*
X010100Y004855D01*
X010100Y004972D02*
X010532Y004972D01*
X007905Y008752D02*
X007629Y008752D01*
X007629Y009126D01*
X007905Y009126D01*
X007905Y008752D01*
X007905Y008869D02*
X007629Y008869D01*
X007629Y008986D02*
X007905Y008986D01*
X007905Y009103D02*
X007629Y009103D01*
X007118Y008752D02*
X006842Y008752D01*
X006842Y009126D01*
X007118Y009126D01*
X007118Y008752D01*
X007118Y008869D02*
X006842Y008869D01*
X006842Y008986D02*
X007118Y008986D01*
X007118Y009103D02*
X006842Y009103D01*
X004619Y009204D02*
X004619Y009480D01*
X004619Y009204D02*
X003753Y009204D01*
X003753Y009480D01*
X004619Y009480D01*
X004619Y009321D02*
X003753Y009321D01*
X003753Y009438D02*
X004619Y009438D01*
X004619Y008299D02*
X004619Y008023D01*
X003753Y008023D01*
X003753Y008299D01*
X004619Y008299D01*
X004619Y008140D02*
X003753Y008140D01*
X003753Y008257D02*
X004619Y008257D01*
X003369Y008299D02*
X003369Y008023D01*
X002503Y008023D01*
X002503Y008299D01*
X003369Y008299D01*
X003369Y008140D02*
X002503Y008140D01*
X002503Y008257D02*
X003369Y008257D01*
X003369Y009204D02*
X003369Y009480D01*
X003369Y009204D02*
X002503Y009204D01*
X002503Y009480D01*
X003369Y009480D01*
X003369Y009321D02*
X002503Y009321D01*
X002503Y009438D02*
X003369Y009438D01*
D12*
X004310Y006887D02*
X004310Y006811D01*
X004310Y006887D02*
X004446Y006887D01*
X004446Y006811D01*
X004310Y006811D01*
X004310Y006572D02*
X004310Y006496D01*
X004310Y006572D02*
X004446Y006572D01*
X004446Y006496D01*
X004310Y006496D01*
X004310Y006257D02*
X004310Y006181D01*
X004310Y006257D02*
X004446Y006257D01*
X004446Y006181D01*
X004310Y006181D01*
X004310Y005942D02*
X004310Y005866D01*
X004310Y005942D02*
X004446Y005942D01*
X004446Y005866D01*
X004310Y005866D01*
X004802Y005866D02*
X004802Y005942D01*
X004938Y005942D01*
X004938Y005866D01*
X004802Y005866D01*
X004802Y006181D02*
X004802Y006257D01*
X004938Y006257D01*
X004938Y006181D01*
X004802Y006181D01*
X004802Y006496D02*
X004802Y006572D01*
X004938Y006572D01*
X004938Y006496D01*
X004802Y006496D01*
X004802Y006811D02*
X004802Y006887D01*
X004938Y006887D01*
X004938Y006811D01*
X004802Y006811D01*
X004938Y005137D02*
X004938Y005061D01*
X004802Y005061D01*
X004802Y005137D01*
X004938Y005137D01*
X004938Y004822D02*
X004938Y004746D01*
X004802Y004746D01*
X004802Y004822D01*
X004938Y004822D01*
X004938Y004507D02*
X004938Y004431D01*
X004802Y004431D01*
X004802Y004507D01*
X004938Y004507D01*
X004938Y004192D02*
X004938Y004116D01*
X004802Y004116D01*
X004802Y004192D01*
X004938Y004192D01*
X004446Y004192D02*
X004446Y004116D01*
X004310Y004116D01*
X004310Y004192D01*
X004446Y004192D01*
X004446Y004431D02*
X004446Y004507D01*
X004446Y004431D02*
X004310Y004431D01*
X004310Y004507D01*
X004446Y004507D01*
X004446Y004746D02*
X004446Y004822D01*
X004446Y004746D02*
X004310Y004746D01*
X004310Y004822D01*
X004446Y004822D01*
X004446Y005061D02*
X004446Y005137D01*
X004446Y005061D02*
X004310Y005061D01*
X004310Y005137D01*
X004446Y005137D01*
X009810Y005866D02*
X009810Y005942D01*
X009946Y005942D01*
X009946Y005866D01*
X009810Y005866D01*
X009810Y006181D02*
X009810Y006257D01*
X009946Y006257D01*
X009946Y006181D01*
X009810Y006181D01*
X009810Y006496D02*
X009810Y006572D01*
X009946Y006572D01*
X009946Y006496D01*
X009810Y006496D01*
X009810Y006811D02*
X009810Y006887D01*
X009946Y006887D01*
X009946Y006811D01*
X009810Y006811D01*
X010302Y006811D02*
X010302Y006887D01*
X010438Y006887D01*
X010438Y006811D01*
X010302Y006811D01*
X010302Y006572D02*
X010302Y006496D01*
X010302Y006572D02*
X010438Y006572D01*
X010438Y006496D01*
X010302Y006496D01*
X010302Y006257D02*
X010302Y006181D01*
X010302Y006257D02*
X010438Y006257D01*
X010438Y006181D01*
X010302Y006181D01*
X010302Y005942D02*
X010302Y005866D01*
X010302Y005942D02*
X010438Y005942D01*
X010438Y005866D01*
X010302Y005866D01*
X011113Y006062D02*
X011189Y006062D01*
X011113Y006062D02*
X011113Y006198D01*
X011189Y006198D01*
X011189Y006062D01*
X011189Y006181D02*
X011113Y006181D01*
X011428Y006062D02*
X011504Y006062D01*
X011428Y006062D02*
X011428Y006198D01*
X011504Y006198D01*
X011504Y006062D01*
X011504Y006181D02*
X011428Y006181D01*
X011743Y006062D02*
X011819Y006062D01*
X011743Y006062D02*
X011743Y006198D01*
X011819Y006198D01*
X011819Y006062D01*
X011819Y006181D02*
X011743Y006181D01*
X012058Y006062D02*
X012134Y006062D01*
X012058Y006062D02*
X012058Y006198D01*
X012134Y006198D01*
X012134Y006062D01*
X012134Y006181D02*
X012058Y006181D01*
X012058Y006554D02*
X012134Y006554D01*
X012058Y006554D02*
X012058Y006690D01*
X012134Y006690D01*
X012134Y006554D01*
X012134Y006673D02*
X012058Y006673D01*
X011819Y006554D02*
X011743Y006554D01*
X011743Y006690D01*
X011819Y006690D01*
X011819Y006554D01*
X011819Y006673D02*
X011743Y006673D01*
X011504Y006554D02*
X011428Y006554D01*
X011428Y006690D01*
X011504Y006690D01*
X011504Y006554D01*
X011504Y006673D02*
X011428Y006673D01*
X011189Y006554D02*
X011113Y006554D01*
X011113Y006690D01*
X011189Y006690D01*
X011189Y006554D01*
X011189Y006673D02*
X011113Y006673D01*
D13*
X013382Y004404D03*
X013578Y004404D03*
X013775Y004404D03*
X013972Y004404D03*
X014169Y004404D03*
X014366Y004404D03*
X014366Y002849D03*
X014169Y002849D03*
X013972Y002849D03*
X013775Y002849D03*
X013578Y002849D03*
X013382Y002849D03*
D14*
X013096Y003134D03*
X013096Y003331D03*
X013096Y003528D03*
X013096Y003725D03*
X013096Y003922D03*
X013096Y004118D03*
X014651Y004118D03*
X014651Y003922D03*
X014651Y003725D03*
X014651Y003528D03*
X014651Y003331D03*
X014651Y003134D03*
D15*
X014584Y006016D02*
X014584Y006114D01*
X014938Y006114D01*
X014938Y006016D01*
X014584Y006016D01*
X013560Y006016D02*
X013560Y006114D01*
X013914Y006114D01*
X013914Y006016D01*
X013560Y006016D01*
X013560Y006390D02*
X013560Y006488D01*
X013914Y006488D01*
X013914Y006390D01*
X013560Y006390D01*
X013560Y006764D02*
X013560Y006862D01*
X013914Y006862D01*
X013914Y006764D01*
X013560Y006764D01*
X014584Y006764D02*
X014584Y006862D01*
X014938Y006862D01*
X014938Y006764D01*
X014584Y006764D01*
D16*
X008874Y006679D02*
X008874Y006779D01*
X009254Y006779D01*
X009254Y006679D01*
X008874Y006679D01*
X008874Y006464D02*
X008874Y006364D01*
X008874Y006464D02*
X009254Y006464D01*
X009254Y006364D01*
X008874Y006364D01*
X008874Y006149D02*
X008874Y006049D01*
X008874Y006149D02*
X009254Y006149D01*
X009254Y006049D01*
X008874Y006049D01*
X008874Y005834D02*
X008874Y005734D01*
X008874Y005834D02*
X009254Y005834D01*
X009254Y005734D01*
X008874Y005734D01*
X008874Y005519D02*
X008874Y005419D01*
X008874Y005519D02*
X009254Y005519D01*
X009254Y005419D01*
X008874Y005419D01*
X008874Y005204D02*
X008874Y005104D01*
X008874Y005204D02*
X009254Y005204D01*
X009254Y005104D01*
X008874Y005104D01*
X008874Y004889D02*
X008874Y004789D01*
X008874Y004889D02*
X009254Y004889D01*
X009254Y004789D01*
X008874Y004789D01*
X008874Y004574D02*
X008874Y004474D01*
X008874Y004574D02*
X009254Y004574D01*
X009254Y004474D01*
X008874Y004474D01*
X008426Y004126D02*
X008426Y003746D01*
X008426Y004126D02*
X008526Y004126D01*
X008526Y003746D01*
X008426Y003746D01*
X008426Y003866D02*
X008526Y003866D01*
X008526Y003986D02*
X008426Y003986D01*
X008426Y004106D02*
X008526Y004106D01*
X008111Y004126D02*
X008111Y003746D01*
X008111Y004126D02*
X008211Y004126D01*
X008211Y003746D01*
X008111Y003746D01*
X008111Y003866D02*
X008211Y003866D01*
X008211Y003986D02*
X008111Y003986D01*
X008111Y004106D02*
X008211Y004106D01*
X007796Y004126D02*
X007796Y003746D01*
X007796Y004126D02*
X007896Y004126D01*
X007896Y003746D01*
X007796Y003746D01*
X007796Y003866D02*
X007896Y003866D01*
X007896Y003986D02*
X007796Y003986D01*
X007796Y004106D02*
X007896Y004106D01*
X007481Y004126D02*
X007481Y003746D01*
X007481Y004126D02*
X007581Y004126D01*
X007581Y003746D01*
X007481Y003746D01*
X007481Y003866D02*
X007581Y003866D01*
X007581Y003986D02*
X007481Y003986D01*
X007481Y004106D02*
X007581Y004106D01*
X007166Y004126D02*
X007166Y003746D01*
X007166Y004126D02*
X007266Y004126D01*
X007266Y003746D01*
X007166Y003746D01*
X007166Y003866D02*
X007266Y003866D01*
X007266Y003986D02*
X007166Y003986D01*
X007166Y004106D02*
X007266Y004106D01*
X006851Y004126D02*
X006851Y003746D01*
X006851Y004126D02*
X006951Y004126D01*
X006951Y003746D01*
X006851Y003746D01*
X006851Y003866D02*
X006951Y003866D01*
X006951Y003986D02*
X006851Y003986D01*
X006851Y004106D02*
X006951Y004106D01*
X006536Y004126D02*
X006536Y003746D01*
X006536Y004126D02*
X006636Y004126D01*
X006636Y003746D01*
X006536Y003746D01*
X006536Y003866D02*
X006636Y003866D01*
X006636Y003986D02*
X006536Y003986D01*
X006536Y004106D02*
X006636Y004106D01*
X006221Y004126D02*
X006221Y003746D01*
X006221Y004126D02*
X006321Y004126D01*
X006321Y003746D01*
X006221Y003746D01*
X006221Y003866D02*
X006321Y003866D01*
X006321Y003986D02*
X006221Y003986D01*
X006221Y004106D02*
X006321Y004106D01*
X005494Y004474D02*
X005494Y004574D01*
X005874Y004574D01*
X005874Y004474D01*
X005494Y004474D01*
X005494Y004789D02*
X005494Y004889D01*
X005874Y004889D01*
X005874Y004789D01*
X005494Y004789D01*
X005494Y005104D02*
X005494Y005204D01*
X005874Y005204D01*
X005874Y005104D01*
X005494Y005104D01*
X005494Y005419D02*
X005494Y005519D01*
X005874Y005519D01*
X005874Y005419D01*
X005494Y005419D01*
X005494Y005734D02*
X005494Y005834D01*
X005874Y005834D01*
X005874Y005734D01*
X005494Y005734D01*
X005494Y006049D02*
X005494Y006149D01*
X005874Y006149D01*
X005874Y006049D01*
X005494Y006049D01*
X005494Y006364D02*
X005494Y006464D01*
X005874Y006464D01*
X005874Y006364D01*
X005494Y006364D01*
X005494Y006679D02*
X005494Y006779D01*
X005874Y006779D01*
X005874Y006679D01*
X005494Y006679D01*
X006221Y007126D02*
X006221Y007506D01*
X006321Y007506D01*
X006321Y007126D01*
X006221Y007126D01*
X006221Y007246D02*
X006321Y007246D01*
X006321Y007366D02*
X006221Y007366D01*
X006221Y007486D02*
X006321Y007486D01*
X006536Y007506D02*
X006536Y007126D01*
X006536Y007506D02*
X006636Y007506D01*
X006636Y007126D01*
X006536Y007126D01*
X006536Y007246D02*
X006636Y007246D01*
X006636Y007366D02*
X006536Y007366D01*
X006536Y007486D02*
X006636Y007486D01*
X006851Y007506D02*
X006851Y007126D01*
X006851Y007506D02*
X006951Y007506D01*
X006951Y007126D01*
X006851Y007126D01*
X006851Y007246D02*
X006951Y007246D01*
X006951Y007366D02*
X006851Y007366D01*
X006851Y007486D02*
X006951Y007486D01*
X007166Y007506D02*
X007166Y007126D01*
X007166Y007506D02*
X007266Y007506D01*
X007266Y007126D01*
X007166Y007126D01*
X007166Y007246D02*
X007266Y007246D01*
X007266Y007366D02*
X007166Y007366D01*
X007166Y007486D02*
X007266Y007486D01*
X007481Y007506D02*
X007481Y007126D01*
X007481Y007506D02*
X007581Y007506D01*
X007581Y007126D01*
X007481Y007126D01*
X007481Y007246D02*
X007581Y007246D01*
X007581Y007366D02*
X007481Y007366D01*
X007481Y007486D02*
X007581Y007486D01*
X007796Y007506D02*
X007796Y007126D01*
X007796Y007506D02*
X007896Y007506D01*
X007896Y007126D01*
X007796Y007126D01*
X007796Y007246D02*
X007896Y007246D01*
X007896Y007366D02*
X007796Y007366D01*
X007796Y007486D02*
X007896Y007486D01*
X008111Y007506D02*
X008111Y007126D01*
X008111Y007506D02*
X008211Y007506D01*
X008211Y007126D01*
X008111Y007126D01*
X008111Y007246D02*
X008211Y007246D01*
X008211Y007366D02*
X008111Y007366D01*
X008111Y007486D02*
X008211Y007486D01*
X008426Y007506D02*
X008426Y007126D01*
X008426Y007506D02*
X008526Y007506D01*
X008526Y007126D01*
X008426Y007126D01*
X008426Y007246D02*
X008526Y007246D01*
X008526Y007366D02*
X008426Y007366D01*
X008426Y007486D02*
X008526Y007486D01*
D17*
X005820Y008708D02*
X005710Y008598D01*
X005820Y008708D02*
X006206Y008322D01*
X006096Y008212D01*
X005710Y008598D01*
X005976Y008332D02*
X006196Y008332D01*
X006076Y008452D02*
X005856Y008452D01*
X005956Y008572D02*
X005736Y008572D01*
X005804Y008692D02*
X005836Y008692D01*
X005486Y008374D02*
X005376Y008264D01*
X005486Y008374D02*
X005872Y007988D01*
X005762Y007878D01*
X005376Y008264D01*
X005642Y007998D02*
X005862Y007998D01*
X005742Y008118D02*
X005522Y008118D01*
X005622Y008238D02*
X005402Y008238D01*
X005470Y008358D02*
X005502Y008358D01*
X005152Y008040D02*
X005042Y007930D01*
X005152Y008040D02*
X005538Y007654D01*
X005428Y007544D01*
X005042Y007930D01*
X005308Y007664D02*
X005528Y007664D01*
X005408Y007784D02*
X005188Y007784D01*
X005288Y007904D02*
X005068Y007904D01*
X005136Y008024D02*
X005168Y008024D01*
D18*
X002049Y004176D02*
X002049Y003826D01*
X001199Y003826D01*
X001199Y004176D01*
X002049Y004176D01*
X002049Y003975D02*
X001199Y003975D01*
X001199Y004124D02*
X002049Y004124D01*
X002049Y004826D02*
X002049Y005176D01*
X002049Y004826D02*
X001199Y004826D01*
X001199Y005176D01*
X002049Y005176D01*
X002049Y004975D02*
X001199Y004975D01*
X001199Y005124D02*
X002049Y005124D01*
X002049Y005826D02*
X002049Y006176D01*
X002049Y005826D02*
X001199Y005826D01*
X001199Y006176D01*
X002049Y006176D01*
X002049Y005975D02*
X001199Y005975D01*
X001199Y006124D02*
X002049Y006124D01*
X002049Y006826D02*
X002049Y007176D01*
X002049Y006826D02*
X001199Y006826D01*
X001199Y007176D01*
X002049Y007176D01*
X002049Y006975D02*
X001199Y006975D01*
X001199Y007124D02*
X002049Y007124D01*
X002049Y007826D02*
X002049Y008176D01*
X002049Y007826D02*
X001199Y007826D01*
X001199Y008176D01*
X002049Y008176D01*
X002049Y007975D02*
X001199Y007975D01*
X001199Y008124D02*
X002049Y008124D01*
X003611Y007176D02*
X003611Y006826D01*
X002761Y006826D01*
X002761Y007176D01*
X003611Y007176D01*
X003611Y006975D02*
X002761Y006975D01*
X002761Y007124D02*
X003611Y007124D01*
X003611Y006114D02*
X003611Y005764D01*
X002761Y005764D01*
X002761Y006114D01*
X003611Y006114D01*
X003611Y005913D02*
X002761Y005913D01*
X002761Y006062D02*
X003611Y006062D01*
X003611Y005176D02*
X003611Y004826D01*
X002761Y004826D01*
X002761Y005176D01*
X003611Y005176D01*
X003611Y004975D02*
X002761Y004975D01*
X002761Y005124D02*
X003611Y005124D01*
X008799Y008701D02*
X008799Y009551D01*
X008799Y008701D02*
X008449Y008701D01*
X008449Y009551D01*
X008799Y009551D01*
X008799Y008850D02*
X008449Y008850D01*
X008449Y008999D02*
X008799Y008999D01*
X008799Y009148D02*
X008449Y009148D01*
X008449Y009297D02*
X008799Y009297D01*
X008799Y009446D02*
X008449Y009446D01*
X009799Y009551D02*
X009799Y008701D01*
X009449Y008701D01*
X009449Y009551D01*
X009799Y009551D01*
X009799Y008850D02*
X009449Y008850D01*
X009449Y008999D02*
X009799Y008999D01*
X009799Y009148D02*
X009449Y009148D01*
X009449Y009297D02*
X009799Y009297D01*
X009799Y009446D02*
X009449Y009446D01*
X010799Y009551D02*
X010799Y008701D01*
X010449Y008701D01*
X010449Y009551D01*
X010799Y009551D01*
X010799Y008850D02*
X010449Y008850D01*
X010449Y008999D02*
X010799Y008999D01*
X010799Y009148D02*
X010449Y009148D01*
X010449Y009297D02*
X010799Y009297D01*
X010799Y009446D02*
X010449Y009446D01*
X011799Y009551D02*
X011799Y008701D01*
X011449Y008701D01*
X011449Y009551D01*
X011799Y009551D01*
X011799Y008850D02*
X011449Y008850D01*
X011449Y008999D02*
X011799Y008999D01*
X011799Y009148D02*
X011449Y009148D01*
X011449Y009297D02*
X011799Y009297D01*
X011799Y009446D02*
X011449Y009446D01*
X012799Y009551D02*
X012799Y008701D01*
X012449Y008701D01*
X012449Y009551D01*
X012799Y009551D01*
X012799Y008850D02*
X012449Y008850D01*
X012449Y008999D02*
X012799Y008999D01*
X012799Y009148D02*
X012449Y009148D01*
X012449Y009297D02*
X012799Y009297D01*
X012799Y009446D02*
X012449Y009446D01*
X013799Y009551D02*
X013799Y008701D01*
X013449Y008701D01*
X013449Y009551D01*
X013799Y009551D01*
X013799Y008850D02*
X013449Y008850D01*
X013449Y008999D02*
X013799Y008999D01*
X013799Y009148D02*
X013449Y009148D01*
X013449Y009297D02*
X013799Y009297D01*
X013799Y009446D02*
X013449Y009446D01*
M02*
