G75*
G70*
%OFA0B0*%
%FSLAX24Y24*%
%IPPOS*%
%LPD*%
%AMOC8*
5,1,8,0,0,1.08239X$1,22.5*
%
%ADD10C,0.0000*%
%ADD11C,0.0120*%
%ADD12C,0.0118*%
%ADD13C,0.0120*%
%ADD14C,0.0394*%
%ADD15C,0.0120*%
%ADD16C,0.0119*%
%ADD17C,0.0121*%
%ADD18C,0.0121*%
%ADD19C,0.0150*%
%ADD20C,0.0060*%
%ADD21C,0.0278*%
%ADD22C,0.0357*%
%ADD23C,0.0160*%
D10*
X000624Y001876D02*
X000624Y010126D01*
X015191Y010126D01*
X015257Y010124D01*
X015323Y010119D01*
X015389Y010109D01*
X015454Y010096D01*
X015518Y010080D01*
X015581Y010060D01*
X015643Y010036D01*
X015703Y010009D01*
X015762Y009979D01*
X015819Y009945D01*
X015874Y009908D01*
X015927Y009868D01*
X015978Y009826D01*
X016026Y009780D01*
X016072Y009732D01*
X016114Y009681D01*
X016154Y009628D01*
X016191Y009573D01*
X016225Y009516D01*
X016255Y009457D01*
X016282Y009397D01*
X016306Y009335D01*
X016326Y009272D01*
X016342Y009208D01*
X016355Y009143D01*
X016365Y009077D01*
X016370Y009011D01*
X016372Y008945D01*
X016372Y003057D01*
X016370Y002991D01*
X016365Y002925D01*
X016355Y002859D01*
X016342Y002794D01*
X016326Y002730D01*
X016306Y002667D01*
X016282Y002605D01*
X016255Y002545D01*
X016225Y002486D01*
X016191Y002429D01*
X016154Y002374D01*
X016114Y002321D01*
X016072Y002270D01*
X016026Y002222D01*
X015978Y002176D01*
X015927Y002134D01*
X015874Y002094D01*
X015819Y002057D01*
X015762Y002023D01*
X015703Y001993D01*
X015643Y001966D01*
X015581Y001942D01*
X015518Y001922D01*
X015454Y001906D01*
X015389Y001893D01*
X015323Y001883D01*
X015257Y001878D01*
X015191Y001876D01*
X000624Y001876D01*
X002632Y003001D02*
X002634Y003045D01*
X002640Y003089D01*
X002650Y003132D01*
X002663Y003174D01*
X002681Y003214D01*
X002702Y003253D01*
X002726Y003290D01*
X002753Y003325D01*
X002784Y003357D01*
X002817Y003386D01*
X002853Y003412D01*
X002891Y003434D01*
X002931Y003453D01*
X002972Y003469D01*
X003015Y003481D01*
X003058Y003489D01*
X003102Y003493D01*
X003146Y003493D01*
X003190Y003489D01*
X003233Y003481D01*
X003276Y003469D01*
X003317Y003453D01*
X003357Y003434D01*
X003395Y003412D01*
X003431Y003386D01*
X003464Y003357D01*
X003495Y003325D01*
X003522Y003290D01*
X003546Y003253D01*
X003567Y003214D01*
X003585Y003174D01*
X003598Y003132D01*
X003608Y003089D01*
X003614Y003045D01*
X003616Y003001D01*
X003614Y002957D01*
X003608Y002913D01*
X003598Y002870D01*
X003585Y002828D01*
X003567Y002788D01*
X003546Y002749D01*
X003522Y002712D01*
X003495Y002677D01*
X003464Y002645D01*
X003431Y002616D01*
X003395Y002590D01*
X003357Y002568D01*
X003317Y002549D01*
X003276Y002533D01*
X003233Y002521D01*
X003190Y002513D01*
X003146Y002509D01*
X003102Y002509D01*
X003058Y002513D01*
X003015Y002521D01*
X002972Y002533D01*
X002931Y002549D01*
X002891Y002568D01*
X002853Y002590D01*
X002817Y002616D01*
X002784Y002645D01*
X002753Y002677D01*
X002726Y002712D01*
X002702Y002749D01*
X002681Y002788D01*
X002663Y002828D01*
X002650Y002870D01*
X002640Y002913D01*
X002634Y002957D01*
X002632Y003001D01*
X008138Y002376D02*
X008140Y002406D01*
X008146Y002436D01*
X008155Y002465D01*
X008168Y002492D01*
X008185Y002517D01*
X008204Y002540D01*
X008227Y002561D01*
X008252Y002578D01*
X008278Y002592D01*
X008307Y002602D01*
X008336Y002609D01*
X008366Y002612D01*
X008397Y002611D01*
X008427Y002606D01*
X008456Y002597D01*
X008483Y002585D01*
X008509Y002570D01*
X008533Y002551D01*
X008554Y002529D01*
X008572Y002505D01*
X008587Y002478D01*
X008598Y002450D01*
X008606Y002421D01*
X008610Y002391D01*
X008610Y002361D01*
X008606Y002331D01*
X008598Y002302D01*
X008587Y002274D01*
X008572Y002247D01*
X008554Y002223D01*
X008533Y002201D01*
X008509Y002182D01*
X008483Y002167D01*
X008456Y002155D01*
X008427Y002146D01*
X008397Y002141D01*
X008366Y002140D01*
X008336Y002143D01*
X008307Y002150D01*
X008278Y002160D01*
X008252Y002174D01*
X008227Y002191D01*
X008204Y002212D01*
X008185Y002235D01*
X008168Y002260D01*
X008155Y002287D01*
X008146Y002316D01*
X008140Y002346D01*
X008138Y002376D01*
X011138Y002376D02*
X011140Y002406D01*
X011146Y002436D01*
X011155Y002465D01*
X011168Y002492D01*
X011185Y002517D01*
X011204Y002540D01*
X011227Y002561D01*
X011252Y002578D01*
X011278Y002592D01*
X011307Y002602D01*
X011336Y002609D01*
X011366Y002612D01*
X011397Y002611D01*
X011427Y002606D01*
X011456Y002597D01*
X011483Y002585D01*
X011509Y002570D01*
X011533Y002551D01*
X011554Y002529D01*
X011572Y002505D01*
X011587Y002478D01*
X011598Y002450D01*
X011606Y002421D01*
X011610Y002391D01*
X011610Y002361D01*
X011606Y002331D01*
X011598Y002302D01*
X011587Y002274D01*
X011572Y002247D01*
X011554Y002223D01*
X011533Y002201D01*
X011509Y002182D01*
X011483Y002167D01*
X011456Y002155D01*
X011427Y002146D01*
X011397Y002141D01*
X011366Y002140D01*
X011336Y002143D01*
X011307Y002150D01*
X011278Y002160D01*
X011252Y002174D01*
X011227Y002191D01*
X011204Y002212D01*
X011185Y002235D01*
X011168Y002260D01*
X011155Y002287D01*
X011146Y002316D01*
X011140Y002346D01*
X011138Y002376D01*
D11*
X012471Y003984D02*
X012471Y004178D01*
X012471Y003984D02*
X012277Y003984D01*
X012277Y004178D01*
X012471Y004178D01*
X012471Y004103D02*
X012277Y004103D01*
X012471Y004575D02*
X012471Y004769D01*
X012471Y004575D02*
X012277Y004575D01*
X012277Y004769D01*
X012471Y004769D01*
X012471Y004694D02*
X012277Y004694D01*
X013481Y005223D02*
X013675Y005223D01*
X013675Y005029D01*
X013481Y005029D01*
X013481Y005223D01*
X013481Y005148D02*
X013675Y005148D01*
X014072Y005223D02*
X014266Y005223D01*
X014266Y005029D01*
X014072Y005029D01*
X014072Y005223D01*
X014072Y005148D02*
X014266Y005148D01*
X015471Y004519D02*
X015471Y004325D01*
X015277Y004325D01*
X015277Y004519D01*
X015471Y004519D01*
X015471Y004444D02*
X015277Y004444D01*
X015471Y003928D02*
X015471Y003734D01*
X015277Y003734D01*
X015277Y003928D01*
X015471Y003928D01*
X015471Y003853D02*
X015277Y003853D01*
X015277Y003269D02*
X015277Y003075D01*
X015277Y003269D02*
X015471Y003269D01*
X015471Y003075D01*
X015277Y003075D01*
X015277Y003194D02*
X015471Y003194D01*
X015277Y002678D02*
X015277Y002484D01*
X015277Y002678D02*
X015471Y002678D01*
X015471Y002484D01*
X015277Y002484D01*
X015277Y002603D02*
X015471Y002603D01*
X015533Y005984D02*
X015533Y006178D01*
X015533Y005984D02*
X015339Y005984D01*
X015339Y006178D01*
X015533Y006178D01*
X015533Y006103D02*
X015339Y006103D01*
X015533Y006575D02*
X015533Y006769D01*
X015533Y006575D02*
X015339Y006575D01*
X015339Y006769D01*
X015533Y006769D01*
X015533Y006694D02*
X015339Y006694D01*
X012902Y006762D02*
X012902Y006956D01*
X013096Y006956D01*
X013096Y006762D01*
X012902Y006762D01*
X012902Y006881D02*
X013096Y006881D01*
X012902Y006366D02*
X012902Y006172D01*
X012902Y006366D02*
X013096Y006366D01*
X013096Y006172D01*
X012902Y006172D01*
X012902Y006291D02*
X013096Y006291D01*
X010277Y007359D02*
X010277Y007553D01*
X010471Y007553D01*
X010471Y007359D01*
X010277Y007359D01*
X010277Y007478D02*
X010471Y007478D01*
X010277Y007950D02*
X010277Y008144D01*
X010471Y008144D01*
X010471Y007950D01*
X010277Y007950D01*
X010277Y008069D02*
X010471Y008069D01*
X009876Y008164D02*
X009876Y007910D01*
X009622Y007910D01*
X009622Y008164D01*
X009876Y008164D01*
X009876Y008029D02*
X009622Y008029D01*
X009622Y008148D02*
X009876Y008148D01*
X009876Y007593D02*
X009876Y007339D01*
X009622Y007339D01*
X009622Y007593D01*
X009876Y007593D01*
X009876Y007458D02*
X009622Y007458D01*
X009622Y007577D02*
X009876Y007577D01*
X007766Y008154D02*
X007572Y008154D01*
X007572Y008348D01*
X007766Y008348D01*
X007766Y008154D01*
X007766Y008273D02*
X007572Y008273D01*
X007175Y008154D02*
X006981Y008154D01*
X006981Y008348D01*
X007175Y008348D01*
X007175Y008154D01*
X007175Y008273D02*
X006981Y008273D01*
X006036Y009249D02*
X005782Y009249D01*
X005782Y009503D01*
X006036Y009503D01*
X006036Y009249D01*
X006036Y009368D02*
X005782Y009368D01*
X005782Y009487D02*
X006036Y009487D01*
X005465Y009249D02*
X005211Y009249D01*
X005211Y009503D01*
X005465Y009503D01*
X005465Y009249D01*
X005465Y009368D02*
X005211Y009368D01*
X005211Y009487D02*
X005465Y009487D01*
X006731Y003029D02*
X006925Y003029D01*
X006731Y003029D02*
X006731Y003223D01*
X006925Y003223D01*
X006925Y003029D01*
X006925Y003148D02*
X006731Y003148D01*
X007322Y003029D02*
X007516Y003029D01*
X007322Y003029D02*
X007322Y003223D01*
X007516Y003223D01*
X007516Y003029D01*
X007516Y003148D02*
X007322Y003148D01*
X014497Y008464D02*
X014497Y008718D01*
X014751Y008718D01*
X014751Y008464D01*
X014497Y008464D01*
X014497Y008583D02*
X014751Y008583D01*
X014751Y008702D02*
X014497Y008702D01*
X014497Y009035D02*
X014497Y009289D01*
X014751Y009289D01*
X014751Y009035D01*
X014497Y009035D01*
X014497Y009154D02*
X014751Y009154D01*
X014751Y009273D02*
X014497Y009273D01*
X015277Y009269D02*
X015471Y009269D01*
X015471Y009075D01*
X015277Y009075D01*
X015277Y009269D01*
X015277Y009194D02*
X015471Y009194D01*
X015471Y008678D02*
X015277Y008678D01*
X015471Y008678D02*
X015471Y008484D01*
X015277Y008484D01*
X015277Y008678D01*
X015277Y008603D02*
X015471Y008603D01*
D12*
X014718Y007688D02*
X014442Y007688D01*
X014718Y007688D02*
X014718Y007314D01*
X014442Y007314D01*
X014442Y007688D01*
X014442Y007431D02*
X014718Y007431D01*
X014718Y007548D02*
X014442Y007548D01*
X014442Y007665D02*
X014718Y007665D01*
X013931Y007688D02*
X013655Y007688D01*
X013931Y007688D02*
X013931Y007314D01*
X013655Y007314D01*
X013655Y007688D01*
X013655Y007431D02*
X013931Y007431D01*
X013931Y007548D02*
X013655Y007548D01*
X013655Y007665D02*
X013931Y007665D01*
X011398Y005388D02*
X011398Y005112D01*
X010966Y005112D01*
X010966Y005388D01*
X011398Y005388D01*
X011398Y005229D02*
X010966Y005229D01*
X010966Y005346D02*
X011398Y005346D01*
X011398Y004640D02*
X011398Y004364D01*
X010966Y004364D01*
X010966Y004640D01*
X011398Y004640D01*
X011398Y004481D02*
X010966Y004481D01*
X010966Y004598D02*
X011398Y004598D01*
X011398Y004013D02*
X011398Y003737D01*
X010966Y003737D01*
X010966Y004013D01*
X011398Y004013D01*
X011398Y003854D02*
X010966Y003854D01*
X010966Y003971D02*
X011398Y003971D01*
X011398Y003265D02*
X011398Y002989D01*
X010966Y002989D01*
X010966Y003265D01*
X011398Y003265D01*
X011398Y003106D02*
X010966Y003106D01*
X010966Y003223D02*
X011398Y003223D01*
X010532Y003363D02*
X010532Y003639D01*
X010532Y003363D02*
X010100Y003363D01*
X010100Y003639D01*
X010532Y003639D01*
X010532Y003480D02*
X010100Y003480D01*
X010100Y003597D02*
X010532Y003597D01*
X010532Y004738D02*
X010532Y005014D01*
X010532Y004738D02*
X010100Y004738D01*
X010100Y005014D01*
X010532Y005014D01*
X010532Y004855D02*
X010100Y004855D01*
X010100Y004972D02*
X010532Y004972D01*
X007905Y008752D02*
X007629Y008752D01*
X007629Y009126D01*
X007905Y009126D01*
X007905Y008752D01*
X007905Y008869D02*
X007629Y008869D01*
X007629Y008986D02*
X007905Y008986D01*
X007905Y009103D02*
X007629Y009103D01*
X007118Y008752D02*
X006842Y008752D01*
X006842Y009126D01*
X007118Y009126D01*
X007118Y008752D01*
X007118Y008869D02*
X006842Y008869D01*
X006842Y008986D02*
X007118Y008986D01*
X007118Y009103D02*
X006842Y009103D01*
X004619Y009204D02*
X004619Y009480D01*
X004619Y009204D02*
X003753Y009204D01*
X003753Y009480D01*
X004619Y009480D01*
X004619Y009321D02*
X003753Y009321D01*
X003753Y009438D02*
X004619Y009438D01*
X004619Y008299D02*
X004619Y008023D01*
X003753Y008023D01*
X003753Y008299D01*
X004619Y008299D01*
X004619Y008140D02*
X003753Y008140D01*
X003753Y008257D02*
X004619Y008257D01*
X003369Y008299D02*
X003369Y008023D01*
X002503Y008023D01*
X002503Y008299D01*
X003369Y008299D01*
X003369Y008140D02*
X002503Y008140D01*
X002503Y008257D02*
X003369Y008257D01*
X003369Y009204D02*
X003369Y009480D01*
X003369Y009204D02*
X002503Y009204D01*
X002503Y009480D01*
X003369Y009480D01*
X003369Y009321D02*
X002503Y009321D01*
X002503Y009438D02*
X003369Y009438D01*
D13*
X004310Y006887D02*
X004310Y006811D01*
X004310Y006887D02*
X004446Y006887D01*
X004446Y006811D01*
X004310Y006811D01*
X004310Y006572D02*
X004310Y006496D01*
X004310Y006572D02*
X004446Y006572D01*
X004446Y006496D01*
X004310Y006496D01*
X004310Y006257D02*
X004310Y006181D01*
X004310Y006257D02*
X004446Y006257D01*
X004446Y006181D01*
X004310Y006181D01*
X004310Y005942D02*
X004310Y005866D01*
X004310Y005942D02*
X004446Y005942D01*
X004446Y005866D01*
X004310Y005866D01*
X004802Y005866D02*
X004802Y005942D01*
X004938Y005942D01*
X004938Y005866D01*
X004802Y005866D01*
X004802Y006181D02*
X004802Y006257D01*
X004938Y006257D01*
X004938Y006181D01*
X004802Y006181D01*
X004802Y006496D02*
X004802Y006572D01*
X004938Y006572D01*
X004938Y006496D01*
X004802Y006496D01*
X004802Y006811D02*
X004802Y006887D01*
X004938Y006887D01*
X004938Y006811D01*
X004802Y006811D01*
X004938Y005137D02*
X004938Y005061D01*
X004802Y005061D01*
X004802Y005137D01*
X004938Y005137D01*
X004938Y004822D02*
X004938Y004746D01*
X004802Y004746D01*
X004802Y004822D01*
X004938Y004822D01*
X004938Y004507D02*
X004938Y004431D01*
X004802Y004431D01*
X004802Y004507D01*
X004938Y004507D01*
X004938Y004192D02*
X004938Y004116D01*
X004802Y004116D01*
X004802Y004192D01*
X004938Y004192D01*
X004446Y004192D02*
X004446Y004116D01*
X004310Y004116D01*
X004310Y004192D01*
X004446Y004192D01*
X004446Y004431D02*
X004446Y004507D01*
X004446Y004431D02*
X004310Y004431D01*
X004310Y004507D01*
X004446Y004507D01*
X004446Y004746D02*
X004446Y004822D01*
X004446Y004746D02*
X004310Y004746D01*
X004310Y004822D01*
X004446Y004822D01*
X004446Y005061D02*
X004446Y005137D01*
X004446Y005061D02*
X004310Y005061D01*
X004310Y005137D01*
X004446Y005137D01*
X009810Y005866D02*
X009810Y005942D01*
X009946Y005942D01*
X009946Y005866D01*
X009810Y005866D01*
X009810Y006181D02*
X009810Y006257D01*
X009946Y006257D01*
X009946Y006181D01*
X009810Y006181D01*
X009810Y006496D02*
X009810Y006572D01*
X009946Y006572D01*
X009946Y006496D01*
X009810Y006496D01*
X009810Y006811D02*
X009810Y006887D01*
X009946Y006887D01*
X009946Y006811D01*
X009810Y006811D01*
X010302Y006811D02*
X010302Y006887D01*
X010438Y006887D01*
X010438Y006811D01*
X010302Y006811D01*
X010302Y006572D02*
X010302Y006496D01*
X010302Y006572D02*
X010438Y006572D01*
X010438Y006496D01*
X010302Y006496D01*
X010302Y006257D02*
X010302Y006181D01*
X010302Y006257D02*
X010438Y006257D01*
X010438Y006181D01*
X010302Y006181D01*
X010302Y005942D02*
X010302Y005866D01*
X010302Y005942D02*
X010438Y005942D01*
X010438Y005866D01*
X010302Y005866D01*
X011113Y006062D02*
X011189Y006062D01*
X011113Y006062D02*
X011113Y006198D01*
X011189Y006198D01*
X011189Y006062D01*
X011189Y006181D02*
X011113Y006181D01*
X011428Y006062D02*
X011504Y006062D01*
X011428Y006062D02*
X011428Y006198D01*
X011504Y006198D01*
X011504Y006062D01*
X011504Y006181D02*
X011428Y006181D01*
X011743Y006062D02*
X011819Y006062D01*
X011743Y006062D02*
X011743Y006198D01*
X011819Y006198D01*
X011819Y006062D01*
X011819Y006181D02*
X011743Y006181D01*
X012058Y006062D02*
X012134Y006062D01*
X012058Y006062D02*
X012058Y006198D01*
X012134Y006198D01*
X012134Y006062D01*
X012134Y006181D02*
X012058Y006181D01*
X012058Y006554D02*
X012134Y006554D01*
X012058Y006554D02*
X012058Y006690D01*
X012134Y006690D01*
X012134Y006554D01*
X012134Y006673D02*
X012058Y006673D01*
X011819Y006554D02*
X011743Y006554D01*
X011743Y006690D01*
X011819Y006690D01*
X011819Y006554D01*
X011819Y006673D02*
X011743Y006673D01*
X011504Y006554D02*
X011428Y006554D01*
X011428Y006690D01*
X011504Y006690D01*
X011504Y006554D01*
X011504Y006673D02*
X011428Y006673D01*
X011189Y006554D02*
X011113Y006554D01*
X011113Y006690D01*
X011189Y006690D01*
X011189Y006554D01*
X011189Y006673D02*
X011113Y006673D01*
D14*
X014186Y002314D03*
X014749Y002314D03*
D15*
X014371Y002742D02*
X014371Y002956D01*
X014371Y002742D02*
X014361Y002742D01*
X014361Y002956D01*
X014371Y002956D01*
X014371Y002861D02*
X014361Y002861D01*
X014174Y002956D02*
X014174Y002742D01*
X014164Y002742D01*
X014164Y002956D01*
X014174Y002956D01*
X014174Y002861D02*
X014164Y002861D01*
X013977Y002956D02*
X013977Y002742D01*
X013967Y002742D01*
X013967Y002956D01*
X013977Y002956D01*
X013977Y002861D02*
X013967Y002861D01*
X013780Y002956D02*
X013780Y002742D01*
X013770Y002742D01*
X013770Y002956D01*
X013780Y002956D01*
X013780Y002861D02*
X013770Y002861D01*
X013583Y002956D02*
X013583Y002742D01*
X013573Y002742D01*
X013573Y002956D01*
X013583Y002956D01*
X013583Y002861D02*
X013573Y002861D01*
X013387Y002956D02*
X013387Y002742D01*
X013377Y002742D01*
X013377Y002956D01*
X013387Y002956D01*
X013387Y002861D02*
X013377Y002861D01*
X013203Y003129D02*
X012989Y003129D01*
X012989Y003139D01*
X013203Y003139D01*
X013203Y003129D01*
X013203Y003326D02*
X012989Y003326D01*
X012989Y003336D01*
X013203Y003336D01*
X013203Y003326D01*
X013203Y003523D02*
X012989Y003523D01*
X012989Y003533D01*
X013203Y003533D01*
X013203Y003523D01*
X013203Y003720D02*
X012989Y003720D01*
X012989Y003730D01*
X013203Y003730D01*
X013203Y003720D01*
X013203Y003917D02*
X012989Y003917D01*
X012989Y003927D01*
X013203Y003927D01*
X013203Y003917D01*
X013203Y004113D02*
X012989Y004113D01*
X012989Y004123D01*
X013203Y004123D01*
X013203Y004113D01*
X013377Y004297D02*
X013377Y004511D01*
X013387Y004511D01*
X013387Y004297D01*
X013377Y004297D01*
X013387Y004416D02*
X013377Y004416D01*
X013573Y004511D02*
X013573Y004297D01*
X013573Y004511D02*
X013583Y004511D01*
X013583Y004297D01*
X013573Y004297D01*
X013583Y004416D02*
X013573Y004416D01*
X013770Y004511D02*
X013770Y004297D01*
X013770Y004511D02*
X013780Y004511D01*
X013780Y004297D01*
X013770Y004297D01*
X013780Y004416D02*
X013770Y004416D01*
X013967Y004511D02*
X013967Y004297D01*
X013967Y004511D02*
X013977Y004511D01*
X013977Y004297D01*
X013967Y004297D01*
X013977Y004416D02*
X013967Y004416D01*
X014164Y004511D02*
X014164Y004297D01*
X014164Y004511D02*
X014174Y004511D01*
X014174Y004297D01*
X014164Y004297D01*
X014174Y004416D02*
X014164Y004416D01*
X014361Y004511D02*
X014361Y004297D01*
X014361Y004511D02*
X014371Y004511D01*
X014371Y004297D01*
X014361Y004297D01*
X014371Y004416D02*
X014361Y004416D01*
X014544Y004123D02*
X014758Y004123D01*
X014758Y004113D01*
X014544Y004113D01*
X014544Y004123D01*
X014544Y003927D02*
X014758Y003927D01*
X014758Y003917D01*
X014544Y003917D01*
X014544Y003927D01*
X014544Y003730D02*
X014758Y003730D01*
X014758Y003720D01*
X014544Y003720D01*
X014544Y003730D01*
X014544Y003533D02*
X014758Y003533D01*
X014758Y003523D01*
X014544Y003523D01*
X014544Y003533D01*
X014544Y003336D02*
X014758Y003336D01*
X014758Y003326D01*
X014544Y003326D01*
X014544Y003336D01*
X014544Y003139D02*
X014758Y003139D01*
X014758Y003129D01*
X014544Y003129D01*
X014544Y003139D01*
D16*
X014584Y006016D02*
X014584Y006114D01*
X014938Y006114D01*
X014938Y006016D01*
X014584Y006016D01*
X013560Y006016D02*
X013560Y006114D01*
X013914Y006114D01*
X013914Y006016D01*
X013560Y006016D01*
X013560Y006390D02*
X013560Y006488D01*
X013914Y006488D01*
X013914Y006390D01*
X013560Y006390D01*
X013560Y006764D02*
X013560Y006862D01*
X013914Y006862D01*
X013914Y006764D01*
X013560Y006764D01*
X014584Y006764D02*
X014584Y006862D01*
X014938Y006862D01*
X014938Y006764D01*
X014584Y006764D01*
D17*
X008874Y006679D02*
X008874Y006779D01*
X009254Y006779D01*
X009254Y006679D01*
X008874Y006679D01*
X008874Y006464D02*
X008874Y006364D01*
X008874Y006464D02*
X009254Y006464D01*
X009254Y006364D01*
X008874Y006364D01*
X008874Y006149D02*
X008874Y006049D01*
X008874Y006149D02*
X009254Y006149D01*
X009254Y006049D01*
X008874Y006049D01*
X008874Y005834D02*
X008874Y005734D01*
X008874Y005834D02*
X009254Y005834D01*
X009254Y005734D01*
X008874Y005734D01*
X008874Y005519D02*
X008874Y005419D01*
X008874Y005519D02*
X009254Y005519D01*
X009254Y005419D01*
X008874Y005419D01*
X008874Y005204D02*
X008874Y005104D01*
X008874Y005204D02*
X009254Y005204D01*
X009254Y005104D01*
X008874Y005104D01*
X008874Y004889D02*
X008874Y004789D01*
X008874Y004889D02*
X009254Y004889D01*
X009254Y004789D01*
X008874Y004789D01*
X008874Y004574D02*
X008874Y004474D01*
X008874Y004574D02*
X009254Y004574D01*
X009254Y004474D01*
X008874Y004474D01*
X008426Y004126D02*
X008426Y003746D01*
X008426Y004126D02*
X008526Y004126D01*
X008526Y003746D01*
X008426Y003746D01*
X008426Y003866D02*
X008526Y003866D01*
X008526Y003986D02*
X008426Y003986D01*
X008426Y004106D02*
X008526Y004106D01*
X008111Y004126D02*
X008111Y003746D01*
X008111Y004126D02*
X008211Y004126D01*
X008211Y003746D01*
X008111Y003746D01*
X008111Y003866D02*
X008211Y003866D01*
X008211Y003986D02*
X008111Y003986D01*
X008111Y004106D02*
X008211Y004106D01*
X007796Y004126D02*
X007796Y003746D01*
X007796Y004126D02*
X007896Y004126D01*
X007896Y003746D01*
X007796Y003746D01*
X007796Y003866D02*
X007896Y003866D01*
X007896Y003986D02*
X007796Y003986D01*
X007796Y004106D02*
X007896Y004106D01*
X007481Y004126D02*
X007481Y003746D01*
X007481Y004126D02*
X007581Y004126D01*
X007581Y003746D01*
X007481Y003746D01*
X007481Y003866D02*
X007581Y003866D01*
X007581Y003986D02*
X007481Y003986D01*
X007481Y004106D02*
X007581Y004106D01*
X007166Y004126D02*
X007166Y003746D01*
X007166Y004126D02*
X007266Y004126D01*
X007266Y003746D01*
X007166Y003746D01*
X007166Y003866D02*
X007266Y003866D01*
X007266Y003986D02*
X007166Y003986D01*
X007166Y004106D02*
X007266Y004106D01*
X006851Y004126D02*
X006851Y003746D01*
X006851Y004126D02*
X006951Y004126D01*
X006951Y003746D01*
X006851Y003746D01*
X006851Y003866D02*
X006951Y003866D01*
X006951Y003986D02*
X006851Y003986D01*
X006851Y004106D02*
X006951Y004106D01*
X006536Y004126D02*
X006536Y003746D01*
X006536Y004126D02*
X006636Y004126D01*
X006636Y003746D01*
X006536Y003746D01*
X006536Y003866D02*
X006636Y003866D01*
X006636Y003986D02*
X006536Y003986D01*
X006536Y004106D02*
X006636Y004106D01*
X006221Y004126D02*
X006221Y003746D01*
X006221Y004126D02*
X006321Y004126D01*
X006321Y003746D01*
X006221Y003746D01*
X006221Y003866D02*
X006321Y003866D01*
X006321Y003986D02*
X006221Y003986D01*
X006221Y004106D02*
X006321Y004106D01*
X005494Y004474D02*
X005494Y004574D01*
X005874Y004574D01*
X005874Y004474D01*
X005494Y004474D01*
X005494Y004789D02*
X005494Y004889D01*
X005874Y004889D01*
X005874Y004789D01*
X005494Y004789D01*
X005494Y005104D02*
X005494Y005204D01*
X005874Y005204D01*
X005874Y005104D01*
X005494Y005104D01*
X005494Y005419D02*
X005494Y005519D01*
X005874Y005519D01*
X005874Y005419D01*
X005494Y005419D01*
X005494Y005734D02*
X005494Y005834D01*
X005874Y005834D01*
X005874Y005734D01*
X005494Y005734D01*
X005494Y006049D02*
X005494Y006149D01*
X005874Y006149D01*
X005874Y006049D01*
X005494Y006049D01*
X005494Y006364D02*
X005494Y006464D01*
X005874Y006464D01*
X005874Y006364D01*
X005494Y006364D01*
X005494Y006679D02*
X005494Y006779D01*
X005874Y006779D01*
X005874Y006679D01*
X005494Y006679D01*
X006221Y007126D02*
X006221Y007506D01*
X006321Y007506D01*
X006321Y007126D01*
X006221Y007126D01*
X006221Y007246D02*
X006321Y007246D01*
X006321Y007366D02*
X006221Y007366D01*
X006221Y007486D02*
X006321Y007486D01*
X006536Y007506D02*
X006536Y007126D01*
X006536Y007506D02*
X006636Y007506D01*
X006636Y007126D01*
X006536Y007126D01*
X006536Y007246D02*
X006636Y007246D01*
X006636Y007366D02*
X006536Y007366D01*
X006536Y007486D02*
X006636Y007486D01*
X006851Y007506D02*
X006851Y007126D01*
X006851Y007506D02*
X006951Y007506D01*
X006951Y007126D01*
X006851Y007126D01*
X006851Y007246D02*
X006951Y007246D01*
X006951Y007366D02*
X006851Y007366D01*
X006851Y007486D02*
X006951Y007486D01*
X007166Y007506D02*
X007166Y007126D01*
X007166Y007506D02*
X007266Y007506D01*
X007266Y007126D01*
X007166Y007126D01*
X007166Y007246D02*
X007266Y007246D01*
X007266Y007366D02*
X007166Y007366D01*
X007166Y007486D02*
X007266Y007486D01*
X007481Y007506D02*
X007481Y007126D01*
X007481Y007506D02*
X007581Y007506D01*
X007581Y007126D01*
X007481Y007126D01*
X007481Y007246D02*
X007581Y007246D01*
X007581Y007366D02*
X007481Y007366D01*
X007481Y007486D02*
X007581Y007486D01*
X007796Y007506D02*
X007796Y007126D01*
X007796Y007506D02*
X007896Y007506D01*
X007896Y007126D01*
X007796Y007126D01*
X007796Y007246D02*
X007896Y007246D01*
X007896Y007366D02*
X007796Y007366D01*
X007796Y007486D02*
X007896Y007486D01*
X008111Y007506D02*
X008111Y007126D01*
X008111Y007506D02*
X008211Y007506D01*
X008211Y007126D01*
X008111Y007126D01*
X008111Y007246D02*
X008211Y007246D01*
X008211Y007366D02*
X008111Y007366D01*
X008111Y007486D02*
X008211Y007486D01*
X008426Y007506D02*
X008426Y007126D01*
X008426Y007506D02*
X008526Y007506D01*
X008526Y007126D01*
X008426Y007126D01*
X008426Y007246D02*
X008526Y007246D01*
X008526Y007366D02*
X008426Y007366D01*
X008426Y007486D02*
X008526Y007486D01*
D18*
X005820Y008708D02*
X005710Y008598D01*
X005820Y008708D02*
X006206Y008322D01*
X006096Y008212D01*
X005710Y008598D01*
X005976Y008332D02*
X006196Y008332D01*
X006076Y008452D02*
X005856Y008452D01*
X005956Y008572D02*
X005736Y008572D01*
X005804Y008692D02*
X005836Y008692D01*
X005486Y008374D02*
X005376Y008264D01*
X005486Y008374D02*
X005872Y007988D01*
X005762Y007878D01*
X005376Y008264D01*
X005642Y007998D02*
X005862Y007998D01*
X005742Y008118D02*
X005522Y008118D01*
X005622Y008238D02*
X005402Y008238D01*
X005470Y008358D02*
X005502Y008358D01*
X005152Y008040D02*
X005042Y007930D01*
X005152Y008040D02*
X005538Y007654D01*
X005428Y007544D01*
X005042Y007930D01*
X005308Y007664D02*
X005528Y007664D01*
X005408Y007784D02*
X005188Y007784D01*
X005288Y007904D02*
X005068Y007904D01*
X005136Y008024D02*
X005168Y008024D01*
D19*
X003611Y007176D02*
X003611Y006826D01*
X002761Y006826D01*
X002761Y007176D01*
X003611Y007176D01*
X003611Y006975D02*
X002761Y006975D01*
X002761Y007124D02*
X003611Y007124D01*
X003611Y006114D02*
X003611Y005764D01*
X002761Y005764D01*
X002761Y006114D01*
X003611Y006114D01*
X003611Y005913D02*
X002761Y005913D01*
X002761Y006062D02*
X003611Y006062D01*
X003611Y005176D02*
X003611Y004826D01*
X002761Y004826D01*
X002761Y005176D01*
X003611Y005176D01*
X003611Y004975D02*
X002761Y004975D01*
X002761Y005124D02*
X003611Y005124D01*
X002049Y005176D02*
X002049Y004826D01*
X001199Y004826D01*
X001199Y005176D01*
X002049Y005176D01*
X002049Y004975D02*
X001199Y004975D01*
X001199Y005124D02*
X002049Y005124D01*
X002049Y005826D02*
X002049Y006176D01*
X002049Y005826D02*
X001199Y005826D01*
X001199Y006176D01*
X002049Y006176D01*
X002049Y005975D02*
X001199Y005975D01*
X001199Y006124D02*
X002049Y006124D01*
X002049Y006826D02*
X002049Y007176D01*
X002049Y006826D02*
X001199Y006826D01*
X001199Y007176D01*
X002049Y007176D01*
X002049Y006975D02*
X001199Y006975D01*
X001199Y007124D02*
X002049Y007124D01*
X002049Y007826D02*
X002049Y008176D01*
X002049Y007826D02*
X001199Y007826D01*
X001199Y008176D01*
X002049Y008176D01*
X002049Y007975D02*
X001199Y007975D01*
X001199Y008124D02*
X002049Y008124D01*
X002049Y004176D02*
X002049Y003826D01*
X001199Y003826D01*
X001199Y004176D01*
X002049Y004176D01*
X002049Y003975D02*
X001199Y003975D01*
X001199Y004124D02*
X002049Y004124D01*
X008799Y008701D02*
X008799Y009551D01*
X008799Y008701D02*
X008449Y008701D01*
X008449Y009551D01*
X008799Y009551D01*
X008799Y008850D02*
X008449Y008850D01*
X008449Y008999D02*
X008799Y008999D01*
X008799Y009148D02*
X008449Y009148D01*
X008449Y009297D02*
X008799Y009297D01*
X008799Y009446D02*
X008449Y009446D01*
X009799Y009551D02*
X009799Y008701D01*
X009449Y008701D01*
X009449Y009551D01*
X009799Y009551D01*
X009799Y008850D02*
X009449Y008850D01*
X009449Y008999D02*
X009799Y008999D01*
X009799Y009148D02*
X009449Y009148D01*
X009449Y009297D02*
X009799Y009297D01*
X009799Y009446D02*
X009449Y009446D01*
X010799Y009551D02*
X010799Y008701D01*
X010449Y008701D01*
X010449Y009551D01*
X010799Y009551D01*
X010799Y008850D02*
X010449Y008850D01*
X010449Y008999D02*
X010799Y008999D01*
X010799Y009148D02*
X010449Y009148D01*
X010449Y009297D02*
X010799Y009297D01*
X010799Y009446D02*
X010449Y009446D01*
X011799Y009551D02*
X011799Y008701D01*
X011449Y008701D01*
X011449Y009551D01*
X011799Y009551D01*
X011799Y008850D02*
X011449Y008850D01*
X011449Y008999D02*
X011799Y008999D01*
X011799Y009148D02*
X011449Y009148D01*
X011449Y009297D02*
X011799Y009297D01*
X011799Y009446D02*
X011449Y009446D01*
X012799Y009551D02*
X012799Y008701D01*
X012449Y008701D01*
X012449Y009551D01*
X012799Y009551D01*
X012799Y008850D02*
X012449Y008850D01*
X012449Y008999D02*
X012799Y008999D01*
X012799Y009148D02*
X012449Y009148D01*
X012449Y009297D02*
X012799Y009297D01*
X012799Y009446D02*
X012449Y009446D01*
X013799Y009551D02*
X013799Y008701D01*
X013449Y008701D01*
X013449Y009551D01*
X013799Y009551D01*
X013799Y008850D02*
X013449Y008850D01*
X013449Y008999D02*
X013799Y008999D01*
X013799Y009148D02*
X013449Y009148D01*
X013449Y009297D02*
X013799Y009297D01*
X013799Y009446D02*
X013449Y009446D01*
D20*
X013284Y009423D02*
X012964Y009423D01*
X012964Y009481D02*
X013284Y009481D01*
X013284Y009540D02*
X012964Y009540D01*
X012964Y009598D02*
X013284Y009598D01*
X013284Y009620D02*
X013284Y008633D01*
X013372Y008545D01*
X013324Y008496D01*
X012262Y008496D01*
X012246Y008480D01*
X012148Y008480D01*
X012173Y008506D01*
X012423Y008506D01*
X012453Y008536D01*
X012867Y008536D01*
X012964Y008633D01*
X012964Y009620D01*
X012867Y009716D01*
X012380Y009716D01*
X012284Y009620D01*
X012284Y008746D01*
X012074Y008746D01*
X012004Y008676D01*
X011964Y008636D01*
X011964Y009620D01*
X011867Y009716D01*
X011380Y009716D01*
X011284Y009620D01*
X011284Y008633D01*
X011380Y008536D01*
X011504Y008536D01*
X011504Y008383D01*
X011406Y008480D01*
X011216Y008480D01*
X011082Y008346D01*
X011082Y008184D01*
X010621Y008184D01*
X010621Y008206D01*
X010533Y008294D01*
X010214Y008294D01*
X010126Y008206D01*
X010126Y007887D01*
X010142Y007871D01*
X010084Y007871D01*
X010026Y007929D01*
X010026Y008226D01*
X009938Y008314D01*
X009560Y008314D01*
X009472Y008226D01*
X009472Y007848D01*
X009560Y007760D01*
X009856Y007760D01*
X009873Y007743D01*
X009560Y007743D01*
X009472Y007655D01*
X009472Y007277D01*
X009560Y007189D01*
X009938Y007189D01*
X009995Y007246D01*
X010004Y007237D01*
X010004Y007037D01*
X009748Y007037D01*
X009679Y006969D01*
X009546Y006969D01*
X009426Y006849D01*
X009396Y006849D01*
X009316Y006929D01*
X008812Y006929D01*
X008724Y006841D01*
X008724Y006617D01*
X008769Y006571D01*
X008724Y006526D01*
X008724Y006302D01*
X008769Y006256D01*
X008724Y006211D01*
X008724Y005987D01*
X008769Y005941D01*
X008724Y005896D01*
X008724Y005672D01*
X008769Y005626D01*
X008724Y005581D01*
X008724Y005357D01*
X008769Y005311D01*
X008724Y005266D01*
X008724Y005042D01*
X008769Y004996D01*
X008724Y004951D01*
X008724Y004727D01*
X008769Y004681D01*
X008724Y004636D01*
X008724Y004446D01*
X008673Y004496D01*
X008173Y004496D01*
X007744Y004926D01*
X007673Y004996D01*
X007044Y004996D01*
X007044Y007007D01*
X007101Y007065D01*
X007101Y007131D01*
X007331Y007131D01*
X007331Y007065D01*
X007419Y006976D01*
X007643Y006976D01*
X007731Y007065D01*
X007731Y007189D01*
X007744Y007202D01*
X007744Y007676D01*
X007673Y007746D01*
X007369Y008051D01*
X007369Y009114D01*
X007298Y009184D01*
X007173Y009309D01*
X007136Y009309D01*
X007142Y009323D01*
X007142Y009430D01*
X007101Y009528D01*
X007026Y009604D01*
X006927Y009645D01*
X006820Y009645D01*
X006722Y009604D01*
X006664Y009546D01*
X006186Y009546D01*
X006186Y009566D01*
X006098Y009653D01*
X005720Y009653D01*
X005632Y009566D01*
X005632Y009187D01*
X005720Y009099D01*
X006098Y009099D01*
X006186Y009187D01*
X006186Y009206D01*
X006664Y009206D01*
X006693Y009178D01*
X006629Y009114D01*
X006629Y007959D01*
X006343Y008245D01*
X006357Y008259D01*
X006357Y008384D01*
X005881Y008859D01*
X005756Y008859D01*
X005559Y008662D01*
X005559Y008537D01*
X006035Y008061D01*
X006159Y008061D01*
X006173Y008075D01*
X006466Y007782D01*
X006466Y007648D01*
X006429Y007611D01*
X006383Y007656D01*
X006160Y007656D01*
X006071Y007568D01*
X006071Y007436D01*
X005815Y007436D01*
X005675Y007577D01*
X005689Y007591D01*
X005689Y007715D01*
X005213Y008191D01*
X005088Y008191D01*
X004891Y007994D01*
X004891Y007869D01*
X005366Y007393D01*
X005491Y007393D01*
X005505Y007407D01*
X005716Y007196D01*
X006071Y007196D01*
X006071Y007065D01*
X006160Y006976D01*
X006383Y006976D01*
X006429Y007022D01*
X006475Y006976D01*
X006698Y006976D01*
X006704Y006982D01*
X006704Y004556D01*
X006803Y004456D01*
X006983Y004276D01*
X006789Y004276D01*
X006744Y004231D01*
X006698Y004276D01*
X006475Y004276D01*
X006429Y004231D01*
X006383Y004276D01*
X006160Y004276D01*
X006071Y004188D01*
X006071Y003996D01*
X005923Y003996D01*
X005646Y004274D01*
X005068Y004274D01*
X005031Y004311D01*
X005068Y004349D01*
X005141Y004349D01*
X005196Y004404D01*
X005352Y004404D01*
X005432Y004324D01*
X005936Y004324D01*
X006024Y004412D01*
X006024Y004636D01*
X005978Y004681D01*
X006024Y004727D01*
X006024Y004951D01*
X005978Y004996D01*
X006024Y005042D01*
X006024Y005266D01*
X005978Y005311D01*
X006024Y005357D01*
X006024Y005581D01*
X005978Y005626D01*
X006024Y005672D01*
X006024Y005896D01*
X005978Y005941D01*
X006024Y005987D01*
X006024Y006211D01*
X005978Y006256D01*
X006024Y006302D01*
X006024Y006526D01*
X005978Y006571D01*
X006024Y006617D01*
X006024Y006841D01*
X005936Y006929D01*
X005432Y006929D01*
X005399Y006896D01*
X005396Y006899D01*
X005326Y006969D01*
X005068Y006969D01*
X005000Y007037D01*
X004740Y007037D01*
X004652Y006949D01*
X004652Y006748D01*
X004709Y006691D01*
X004652Y006634D01*
X004652Y006433D01*
X004709Y006376D01*
X004652Y006319D01*
X004652Y006118D01*
X004709Y006061D01*
X004652Y006004D01*
X004652Y005803D01*
X004740Y005715D01*
X004889Y005715D01*
X004940Y005664D01*
X005352Y005664D01*
X005389Y005626D01*
X005344Y005581D01*
X005344Y005357D01*
X005389Y005311D01*
X005352Y005274D01*
X005013Y005274D01*
X005000Y005287D01*
X004740Y005287D01*
X004652Y005199D01*
X004652Y004998D01*
X004709Y004941D01*
X004652Y004884D01*
X004652Y004768D01*
X004596Y004824D01*
X004596Y004884D01*
X004539Y004941D01*
X004596Y004998D01*
X004596Y005199D01*
X004508Y005287D01*
X004248Y005287D01*
X004179Y005219D01*
X004171Y005219D01*
X003776Y004824D01*
X003776Y004922D01*
X003806Y004952D01*
X004119Y005264D01*
X004119Y006264D01*
X004160Y006264D01*
X004160Y006305D02*
X004160Y006118D01*
X004217Y006061D01*
X004160Y006004D01*
X004160Y005803D01*
X004248Y005715D01*
X004508Y005715D01*
X004596Y005803D01*
X004596Y006004D01*
X004539Y006061D01*
X004596Y006118D01*
X004596Y006319D01*
X004539Y006376D01*
X004596Y006433D01*
X004596Y006634D01*
X004539Y006691D01*
X004596Y006748D01*
X004596Y006949D01*
X004508Y007037D01*
X004248Y007037D01*
X004160Y006949D01*
X004160Y006748D01*
X004217Y006691D01*
X004179Y006654D01*
X004169Y006654D01*
X003949Y006434D01*
X003879Y006364D01*
X003879Y005364D01*
X003768Y005253D01*
X003680Y005341D01*
X002693Y005341D01*
X002596Y005245D01*
X002596Y004824D01*
X002494Y004926D01*
X002494Y006551D01*
X002244Y006801D01*
X002214Y006831D01*
X002214Y007245D01*
X002117Y007341D01*
X001130Y007341D01*
X001034Y007245D01*
X001034Y006758D01*
X001130Y006661D01*
X001794Y006661D01*
X001824Y006631D01*
X002074Y006631D01*
X002254Y006452D01*
X002254Y005541D01*
X002125Y005670D01*
X002214Y005758D01*
X002214Y006245D01*
X002117Y006341D01*
X001130Y006341D01*
X001034Y006245D01*
X001034Y005758D01*
X001130Y005661D01*
X001794Y005661D01*
X002114Y005341D01*
X001130Y005341D01*
X001034Y005245D01*
X001034Y004758D01*
X001130Y004661D01*
X001857Y004661D01*
X002449Y004069D01*
X003645Y004069D01*
X003645Y004031D01*
X003742Y003934D01*
X002423Y003934D01*
X002306Y004051D01*
X002236Y004121D01*
X002214Y004121D01*
X002214Y004245D01*
X002117Y004341D01*
X001130Y004341D01*
X001034Y004245D01*
X001034Y003758D01*
X001130Y003661D01*
X002117Y003661D01*
X002214Y003758D01*
X002214Y003804D01*
X002254Y003764D01*
X002324Y003694D01*
X004191Y003694D01*
X004191Y003643D01*
X004082Y003534D01*
X004082Y003344D01*
X004216Y003210D01*
X004406Y003210D01*
X004540Y003344D01*
X004540Y003353D01*
X004574Y003319D01*
X004574Y003319D01*
X005699Y002194D01*
X007798Y002194D01*
X008008Y002403D01*
X008008Y002304D01*
X008063Y002169D01*
X008166Y002066D01*
X008301Y002010D01*
X008447Y002010D01*
X008581Y002066D01*
X008684Y002169D01*
X011063Y002169D01*
X011166Y002066D01*
X011301Y002010D01*
X011447Y002010D01*
X011581Y002066D01*
X011684Y002169D01*
X013936Y002169D01*
X013943Y002151D02*
X014024Y002071D01*
X014129Y002027D01*
X014243Y002027D01*
X014349Y002071D01*
X014429Y002151D01*
X014468Y002243D01*
X014506Y002151D01*
X014586Y002071D01*
X014692Y002027D01*
X014806Y002027D01*
X014911Y002071D01*
X014992Y002151D01*
X015036Y002257D01*
X015036Y002371D01*
X014992Y002476D01*
X014911Y002557D01*
X014806Y002601D01*
X014771Y002601D01*
X014771Y002979D01*
X014821Y002979D01*
X014909Y003067D01*
X014909Y003069D01*
X014949Y003069D01*
X015137Y002881D01*
X015548Y002881D01*
X015619Y002952D01*
X015673Y003006D01*
X015986Y003006D01*
X016056Y003077D01*
X016181Y003202D01*
X016181Y003426D01*
X016111Y003496D01*
X015959Y003648D01*
X015681Y003648D01*
X015681Y003989D01*
X015619Y004051D01*
X015548Y004121D01*
X015199Y004121D01*
X015012Y003934D01*
X014909Y003934D01*
X014909Y003989D01*
X014877Y004020D01*
X014909Y004051D01*
X014909Y004117D01*
X014923Y004131D01*
X014994Y004202D01*
X014994Y005176D01*
X014494Y005676D01*
X014423Y005746D01*
X012791Y005746D01*
X012778Y005756D01*
X013423Y005756D01*
X013494Y005827D01*
X013534Y005867D01*
X013976Y005867D01*
X014063Y005954D01*
X014063Y006176D01*
X013976Y006263D01*
X013498Y006263D01*
X013411Y006176D01*
X013411Y006083D01*
X013324Y005996D01*
X012861Y005996D01*
X012806Y006051D01*
X012806Y006524D01*
X012824Y006506D01*
X013236Y006506D01*
X013298Y006569D01*
X013986Y006569D01*
X014056Y006639D01*
X014056Y006693D01*
X014110Y006693D01*
X014236Y006819D01*
X014306Y006889D01*
X014306Y007239D01*
X014316Y007229D01*
X014316Y006827D01*
X014434Y006709D01*
X014434Y006702D01*
X014522Y006615D01*
X014032Y006615D01*
X014056Y006673D02*
X014463Y006673D01*
X014411Y006732D02*
X014149Y006732D01*
X014207Y006790D02*
X014353Y006790D01*
X014316Y006849D02*
X014266Y006849D01*
X014306Y006907D02*
X014316Y006907D01*
X014306Y006966D02*
X014316Y006966D01*
X014306Y007024D02*
X014316Y007024D01*
X014306Y007083D02*
X014316Y007083D01*
X014306Y007141D02*
X014316Y007141D01*
X014306Y007200D02*
X014316Y007200D01*
X014436Y007200D02*
X014999Y007200D01*
X014999Y007258D02*
X014436Y007258D01*
X014436Y007317D02*
X014999Y007317D01*
X014999Y007375D02*
X014436Y007375D01*
X014436Y007434D02*
X014999Y007434D01*
X014999Y007492D02*
X014436Y007492D01*
X014436Y007551D02*
X014949Y007551D01*
X014999Y007501D02*
X014811Y007689D01*
X014436Y007689D01*
X014436Y006876D01*
X014561Y006751D01*
X014999Y006751D01*
X014999Y007501D01*
X015119Y007492D02*
X016242Y007492D01*
X016242Y007434D02*
X015119Y007434D01*
X015119Y007375D02*
X016242Y007375D01*
X016242Y007317D02*
X015119Y007317D01*
X015119Y007258D02*
X016242Y007258D01*
X016242Y007200D02*
X015119Y007200D01*
X015119Y007141D02*
X016242Y007141D01*
X016242Y007083D02*
X015119Y007083D01*
X015119Y007024D02*
X016242Y007024D01*
X016242Y006966D02*
X015119Y006966D01*
X015119Y006907D02*
X016242Y006907D01*
X016242Y006849D02*
X015119Y006849D01*
X015119Y006790D02*
X016242Y006790D01*
X016242Y006732D02*
X015119Y006732D01*
X015119Y006702D02*
X015119Y007551D01*
X015103Y007567D01*
X015103Y007596D01*
X014969Y007730D01*
X014939Y007730D01*
X014931Y007739D01*
X014861Y007809D01*
X014808Y007809D01*
X014779Y007837D01*
X014380Y007837D01*
X014306Y007763D01*
X014306Y008104D01*
X014516Y008314D01*
X014813Y008314D01*
X014901Y008402D01*
X014901Y008780D01*
X014813Y008868D01*
X014435Y008868D01*
X014347Y008780D01*
X014347Y008484D01*
X014066Y008203D01*
X014066Y006989D01*
X014056Y006979D01*
X014056Y006989D01*
X013986Y007059D01*
X013298Y007059D01*
X013236Y007121D01*
X013169Y007121D01*
X013169Y007667D01*
X013226Y007724D01*
X013267Y007823D01*
X013267Y007930D01*
X013226Y008028D01*
X013151Y008104D01*
X013052Y008145D01*
X012945Y008145D01*
X012847Y008104D01*
X012771Y008028D01*
X012730Y007930D01*
X012730Y007823D01*
X012771Y007724D01*
X012829Y007667D01*
X012829Y007121D01*
X012824Y007121D01*
X012754Y007051D01*
X012754Y007021D01*
X012751Y007019D01*
X012751Y006924D01*
X012677Y006850D01*
X012454Y007028D01*
X012423Y007059D01*
X012416Y007059D01*
X012410Y007064D01*
X012367Y007059D01*
X011637Y007059D01*
X011566Y006989D01*
X011418Y006840D01*
X011366Y006840D01*
X011309Y006783D01*
X011252Y006840D01*
X011204Y006840D01*
X010806Y007239D01*
X010806Y007245D01*
X010904Y007147D01*
X011082Y007147D01*
X011082Y007031D01*
X011216Y006897D01*
X011406Y006897D01*
X011540Y007031D01*
X011540Y007221D01*
X011431Y007330D01*
X011431Y007514D01*
X011923Y008006D01*
X011923Y008006D01*
X011994Y008077D01*
X011994Y008120D01*
X012091Y008022D01*
X012281Y008022D01*
X012415Y008156D01*
X012415Y008256D01*
X013423Y008256D01*
X013673Y008506D01*
X013703Y008536D01*
X013867Y008536D01*
X013964Y008633D01*
X013964Y009620D01*
X013867Y009716D01*
X013380Y009716D01*
X013284Y009620D01*
X013321Y009657D02*
X012927Y009657D01*
X012868Y009715D02*
X013379Y009715D01*
X013284Y009364D02*
X012964Y009364D01*
X012964Y009306D02*
X013284Y009306D01*
X013284Y009247D02*
X012964Y009247D01*
X012964Y009189D02*
X013284Y009189D01*
X013284Y009130D02*
X012964Y009130D01*
X012964Y009072D02*
X013284Y009072D01*
X013284Y009013D02*
X012964Y009013D01*
X012964Y008955D02*
X013284Y008955D01*
X013284Y008896D02*
X012964Y008896D01*
X012964Y008838D02*
X013284Y008838D01*
X013284Y008779D02*
X012964Y008779D01*
X012964Y008721D02*
X013284Y008721D01*
X013284Y008662D02*
X012964Y008662D01*
X012935Y008604D02*
X013313Y008604D01*
X013371Y008545D02*
X012876Y008545D01*
X012924Y008136D02*
X012395Y008136D01*
X012415Y008194D02*
X014066Y008194D01*
X014066Y008136D02*
X013074Y008136D01*
X013177Y008077D02*
X014066Y008077D01*
X014066Y008019D02*
X013230Y008019D01*
X013254Y007960D02*
X014066Y007960D01*
X014066Y007902D02*
X013267Y007902D01*
X013267Y007843D02*
X014066Y007843D01*
X014066Y007785D02*
X013251Y007785D01*
X013227Y007726D02*
X014066Y007726D01*
X014066Y007668D02*
X013170Y007668D01*
X013169Y007609D02*
X014066Y007609D01*
X014066Y007551D02*
X013169Y007551D01*
X013169Y007492D02*
X014066Y007492D01*
X014066Y007434D02*
X013169Y007434D01*
X013169Y007375D02*
X014066Y007375D01*
X014066Y007317D02*
X013169Y007317D01*
X013169Y007258D02*
X014066Y007258D01*
X014066Y007200D02*
X013169Y007200D01*
X013169Y007141D02*
X014066Y007141D01*
X014066Y007083D02*
X013274Y007083D01*
X013186Y007001D02*
X013249Y006939D01*
X013936Y006939D01*
X013936Y006689D01*
X013249Y006689D01*
X013186Y006626D01*
X012874Y006626D01*
X012874Y007001D01*
X013186Y007001D01*
X013222Y006966D02*
X012874Y006966D01*
X012874Y006907D02*
X013936Y006907D01*
X013936Y006849D02*
X012874Y006849D01*
X012857Y006859D02*
X012999Y006859D01*
X012857Y006859D02*
X012686Y006689D01*
X012374Y006939D01*
X011686Y006939D01*
X011466Y006719D01*
X011466Y006622D01*
X011151Y006622D01*
X011151Y006724D01*
X010686Y007189D01*
X010686Y007689D01*
X010624Y007751D01*
X010034Y007751D01*
X009749Y008037D01*
X009749Y008189D01*
X009940Y008311D02*
X011082Y008311D01*
X011082Y008253D02*
X010575Y008253D01*
X010621Y008194D02*
X011082Y008194D01*
X011186Y008064D02*
X010419Y008064D01*
X010374Y008047D01*
X010126Y008019D02*
X010026Y008019D01*
X010026Y008077D02*
X010126Y008077D01*
X010126Y008136D02*
X010026Y008136D01*
X010026Y008194D02*
X010126Y008194D01*
X010173Y008253D02*
X009999Y008253D01*
X010026Y007960D02*
X010126Y007960D01*
X010126Y007902D02*
X010053Y007902D01*
X009820Y007591D02*
X009749Y007466D01*
X009820Y007591D02*
X010124Y007287D01*
X010374Y007537D01*
X010374Y007456D01*
X010124Y007287D02*
X010124Y006001D01*
X010221Y005904D01*
X010370Y005904D01*
X010370Y006219D02*
X010656Y006219D01*
X010686Y006189D01*
X010656Y006534D02*
X010370Y006534D01*
X010656Y006534D02*
X010686Y006564D01*
X010936Y006501D02*
X010936Y006689D01*
X010776Y006849D01*
X010370Y006849D01*
X010004Y007083D02*
X008676Y007083D01*
X008676Y007065D02*
X008676Y007568D01*
X008588Y007656D01*
X008364Y007656D01*
X008319Y007611D01*
X008273Y007656D01*
X008049Y007656D01*
X007961Y007568D01*
X007961Y007065D01*
X008049Y006976D01*
X008273Y006976D01*
X008319Y007022D01*
X008364Y006976D01*
X008588Y006976D01*
X008676Y007065D01*
X008636Y007024D02*
X009735Y007024D01*
X009544Y006966D02*
X007044Y006966D01*
X007044Y006907D02*
X008791Y006907D01*
X008732Y006849D02*
X007044Y006849D01*
X007044Y006790D02*
X008724Y006790D01*
X008724Y006732D02*
X007044Y006732D01*
X007044Y006673D02*
X008724Y006673D01*
X008726Y006615D02*
X007044Y006615D01*
X007044Y006556D02*
X008755Y006556D01*
X008724Y006498D02*
X007044Y006498D01*
X007044Y006439D02*
X008724Y006439D01*
X008724Y006381D02*
X007044Y006381D01*
X007044Y006322D02*
X008724Y006322D01*
X008762Y006264D02*
X007044Y006264D01*
X007044Y006205D02*
X008724Y006205D01*
X008724Y006147D02*
X007044Y006147D01*
X007044Y006088D02*
X008724Y006088D01*
X008724Y006030D02*
X007044Y006030D01*
X007044Y005971D02*
X008739Y005971D01*
X008741Y005913D02*
X007044Y005913D01*
X007044Y005854D02*
X008724Y005854D01*
X008724Y005796D02*
X007044Y005796D01*
X007044Y005737D02*
X008724Y005737D01*
X008724Y005679D02*
X007044Y005679D01*
X007044Y005620D02*
X008763Y005620D01*
X008724Y005562D02*
X007044Y005562D01*
X007044Y005503D02*
X008724Y005503D01*
X008724Y005445D02*
X007044Y005445D01*
X007044Y005386D02*
X008724Y005386D01*
X008753Y005328D02*
X007044Y005328D01*
X007044Y005269D02*
X008727Y005269D01*
X008724Y005211D02*
X007044Y005211D01*
X007044Y005152D02*
X008724Y005152D01*
X008724Y005094D02*
X007044Y005094D01*
X007044Y005035D02*
X008730Y005035D01*
X008750Y004977D02*
X007693Y004977D01*
X007751Y004918D02*
X008724Y004918D01*
X008724Y004860D02*
X007810Y004860D01*
X007868Y004801D02*
X008724Y004801D01*
X008724Y004743D02*
X007927Y004743D01*
X007985Y004684D02*
X008766Y004684D01*
X008724Y004626D02*
X008044Y004626D01*
X008102Y004567D02*
X008724Y004567D01*
X008724Y004509D02*
X008161Y004509D01*
X008124Y004376D02*
X007624Y004876D01*
X006874Y004876D01*
X006704Y004860D02*
X006024Y004860D01*
X006024Y004918D02*
X006704Y004918D01*
X006704Y004977D02*
X005998Y004977D01*
X006017Y005035D02*
X006704Y005035D01*
X006704Y005094D02*
X006024Y005094D01*
X006024Y005152D02*
X006704Y005152D01*
X006704Y005211D02*
X006024Y005211D01*
X006020Y005269D02*
X006704Y005269D01*
X006704Y005328D02*
X005995Y005328D01*
X006024Y005386D02*
X006704Y005386D01*
X006704Y005445D02*
X006024Y005445D01*
X006024Y005503D02*
X006704Y005503D01*
X006704Y005562D02*
X006024Y005562D01*
X005984Y005620D02*
X006704Y005620D01*
X006704Y005679D02*
X006024Y005679D01*
X006024Y005737D02*
X006704Y005737D01*
X006704Y005796D02*
X006024Y005796D01*
X006024Y005854D02*
X006704Y005854D01*
X006704Y005913D02*
X006007Y005913D01*
X006008Y005971D02*
X006704Y005971D01*
X006704Y006030D02*
X006024Y006030D01*
X006024Y006088D02*
X006704Y006088D01*
X006704Y006147D02*
X006024Y006147D01*
X006024Y006205D02*
X006704Y006205D01*
X006704Y006264D02*
X005986Y006264D01*
X006024Y006322D02*
X006704Y006322D01*
X006704Y006381D02*
X006024Y006381D01*
X006024Y006439D02*
X006704Y006439D01*
X006704Y006498D02*
X006024Y006498D01*
X005993Y006556D02*
X006704Y006556D01*
X006704Y006615D02*
X006022Y006615D01*
X006024Y006673D02*
X006704Y006673D01*
X006704Y006732D02*
X006024Y006732D01*
X006024Y006790D02*
X006704Y006790D01*
X006704Y006849D02*
X006015Y006849D01*
X005957Y006907D02*
X006704Y006907D01*
X006704Y006966D02*
X005329Y006966D01*
X005387Y006907D02*
X005411Y006907D01*
X005276Y006849D02*
X004870Y006849D01*
X004652Y006849D02*
X004596Y006849D01*
X004596Y006907D02*
X004652Y006907D01*
X004668Y006966D02*
X004579Y006966D01*
X004521Y007024D02*
X004727Y007024D01*
X004652Y006790D02*
X004596Y006790D01*
X004579Y006732D02*
X004668Y006732D01*
X004691Y006673D02*
X004557Y006673D01*
X004596Y006615D02*
X004652Y006615D01*
X004652Y006556D02*
X004596Y006556D01*
X004596Y006498D02*
X004652Y006498D01*
X004652Y006439D02*
X004596Y006439D01*
X004543Y006381D02*
X004704Y006381D01*
X004655Y006322D02*
X004593Y006322D01*
X004596Y006264D02*
X004652Y006264D01*
X004652Y006205D02*
X004596Y006205D01*
X004596Y006147D02*
X004652Y006147D01*
X004682Y006088D02*
X004566Y006088D01*
X004570Y006030D02*
X004677Y006030D01*
X004652Y005971D02*
X004596Y005971D01*
X004596Y005913D02*
X004652Y005913D01*
X004652Y005854D02*
X004596Y005854D01*
X004588Y005796D02*
X004659Y005796D01*
X004718Y005737D02*
X004530Y005737D01*
X004226Y005737D02*
X004119Y005737D01*
X004119Y005679D02*
X004925Y005679D01*
X004990Y005784D02*
X004870Y005904D01*
X004990Y005784D02*
X005684Y005784D01*
X005684Y006099D02*
X005151Y006099D01*
X005031Y006219D01*
X004870Y006219D01*
X005154Y006534D02*
X005274Y006414D01*
X005684Y006414D01*
X005684Y006729D02*
X005396Y006729D01*
X005276Y006849D01*
X005013Y007024D02*
X006112Y007024D01*
X006071Y007083D02*
X003776Y007083D01*
X003776Y007141D02*
X006071Y007141D01*
X006271Y007316D02*
X005766Y007316D01*
X005290Y007792D01*
X005150Y007609D02*
X004026Y007609D01*
X003968Y007551D02*
X005209Y007551D01*
X005267Y007492D02*
X003909Y007492D01*
X003851Y007434D02*
X005326Y007434D01*
X005537Y007375D02*
X003792Y007375D01*
X003744Y007327D02*
X004173Y007756D01*
X004423Y007756D01*
X004541Y007874D01*
X004681Y007874D01*
X004768Y007961D01*
X004768Y008360D01*
X004697Y008431D01*
X005365Y009099D01*
X005528Y009099D01*
X005615Y009187D01*
X005615Y009566D01*
X005528Y009653D01*
X005149Y009653D01*
X005061Y009566D01*
X005061Y009276D01*
X004233Y008448D01*
X003691Y008448D01*
X003678Y008434D01*
X003445Y008434D01*
X003431Y008448D01*
X002441Y008448D01*
X002428Y008434D01*
X001074Y008434D01*
X001004Y008364D01*
X001004Y007702D01*
X001074Y007631D01*
X001949Y007631D01*
X002566Y007014D01*
X002566Y006827D01*
X002596Y006797D01*
X002596Y006758D01*
X002693Y006661D01*
X003680Y006661D01*
X003776Y006758D01*
X003776Y007245D01*
X003744Y007277D01*
X003744Y007327D01*
X003744Y007317D02*
X005595Y007317D01*
X005654Y007258D02*
X003763Y007258D01*
X003776Y007200D02*
X005712Y007200D01*
X005759Y007492D02*
X006071Y007492D01*
X006071Y007551D02*
X005701Y007551D01*
X005689Y007609D02*
X006113Y007609D01*
X006466Y007668D02*
X005689Y007668D01*
X005678Y007726D02*
X006466Y007726D01*
X006464Y007785D02*
X005619Y007785D01*
X005561Y007843D02*
X006405Y007843D01*
X006347Y007902D02*
X005502Y007902D01*
X005444Y007960D02*
X006288Y007960D01*
X006230Y008019D02*
X005385Y008019D01*
X005327Y008077D02*
X006019Y008077D01*
X005960Y008136D02*
X005268Y008136D01*
X005033Y008136D02*
X004768Y008136D01*
X004768Y008194D02*
X005902Y008194D01*
X005843Y008253D02*
X004768Y008253D01*
X004768Y008311D02*
X005785Y008311D01*
X005726Y008370D02*
X004759Y008370D01*
X004700Y008428D02*
X005668Y008428D01*
X005609Y008487D02*
X004753Y008487D01*
X004811Y008545D02*
X005559Y008545D01*
X005559Y008604D02*
X004870Y008604D01*
X004928Y008662D02*
X005559Y008662D01*
X005618Y008721D02*
X004987Y008721D01*
X005045Y008779D02*
X005676Y008779D01*
X005735Y008838D02*
X005104Y008838D01*
X005162Y008896D02*
X006629Y008896D01*
X006629Y008838D02*
X005903Y008838D01*
X005961Y008779D02*
X006629Y008779D01*
X006629Y008721D02*
X006020Y008721D01*
X006078Y008662D02*
X006629Y008662D01*
X006629Y008604D02*
X006137Y008604D01*
X006195Y008545D02*
X006629Y008545D01*
X006629Y008487D02*
X006254Y008487D01*
X006312Y008428D02*
X006629Y008428D01*
X006629Y008370D02*
X006357Y008370D01*
X006357Y008311D02*
X006629Y008311D01*
X006629Y008253D02*
X006351Y008253D01*
X006394Y008194D02*
X006629Y008194D01*
X006629Y008136D02*
X006452Y008136D01*
X006511Y008077D02*
X006629Y008077D01*
X006629Y008019D02*
X006569Y008019D01*
X006628Y007960D02*
X006629Y007960D01*
X006749Y007960D02*
X007290Y007960D01*
X007249Y008001D02*
X007624Y007626D01*
X007624Y007251D01*
X007416Y007251D01*
X007416Y007568D01*
X007328Y007656D01*
X007104Y007656D01*
X007016Y007568D01*
X007016Y007251D01*
X006786Y007251D01*
X006786Y007568D01*
X006749Y007606D01*
X006749Y009064D01*
X006874Y009189D01*
X007124Y009189D01*
X007249Y009064D01*
X007249Y008001D01*
X007249Y008019D02*
X006749Y008019D01*
X006749Y008077D02*
X007249Y008077D01*
X007249Y008136D02*
X006749Y008136D01*
X006749Y008194D02*
X007249Y008194D01*
X007249Y008253D02*
X006749Y008253D01*
X006749Y008311D02*
X007249Y008311D01*
X007249Y008370D02*
X006749Y008370D01*
X006749Y008428D02*
X007249Y008428D01*
X007249Y008487D02*
X006749Y008487D01*
X006749Y008545D02*
X007249Y008545D01*
X007249Y008604D02*
X006749Y008604D01*
X006749Y008662D02*
X007249Y008662D01*
X007249Y008721D02*
X006749Y008721D01*
X006749Y008779D02*
X007249Y008779D01*
X007249Y008838D02*
X006749Y008838D01*
X006749Y008896D02*
X007249Y008896D01*
X007249Y008955D02*
X006749Y008955D01*
X006749Y009013D02*
X007249Y009013D01*
X007241Y009072D02*
X006757Y009072D01*
X006815Y009130D02*
X007182Y009130D01*
X007293Y009189D02*
X009284Y009189D01*
X009284Y009247D02*
X007235Y009247D01*
X007176Y009306D02*
X009284Y009306D01*
X009284Y009364D02*
X007142Y009364D01*
X007142Y009423D02*
X009284Y009423D01*
X009284Y009481D02*
X007121Y009481D01*
X007090Y009540D02*
X009284Y009540D01*
X009284Y009598D02*
X007031Y009598D01*
X006716Y009598D02*
X006153Y009598D01*
X006186Y009189D02*
X006682Y009189D01*
X006646Y009130D02*
X006129Y009130D01*
X005689Y009130D02*
X005559Y009130D01*
X005615Y009189D02*
X005632Y009189D01*
X005632Y009247D02*
X005615Y009247D01*
X005615Y009306D02*
X005632Y009306D01*
X005632Y009364D02*
X005615Y009364D01*
X005615Y009423D02*
X005632Y009423D01*
X005632Y009481D02*
X005615Y009481D01*
X005615Y009540D02*
X005632Y009540D01*
X005665Y009598D02*
X005583Y009598D01*
X005094Y009598D02*
X000754Y009598D01*
X000754Y009540D02*
X005061Y009540D01*
X005061Y009481D02*
X000754Y009481D01*
X000754Y009423D02*
X005061Y009423D01*
X005061Y009364D02*
X000754Y009364D01*
X000754Y009306D02*
X005061Y009306D01*
X005032Y009247D02*
X000754Y009247D01*
X000754Y009189D02*
X004974Y009189D01*
X004915Y009130D02*
X000754Y009130D01*
X000754Y009072D02*
X004857Y009072D01*
X004798Y009013D02*
X000754Y009013D01*
X000754Y008955D02*
X004740Y008955D01*
X004681Y008896D02*
X000754Y008896D01*
X000754Y008838D02*
X004623Y008838D01*
X004564Y008779D02*
X000754Y008779D01*
X000754Y008721D02*
X004506Y008721D01*
X004447Y008662D02*
X000754Y008662D01*
X000754Y008604D02*
X004389Y008604D01*
X004330Y008545D02*
X000754Y008545D01*
X000754Y008487D02*
X004272Y008487D01*
X004624Y008314D02*
X004624Y008126D01*
X004374Y007876D01*
X004124Y007876D01*
X003624Y007376D01*
X003624Y006876D01*
X002686Y006876D01*
X002686Y007064D01*
X001999Y007751D01*
X001124Y007751D01*
X001124Y008314D01*
X004624Y008314D01*
X004624Y008311D02*
X001124Y008311D01*
X001124Y008253D02*
X004624Y008253D01*
X004624Y008194D02*
X001124Y008194D01*
X001124Y008136D02*
X004624Y008136D01*
X004575Y008077D02*
X001124Y008077D01*
X001124Y008019D02*
X004516Y008019D01*
X004458Y007960D02*
X001124Y007960D01*
X001124Y007902D02*
X004399Y007902D01*
X004510Y007843D02*
X004916Y007843D01*
X004891Y007902D02*
X004709Y007902D01*
X004767Y007960D02*
X004891Y007960D01*
X004916Y008019D02*
X004768Y008019D01*
X004768Y008077D02*
X004974Y008077D01*
X004975Y007785D02*
X004452Y007785D01*
X004143Y007726D02*
X005033Y007726D01*
X005092Y007668D02*
X004085Y007668D01*
X003974Y007726D02*
X002024Y007726D01*
X002082Y007668D02*
X003915Y007668D01*
X003857Y007609D02*
X002141Y007609D01*
X002199Y007551D02*
X003798Y007551D01*
X003740Y007492D02*
X002258Y007492D01*
X002316Y007434D02*
X003681Y007434D01*
X003624Y007375D02*
X002375Y007375D01*
X002433Y007317D02*
X003624Y007317D01*
X003624Y007258D02*
X002492Y007258D01*
X002550Y007200D02*
X003624Y007200D01*
X003624Y007141D02*
X002609Y007141D01*
X002667Y007083D02*
X003624Y007083D01*
X003624Y007024D02*
X002686Y007024D01*
X002686Y006966D02*
X003624Y006966D01*
X003624Y006907D02*
X002686Y006907D01*
X002566Y006907D02*
X002214Y006907D01*
X002214Y006849D02*
X002566Y006849D01*
X002596Y006790D02*
X002254Y006790D01*
X002313Y006732D02*
X002622Y006732D01*
X002681Y006673D02*
X002371Y006673D01*
X002430Y006615D02*
X004130Y006615D01*
X004072Y006556D02*
X002488Y006556D01*
X002494Y006498D02*
X004013Y006498D01*
X003955Y006439D02*
X002494Y006439D01*
X002494Y006381D02*
X003896Y006381D01*
X003879Y006322D02*
X002494Y006322D01*
X002494Y006264D02*
X003879Y006264D01*
X003879Y006205D02*
X002494Y006205D01*
X002494Y006147D02*
X003879Y006147D01*
X003879Y006088D02*
X002494Y006088D01*
X002494Y006030D02*
X003879Y006030D01*
X003879Y005971D02*
X002494Y005971D01*
X002494Y005913D02*
X003879Y005913D01*
X003879Y005854D02*
X002494Y005854D01*
X002494Y005796D02*
X003879Y005796D01*
X003879Y005737D02*
X002494Y005737D01*
X002494Y005679D02*
X003879Y005679D01*
X003879Y005620D02*
X002494Y005620D01*
X002494Y005562D02*
X003879Y005562D01*
X003879Y005503D02*
X002494Y005503D01*
X002494Y005445D02*
X003879Y005445D01*
X003879Y005386D02*
X002494Y005386D01*
X002494Y005328D02*
X002679Y005328D01*
X002621Y005269D02*
X002494Y005269D01*
X002494Y005211D02*
X002596Y005211D01*
X002596Y005152D02*
X002494Y005152D01*
X002494Y005094D02*
X002596Y005094D01*
X002596Y005035D02*
X002494Y005035D01*
X002494Y004977D02*
X002596Y004977D01*
X002596Y004918D02*
X002501Y004918D01*
X002560Y004860D02*
X002596Y004860D01*
X002374Y004876D02*
X002374Y006501D01*
X002124Y006751D01*
X001874Y006751D01*
X001624Y007001D01*
X001034Y007024D02*
X000754Y007024D01*
X000754Y006966D02*
X001034Y006966D01*
X001034Y006907D02*
X000754Y006907D01*
X000754Y006849D02*
X001034Y006849D01*
X001034Y006790D02*
X000754Y006790D01*
X000754Y006732D02*
X001060Y006732D01*
X001118Y006673D02*
X000754Y006673D01*
X000754Y006615D02*
X002091Y006615D01*
X002149Y006556D02*
X000754Y006556D01*
X000754Y006498D02*
X002208Y006498D01*
X002254Y006439D02*
X000754Y006439D01*
X000754Y006381D02*
X002254Y006381D01*
X002254Y006322D02*
X002136Y006322D01*
X002195Y006264D02*
X002254Y006264D01*
X002254Y006205D02*
X002214Y006205D01*
X002214Y006147D02*
X002254Y006147D01*
X002254Y006088D02*
X002214Y006088D01*
X002214Y006030D02*
X002254Y006030D01*
X002254Y005971D02*
X002214Y005971D01*
X002214Y005913D02*
X002254Y005913D01*
X002254Y005854D02*
X002214Y005854D01*
X002214Y005796D02*
X002254Y005796D01*
X002254Y005737D02*
X002193Y005737D01*
X002135Y005679D02*
X002254Y005679D01*
X002254Y005620D02*
X002174Y005620D01*
X002233Y005562D02*
X002254Y005562D01*
X002249Y005376D02*
X001624Y006001D01*
X001835Y005620D02*
X000754Y005620D01*
X000754Y005562D02*
X001894Y005562D01*
X001952Y005503D02*
X000754Y005503D01*
X000754Y005445D02*
X002011Y005445D01*
X002069Y005386D02*
X000754Y005386D01*
X000754Y005328D02*
X001117Y005328D01*
X001058Y005269D02*
X000754Y005269D01*
X000754Y005211D02*
X001034Y005211D01*
X001034Y005152D02*
X000754Y005152D01*
X000754Y005094D02*
X001034Y005094D01*
X001034Y005035D02*
X000754Y005035D01*
X000754Y004977D02*
X001034Y004977D01*
X001034Y004918D02*
X000754Y004918D01*
X000754Y004860D02*
X001034Y004860D01*
X001034Y004801D02*
X000754Y004801D01*
X000754Y004743D02*
X001049Y004743D01*
X001107Y004684D02*
X000754Y004684D01*
X000754Y004626D02*
X001892Y004626D01*
X001951Y004567D02*
X000754Y004567D01*
X000754Y004509D02*
X002009Y004509D01*
X002068Y004450D02*
X000754Y004450D01*
X000754Y004392D02*
X002126Y004392D01*
X002125Y004333D02*
X002185Y004333D01*
X002184Y004275D02*
X002243Y004275D01*
X002214Y004216D02*
X002302Y004216D01*
X002360Y004158D02*
X002214Y004158D01*
X002258Y004099D02*
X002419Y004099D01*
X002316Y004041D02*
X003645Y004041D01*
X003694Y003982D02*
X002375Y003982D01*
X002374Y003814D02*
X004311Y003814D01*
X004311Y004087D01*
X004378Y004154D01*
X004311Y003814D02*
X004311Y003439D01*
X004146Y003280D02*
X003682Y003280D01*
X003706Y003222D02*
X004204Y003222D01*
X004087Y003339D02*
X003657Y003339D01*
X003651Y003354D02*
X003476Y003529D01*
X003248Y003623D01*
X003000Y003623D01*
X002771Y003529D01*
X002596Y003354D01*
X002502Y003125D01*
X002502Y002878D01*
X002596Y002649D01*
X002771Y002474D01*
X003000Y002379D01*
X003248Y002379D01*
X003476Y002474D01*
X003651Y002649D01*
X003746Y002878D01*
X003746Y003125D01*
X003651Y003354D01*
X003608Y003397D02*
X004082Y003397D01*
X004082Y003456D02*
X003549Y003456D01*
X003491Y003514D02*
X004082Y003514D01*
X004121Y003573D02*
X003370Y003573D01*
X002878Y003573D02*
X000754Y003573D01*
X000754Y003631D02*
X004180Y003631D01*
X004191Y003690D02*
X002146Y003690D01*
X002204Y003748D02*
X002270Y003748D01*
X002374Y003814D02*
X002186Y004001D01*
X001624Y004001D01*
X001034Y003982D02*
X000754Y003982D01*
X000754Y003924D02*
X001034Y003924D01*
X001034Y003865D02*
X000754Y003865D01*
X000754Y003807D02*
X001034Y003807D01*
X001043Y003748D02*
X000754Y003748D01*
X000754Y003690D02*
X001102Y003690D01*
X000754Y003514D02*
X002757Y003514D01*
X002698Y003456D02*
X000754Y003456D01*
X000754Y003397D02*
X002640Y003397D01*
X002590Y003339D02*
X000754Y003339D01*
X000754Y003280D02*
X002566Y003280D01*
X002542Y003222D02*
X000754Y003222D01*
X000754Y003163D02*
X002517Y003163D01*
X002502Y003105D02*
X000754Y003105D01*
X000754Y003046D02*
X002502Y003046D01*
X002502Y002988D02*
X000754Y002988D01*
X000754Y002929D02*
X002502Y002929D01*
X002504Y002871D02*
X000754Y002871D01*
X000754Y002812D02*
X002529Y002812D01*
X002553Y002754D02*
X000754Y002754D01*
X000754Y002695D02*
X002577Y002695D01*
X002608Y002637D02*
X000754Y002637D01*
X000754Y002578D02*
X002667Y002578D01*
X002725Y002520D02*
X000754Y002520D01*
X000754Y002461D02*
X002802Y002461D01*
X002943Y002403D02*
X000754Y002403D01*
X000754Y002344D02*
X005549Y002344D01*
X005607Y002286D02*
X000754Y002286D01*
X000754Y002227D02*
X005666Y002227D01*
X005749Y002314D02*
X004624Y003439D01*
X004624Y004626D01*
X004466Y004784D01*
X004378Y004784D01*
X004156Y004784D01*
X003749Y004376D01*
X002624Y004376D01*
X002249Y004751D01*
X002249Y005376D01*
X001686Y005001D02*
X002499Y004189D01*
X003874Y004189D01*
X004154Y004469D01*
X004378Y004469D01*
X004618Y004801D02*
X004652Y004801D01*
X004652Y004860D02*
X004596Y004860D01*
X004562Y004918D02*
X004686Y004918D01*
X004673Y004977D02*
X004574Y004977D01*
X004596Y005035D02*
X004652Y005035D01*
X004652Y005094D02*
X004596Y005094D01*
X004596Y005152D02*
X004652Y005152D01*
X004663Y005211D02*
X004584Y005211D01*
X004526Y005269D02*
X004722Y005269D01*
X004870Y005099D02*
X004925Y005154D01*
X005684Y005154D01*
X005684Y004839D02*
X004925Y004839D01*
X004870Y004784D01*
X004870Y004469D02*
X005091Y004469D01*
X005146Y004524D01*
X005684Y004524D01*
X005703Y004216D02*
X006100Y004216D01*
X006071Y004158D02*
X005762Y004158D01*
X005820Y004099D02*
X006071Y004099D01*
X006071Y004041D02*
X005879Y004041D01*
X005657Y003924D02*
X005540Y003924D01*
X005540Y003971D02*
X005478Y004034D01*
X005546Y004034D01*
X005754Y003827D01*
X005824Y003756D01*
X006071Y003756D01*
X006071Y003685D01*
X006160Y003596D01*
X006379Y003596D01*
X006379Y003014D01*
X006574Y002819D01*
X006923Y002819D01*
X006983Y002879D01*
X006988Y002879D01*
X007076Y002967D01*
X007076Y002971D01*
X007119Y003014D01*
X007119Y003327D01*
X007298Y003506D01*
X007369Y003577D01*
X007369Y003637D01*
X007416Y003685D01*
X007416Y004188D01*
X007386Y004218D01*
X007386Y004354D01*
X007044Y004697D01*
X007044Y004756D01*
X007574Y004756D01*
X008054Y004276D01*
X008049Y004276D01*
X008004Y004231D01*
X007958Y004276D01*
X007734Y004276D01*
X007646Y004188D01*
X007646Y003685D01*
X007734Y003596D01*
X007958Y003596D01*
X008004Y003642D01*
X008049Y003596D01*
X008273Y003596D01*
X008319Y003642D01*
X008364Y003596D01*
X008588Y003596D01*
X008676Y003685D01*
X008676Y004154D01*
X008762Y004069D01*
X008867Y004069D01*
X008770Y003971D01*
X008770Y003781D01*
X008877Y003674D01*
X008637Y003434D01*
X008199Y003434D01*
X007574Y002809D01*
X006048Y002809D01*
X005431Y003426D01*
X005431Y003672D01*
X005540Y003781D01*
X005540Y003971D01*
X005529Y003982D02*
X005598Y003982D01*
X005540Y003865D02*
X005715Y003865D01*
X005774Y003807D02*
X005540Y003807D01*
X005507Y003748D02*
X006071Y003748D01*
X006071Y003690D02*
X005449Y003690D01*
X005431Y003631D02*
X006125Y003631D01*
X006379Y003573D02*
X005431Y003573D01*
X005431Y003514D02*
X006379Y003514D01*
X006379Y003456D02*
X005431Y003456D01*
X005460Y003397D02*
X006379Y003397D01*
X006379Y003339D02*
X005518Y003339D01*
X005577Y003280D02*
X006379Y003280D01*
X006379Y003222D02*
X005635Y003222D01*
X005694Y003163D02*
X006379Y003163D01*
X006379Y003105D02*
X005752Y003105D01*
X005811Y003046D02*
X006379Y003046D01*
X006405Y002988D02*
X005869Y002988D01*
X005928Y002929D02*
X006464Y002929D01*
X006522Y002871D02*
X005986Y002871D01*
X006045Y002812D02*
X007578Y002812D01*
X007636Y002871D02*
X006975Y002871D01*
X007039Y002929D02*
X007695Y002929D01*
X007753Y002988D02*
X007092Y002988D01*
X007119Y003046D02*
X007812Y003046D01*
X007870Y003105D02*
X007119Y003105D01*
X007119Y003163D02*
X007929Y003163D01*
X007987Y003222D02*
X007119Y003222D01*
X007119Y003280D02*
X008046Y003280D01*
X008104Y003339D02*
X007131Y003339D01*
X007189Y003397D02*
X008163Y003397D01*
X008249Y003314D02*
X007624Y002689D01*
X005999Y002689D01*
X005311Y003376D01*
X005311Y003876D01*
X005596Y004154D02*
X005874Y003876D01*
X006211Y003876D01*
X006271Y003936D01*
X006499Y003924D02*
X006701Y003924D01*
X006701Y003982D02*
X006499Y003982D01*
X006499Y004041D02*
X006701Y004041D01*
X006701Y004064D02*
X006701Y003685D01*
X006789Y003596D01*
X007013Y003596D01*
X007101Y003685D01*
X007101Y004064D01*
X007249Y004064D01*
X007249Y003626D01*
X006999Y003376D01*
X006999Y003064D01*
X006874Y002939D01*
X006624Y002939D01*
X006499Y003064D01*
X006499Y004064D01*
X006701Y004064D01*
X006700Y004275D02*
X006788Y004275D01*
X006868Y004392D02*
X006003Y004392D01*
X006024Y004450D02*
X006809Y004450D01*
X006751Y004509D02*
X006024Y004509D01*
X006024Y004567D02*
X006704Y004567D01*
X006704Y004626D02*
X006024Y004626D01*
X005981Y004684D02*
X006704Y004684D01*
X006704Y004743D02*
X006024Y004743D01*
X006024Y004801D02*
X006704Y004801D01*
X007044Y004743D02*
X007588Y004743D01*
X007646Y004684D02*
X007056Y004684D01*
X007115Y004626D02*
X007705Y004626D01*
X007763Y004567D02*
X007173Y004567D01*
X007232Y004509D02*
X007822Y004509D01*
X007880Y004450D02*
X007290Y004450D01*
X007349Y004392D02*
X007939Y004392D01*
X007997Y004333D02*
X007386Y004333D01*
X007386Y004275D02*
X007733Y004275D01*
X007674Y004216D02*
X007388Y004216D01*
X007416Y004158D02*
X007646Y004158D01*
X007646Y004099D02*
X007416Y004099D01*
X007416Y004041D02*
X007646Y004041D01*
X007646Y003982D02*
X007416Y003982D01*
X007416Y003924D02*
X007646Y003924D01*
X007646Y003865D02*
X007416Y003865D01*
X007416Y003807D02*
X007646Y003807D01*
X007646Y003748D02*
X007416Y003748D01*
X007416Y003690D02*
X007646Y003690D01*
X007699Y003631D02*
X007369Y003631D01*
X007365Y003573D02*
X008776Y003573D01*
X008834Y003631D02*
X008623Y003631D01*
X008676Y003690D02*
X008861Y003690D01*
X008803Y003748D02*
X008676Y003748D01*
X008676Y003807D02*
X008770Y003807D01*
X008770Y003865D02*
X008676Y003865D01*
X008676Y003924D02*
X008770Y003924D01*
X008781Y003982D02*
X008676Y003982D01*
X008676Y004041D02*
X008839Y004041D01*
X008731Y004099D02*
X008676Y004099D01*
X008811Y004189D02*
X008624Y004376D01*
X008124Y004376D01*
X008048Y004275D02*
X007960Y004275D01*
X008719Y004450D02*
X008724Y004450D01*
X008811Y004189D02*
X009686Y004189D01*
X009999Y004501D02*
X010374Y004501D01*
X010374Y003559D01*
X010316Y003501D01*
X010311Y003506D01*
X010047Y003215D02*
X010594Y003215D01*
X010681Y003302D01*
X010681Y003337D01*
X010699Y003319D01*
X010699Y003319D01*
X010816Y003202D01*
X010816Y002928D01*
X010904Y002840D01*
X011460Y002840D01*
X011547Y002928D01*
X011547Y003327D01*
X011460Y003414D01*
X010943Y003414D01*
X010869Y003489D01*
X010869Y003623D01*
X010904Y003589D01*
X011460Y003589D01*
X011547Y003676D01*
X011547Y003756D01*
X011574Y003756D01*
X012324Y003006D01*
X012899Y003006D01*
X012927Y002979D01*
X013266Y002979D01*
X013354Y003067D01*
X013354Y003201D01*
X013322Y003233D01*
X013354Y003264D01*
X013354Y003398D01*
X013322Y003430D01*
X013354Y003461D01*
X013354Y003595D01*
X013322Y003626D01*
X013354Y003658D01*
X013354Y003749D01*
X013369Y003764D01*
X013369Y004051D01*
X013354Y004066D01*
X013354Y004186D01*
X013266Y004273D01*
X012927Y004273D01*
X012839Y004186D01*
X012839Y004121D01*
X012736Y004121D01*
X012681Y004176D01*
X012681Y004239D01*
X012611Y004309D01*
X012548Y004371D01*
X012262Y004371D01*
X012219Y004329D01*
X012214Y004329D01*
X012126Y004241D01*
X012126Y004038D01*
X012123Y004034D01*
X012126Y004010D01*
X012126Y003921D01*
X012214Y003834D01*
X012272Y003834D01*
X012420Y003723D01*
X012449Y003694D01*
X012459Y003694D01*
X012467Y003688D01*
X012507Y003694D01*
X012839Y003694D01*
X012839Y003658D01*
X012870Y003626D01*
X012839Y003595D01*
X012839Y003461D01*
X012848Y003451D01*
X012469Y003451D01*
X011994Y003926D01*
X011994Y004672D01*
X012103Y004781D01*
X012103Y004971D01*
X011969Y005105D01*
X011779Y005105D01*
X011744Y005070D01*
X011744Y005327D01*
X012216Y005799D01*
X012216Y005932D01*
X012285Y006000D01*
X012285Y006171D01*
X012316Y006139D01*
X012316Y005918D01*
X012311Y005913D01*
X012316Y005870D01*
X012316Y005827D01*
X012322Y005821D01*
X012322Y005814D01*
X012356Y005787D01*
X012387Y005756D01*
X012394Y005756D01*
X012669Y005537D01*
X012699Y005506D01*
X012707Y005506D01*
X012713Y005502D01*
X012755Y005506D01*
X013959Y005506D01*
X013941Y005489D01*
X013879Y005426D01*
X013879Y004952D01*
X013949Y004881D01*
X014129Y004702D01*
X014129Y004661D01*
X014102Y004661D01*
X014071Y004630D01*
X014039Y004661D01*
X013905Y004661D01*
X013874Y004630D01*
X013843Y004661D01*
X013708Y004661D01*
X013677Y004630D01*
X013646Y004661D01*
X013511Y004661D01*
X013423Y004573D01*
X013423Y004234D01*
X013511Y004147D01*
X013646Y004147D01*
X013677Y004178D01*
X013708Y004147D01*
X013843Y004147D01*
X013874Y004178D01*
X013905Y004147D01*
X014039Y004147D01*
X014071Y004178D01*
X014102Y004147D01*
X014236Y004147D01*
X014246Y004156D01*
X014246Y003335D01*
X014369Y003211D01*
X014379Y003211D01*
X014379Y003139D01*
X014394Y003124D01*
X014394Y003106D01*
X014299Y003106D01*
X014267Y003075D01*
X014236Y003106D01*
X014102Y003106D01*
X014071Y003075D01*
X014039Y003106D01*
X013905Y003106D01*
X013874Y003075D01*
X013843Y003106D01*
X013708Y003106D01*
X013677Y003075D01*
X013646Y003106D01*
X013511Y003106D01*
X013423Y003018D01*
X013423Y002679D01*
X013511Y002591D01*
X013646Y002591D01*
X013677Y002623D01*
X013708Y002591D01*
X013843Y002591D01*
X013874Y002623D01*
X013905Y002591D01*
X014039Y002591D01*
X014071Y002623D01*
X014102Y002591D01*
X014107Y002591D01*
X014024Y002557D01*
X013943Y002476D01*
X013899Y002371D01*
X013899Y002257D01*
X013943Y002151D01*
X013984Y002110D02*
X011626Y002110D01*
X011684Y002169D02*
X011740Y002304D01*
X011740Y002449D01*
X011684Y002584D01*
X011581Y002687D01*
X011447Y002743D01*
X011301Y002743D01*
X011166Y002687D01*
X011063Y002584D01*
X011008Y002449D01*
X011008Y002304D01*
X011063Y002169D01*
X011039Y002227D02*
X008708Y002227D01*
X008684Y002169D02*
X008740Y002304D01*
X008740Y002449D01*
X008684Y002584D01*
X008581Y002687D01*
X008447Y002743D01*
X008347Y002743D01*
X008361Y002756D01*
X008670Y002756D01*
X008779Y002647D01*
X008969Y002647D01*
X009103Y002781D01*
X009103Y002971D01*
X009068Y003006D01*
X009074Y003006D01*
X009199Y002881D01*
X009732Y002881D01*
X009841Y002772D01*
X010031Y002772D01*
X010165Y002906D01*
X010165Y003096D01*
X010047Y003215D01*
X010098Y003163D02*
X010816Y003163D01*
X010816Y003105D02*
X010157Y003105D01*
X010165Y003046D02*
X010816Y003046D01*
X010816Y002988D02*
X010165Y002988D01*
X010165Y002929D02*
X010816Y002929D01*
X010873Y002871D02*
X010130Y002871D01*
X010071Y002812D02*
X013423Y002812D01*
X013423Y002754D02*
X009075Y002754D01*
X009103Y002812D02*
X009801Y002812D01*
X009743Y002871D02*
X009103Y002871D01*
X009103Y002929D02*
X009151Y002929D01*
X009093Y002988D02*
X009086Y002988D01*
X009124Y003126D02*
X009249Y003001D01*
X009936Y003001D01*
X010601Y003222D02*
X010796Y003222D01*
X010738Y003280D02*
X010660Y003280D01*
X010749Y003439D02*
X010749Y004314D01*
X010937Y004502D01*
X011182Y004502D01*
X011310Y004502D01*
X011311Y004501D01*
X010749Y004626D02*
X010624Y004501D01*
X010374Y004501D01*
X009999Y004501D02*
X009346Y005154D01*
X009064Y005154D01*
X009064Y005469D02*
X009531Y005469D01*
X010124Y004876D01*
X010316Y004876D01*
X010316Y005381D01*
X011065Y006130D01*
X011151Y006130D01*
X011124Y005876D02*
X010749Y005501D01*
X010749Y004626D01*
X011249Y005126D02*
X011249Y005183D01*
X011182Y005250D01*
X011781Y005850D01*
X011781Y006130D01*
X011466Y006130D02*
X011466Y005969D01*
X011374Y005876D01*
X011124Y005876D01*
X011061Y006376D02*
X010936Y006501D01*
X011061Y006376D02*
X012249Y006376D01*
X012436Y006189D01*
X012436Y005876D01*
X012749Y005626D01*
X014374Y005626D01*
X014874Y005126D01*
X014874Y004251D01*
X014741Y004118D01*
X014651Y004118D01*
X014499Y004314D02*
X014324Y004314D01*
X014324Y004573D01*
X014249Y004649D01*
X014249Y004751D01*
X013999Y005001D01*
X013999Y005376D01*
X014061Y005439D01*
X014249Y005439D01*
X014499Y005189D01*
X014499Y004314D01*
X014499Y004333D02*
X014324Y004333D01*
X014324Y004392D02*
X014499Y004392D01*
X014499Y004450D02*
X014324Y004450D01*
X014324Y004509D02*
X014499Y004509D01*
X014499Y004567D02*
X014324Y004567D01*
X014272Y004626D02*
X014499Y004626D01*
X014499Y004684D02*
X014249Y004684D01*
X014249Y004743D02*
X014499Y004743D01*
X014499Y004801D02*
X014199Y004801D01*
X014140Y004860D02*
X014499Y004860D01*
X014499Y004918D02*
X014082Y004918D01*
X014023Y004977D02*
X014499Y004977D01*
X014499Y005035D02*
X013999Y005035D01*
X013999Y005094D02*
X014499Y005094D01*
X014499Y005152D02*
X013999Y005152D01*
X013999Y005211D02*
X014477Y005211D01*
X014418Y005269D02*
X013999Y005269D01*
X013999Y005328D02*
X014360Y005328D01*
X014301Y005386D02*
X014009Y005386D01*
X013898Y005445D02*
X011862Y005445D01*
X011920Y005503D02*
X012710Y005503D01*
X012729Y005503D02*
X013956Y005503D01*
X013879Y005386D02*
X011803Y005386D01*
X011745Y005328D02*
X013879Y005328D01*
X013879Y005269D02*
X011744Y005269D01*
X011744Y005211D02*
X013879Y005211D01*
X013879Y005152D02*
X011744Y005152D01*
X011744Y005094D02*
X011767Y005094D01*
X011980Y005094D02*
X013879Y005094D01*
X013879Y005035D02*
X012039Y005035D01*
X012097Y004977D02*
X013879Y004977D01*
X013912Y004918D02*
X012103Y004918D01*
X012103Y004860D02*
X013971Y004860D01*
X014029Y004801D02*
X012103Y004801D01*
X012064Y004743D02*
X014088Y004743D01*
X014129Y004684D02*
X012006Y004684D01*
X011994Y004626D02*
X013476Y004626D01*
X013423Y004567D02*
X011994Y004567D01*
X011994Y004509D02*
X013423Y004509D01*
X013423Y004450D02*
X011994Y004450D01*
X011994Y004392D02*
X013423Y004392D01*
X013423Y004333D02*
X012586Y004333D01*
X012645Y004275D02*
X013423Y004275D01*
X013441Y004216D02*
X013323Y004216D01*
X013354Y004158D02*
X013500Y004158D01*
X013657Y004158D02*
X013697Y004158D01*
X013854Y004158D02*
X013894Y004158D01*
X014051Y004158D02*
X014091Y004158D01*
X014246Y004099D02*
X013354Y004099D01*
X013369Y004041D02*
X014246Y004041D01*
X014246Y003982D02*
X013369Y003982D01*
X013369Y003924D02*
X014246Y003924D01*
X014246Y003865D02*
X013369Y003865D01*
X013369Y003807D02*
X014246Y003807D01*
X014246Y003748D02*
X013354Y003748D01*
X013354Y003690D02*
X014246Y003690D01*
X014246Y003631D02*
X013327Y003631D01*
X013354Y003573D02*
X014246Y003573D01*
X014246Y003514D02*
X013354Y003514D01*
X013349Y003456D02*
X014246Y003456D01*
X014246Y003397D02*
X013354Y003397D01*
X013354Y003339D02*
X014246Y003339D01*
X014300Y003280D02*
X013354Y003280D01*
X013333Y003222D02*
X014359Y003222D01*
X014379Y003163D02*
X013354Y003163D01*
X013354Y003105D02*
X013510Y003105D01*
X013451Y003046D02*
X013333Y003046D01*
X013274Y002988D02*
X013423Y002988D01*
X013423Y002929D02*
X011547Y002929D01*
X011547Y002988D02*
X012918Y002988D01*
X013088Y003126D02*
X012374Y003126D01*
X011624Y003876D01*
X011183Y003876D01*
X011182Y003875D01*
X011547Y003748D02*
X011582Y003748D01*
X011547Y003690D02*
X011641Y003690D01*
X011699Y003631D02*
X011503Y003631D01*
X011477Y003397D02*
X011933Y003397D01*
X011992Y003339D02*
X011535Y003339D01*
X011547Y003280D02*
X012050Y003280D01*
X012109Y003222D02*
X011547Y003222D01*
X011547Y003163D02*
X012167Y003163D01*
X012226Y003105D02*
X011547Y003105D01*
X011547Y003046D02*
X012284Y003046D01*
X012419Y003331D02*
X011874Y003876D01*
X011874Y004876D01*
X011994Y004333D02*
X012224Y004333D01*
X012160Y004275D02*
X011994Y004275D01*
X011994Y004216D02*
X012126Y004216D01*
X012126Y004158D02*
X011994Y004158D01*
X011994Y004099D02*
X012126Y004099D01*
X012126Y004041D02*
X011994Y004041D01*
X011994Y003982D02*
X012126Y003982D01*
X012126Y003924D02*
X011996Y003924D01*
X012054Y003865D02*
X012182Y003865D01*
X012113Y003807D02*
X012308Y003807D01*
X012386Y003748D02*
X012171Y003748D01*
X012230Y003690D02*
X012464Y003690D01*
X012479Y003690D02*
X012839Y003690D01*
X012865Y003631D02*
X012288Y003631D01*
X012347Y003573D02*
X012839Y003573D01*
X012839Y003514D02*
X012405Y003514D01*
X012464Y003456D02*
X012844Y003456D01*
X013096Y003331D02*
X012419Y003331D01*
X012499Y003814D02*
X012861Y003814D01*
X012927Y003880D01*
X013249Y003880D01*
X013249Y003963D01*
X012927Y003963D01*
X012889Y004001D01*
X012686Y004001D01*
X012561Y004126D01*
X012561Y004189D01*
X012499Y004251D01*
X012311Y004251D01*
X012249Y004189D01*
X012249Y004001D01*
X012499Y003814D01*
X012430Y003865D02*
X012912Y003865D01*
X012908Y003982D02*
X012274Y003982D01*
X012249Y004041D02*
X012647Y004041D01*
X012588Y004099D02*
X012249Y004099D01*
X012249Y004158D02*
X012561Y004158D01*
X012534Y004216D02*
X012276Y004216D01*
X012352Y003924D02*
X013249Y003924D01*
X012839Y004158D02*
X012699Y004158D01*
X012681Y004216D02*
X012870Y004216D01*
X011875Y003456D02*
X010901Y003456D01*
X010869Y003514D02*
X011816Y003514D01*
X011758Y003573D02*
X010869Y003573D01*
X010749Y003439D02*
X011060Y003127D01*
X011182Y003127D01*
X011490Y002871D02*
X013423Y002871D01*
X013647Y003105D02*
X013707Y003105D01*
X013844Y003105D02*
X013904Y003105D01*
X014041Y003105D02*
X014101Y003105D01*
X014238Y003105D02*
X014297Y003105D01*
X014419Y003331D02*
X014366Y003384D01*
X014366Y004404D01*
X014909Y004099D02*
X015177Y004099D01*
X015119Y004041D02*
X014898Y004041D01*
X014909Y003982D02*
X015060Y003982D01*
X015171Y003924D02*
X015561Y003924D01*
X015561Y003939D02*
X015561Y003689D01*
X015520Y003648D01*
X015102Y003648D01*
X015061Y003689D01*
X014499Y003689D01*
X014499Y003767D01*
X014821Y003767D01*
X014868Y003814D01*
X015061Y003814D01*
X015249Y004001D01*
X015499Y004001D01*
X015561Y003939D01*
X015518Y003982D02*
X015230Y003982D01*
X015113Y003865D02*
X015561Y003865D01*
X015561Y003807D02*
X014861Y003807D01*
X014651Y003528D02*
X015910Y003528D01*
X016061Y003376D01*
X016061Y003251D01*
X015936Y003126D01*
X015419Y003126D01*
X015374Y003172D01*
X015561Y003163D02*
X015024Y003163D01*
X014999Y003189D02*
X015186Y003001D01*
X015499Y003001D01*
X015561Y003064D01*
X015561Y003376D01*
X015499Y003439D01*
X015061Y003439D01*
X014999Y003376D01*
X014499Y003376D01*
X014499Y003289D01*
X014821Y003289D01*
X014909Y003201D01*
X014909Y003189D01*
X014999Y003189D01*
X014888Y003222D02*
X015561Y003222D01*
X015561Y003280D02*
X014830Y003280D01*
X014651Y003331D02*
X014419Y003331D01*
X014499Y003339D02*
X015561Y003339D01*
X015540Y003397D02*
X015020Y003397D01*
X015083Y003105D02*
X015561Y003105D01*
X015544Y003046D02*
X015141Y003046D01*
X015030Y002988D02*
X014830Y002988D01*
X014888Y003046D02*
X014972Y003046D01*
X015089Y002929D02*
X014771Y002929D01*
X014771Y002871D02*
X016222Y002871D01*
X016229Y002893D02*
X016127Y002580D01*
X015934Y002314D01*
X015668Y002121D01*
X015355Y002019D01*
X015191Y002006D01*
X000754Y002006D01*
X000754Y009996D01*
X015191Y009996D01*
X015355Y009983D01*
X015668Y009882D01*
X015934Y009688D01*
X016127Y009422D01*
X016229Y009110D01*
X016242Y008945D01*
X016242Y003057D01*
X016229Y002893D01*
X016232Y002929D02*
X015596Y002929D01*
X015655Y002988D02*
X016236Y002988D01*
X016241Y003046D02*
X016026Y003046D01*
X016084Y003105D02*
X016242Y003105D01*
X016242Y003163D02*
X016143Y003163D01*
X016181Y003222D02*
X016242Y003222D01*
X016242Y003280D02*
X016181Y003280D01*
X016181Y003339D02*
X016242Y003339D01*
X016242Y003397D02*
X016181Y003397D01*
X016151Y003456D02*
X016242Y003456D01*
X016242Y003514D02*
X016093Y003514D01*
X016034Y003573D02*
X016242Y003573D01*
X016242Y003631D02*
X015976Y003631D01*
X016242Y003690D02*
X015681Y003690D01*
X015681Y003748D02*
X016242Y003748D01*
X016242Y003807D02*
X015681Y003807D01*
X015681Y003865D02*
X016242Y003865D01*
X016242Y003924D02*
X015681Y003924D01*
X015681Y003982D02*
X016242Y003982D01*
X016242Y004041D02*
X015629Y004041D01*
X015570Y004099D02*
X016242Y004099D01*
X016242Y004158D02*
X014950Y004158D01*
X014994Y004216D02*
X016242Y004216D01*
X016242Y004275D02*
X014994Y004275D01*
X014994Y004333D02*
X016242Y004333D01*
X016242Y004392D02*
X014994Y004392D01*
X014994Y004450D02*
X016242Y004450D01*
X016242Y004509D02*
X014994Y004509D01*
X014994Y004567D02*
X016242Y004567D01*
X016242Y004626D02*
X014994Y004626D01*
X014994Y004684D02*
X016242Y004684D01*
X016242Y004743D02*
X014994Y004743D01*
X014994Y004801D02*
X016242Y004801D01*
X016242Y004860D02*
X014994Y004860D01*
X014994Y004918D02*
X016242Y004918D01*
X016242Y004977D02*
X014994Y004977D01*
X014994Y005035D02*
X016242Y005035D01*
X016242Y005094D02*
X014994Y005094D01*
X014994Y005152D02*
X016242Y005152D01*
X016242Y005211D02*
X014959Y005211D01*
X014900Y005269D02*
X016242Y005269D01*
X016242Y005328D02*
X014842Y005328D01*
X014783Y005386D02*
X016242Y005386D01*
X016242Y005445D02*
X014725Y005445D01*
X014666Y005503D02*
X016242Y005503D01*
X016242Y005562D02*
X014608Y005562D01*
X014549Y005620D02*
X016242Y005620D01*
X016242Y005679D02*
X014491Y005679D01*
X014432Y005737D02*
X016242Y005737D01*
X016242Y005796D02*
X013463Y005796D01*
X013521Y005854D02*
X014476Y005854D01*
X014441Y005889D02*
X014512Y005819D01*
X015611Y005819D01*
X015673Y005881D01*
X015744Y005952D01*
X015744Y006239D01*
X015673Y006309D01*
X015611Y006371D01*
X015199Y006371D01*
X015137Y006309D01*
X014512Y006309D01*
X014441Y006239D01*
X014441Y006182D01*
X014434Y006176D01*
X014434Y005954D01*
X014441Y005947D01*
X014441Y005889D01*
X014441Y005913D02*
X014022Y005913D01*
X014063Y005971D02*
X014434Y005971D01*
X014434Y006030D02*
X014063Y006030D01*
X014063Y006088D02*
X014434Y006088D01*
X014434Y006147D02*
X014063Y006147D01*
X014033Y006205D02*
X014441Y006205D01*
X014467Y006264D02*
X012806Y006264D01*
X012806Y006322D02*
X015150Y006322D01*
X015249Y006251D02*
X015186Y006189D01*
X014561Y006189D01*
X014561Y005939D01*
X015561Y005939D01*
X015624Y006001D01*
X015624Y006189D01*
X015561Y006251D01*
X015249Y006251D01*
X015203Y006205D02*
X015607Y006205D01*
X015624Y006147D02*
X014561Y006147D01*
X014561Y006088D02*
X015624Y006088D01*
X015624Y006030D02*
X014561Y006030D01*
X014561Y005971D02*
X015594Y005971D01*
X015705Y005913D02*
X016242Y005913D01*
X016242Y005971D02*
X015744Y005971D01*
X015744Y006030D02*
X016242Y006030D01*
X016242Y006088D02*
X015744Y006088D01*
X015744Y006147D02*
X016242Y006147D01*
X016242Y006205D02*
X015744Y006205D01*
X015718Y006264D02*
X016242Y006264D01*
X016242Y006322D02*
X015660Y006322D01*
X015673Y006309D02*
X015673Y006309D01*
X015646Y005854D02*
X016242Y005854D01*
X016242Y006381D02*
X012806Y006381D01*
X012806Y006439D02*
X016242Y006439D01*
X016242Y006498D02*
X012806Y006498D01*
X012874Y006673D02*
X013233Y006673D01*
X013286Y006556D02*
X016242Y006556D01*
X016242Y006615D02*
X014999Y006615D01*
X015016Y006631D01*
X015048Y006631D01*
X015119Y006702D01*
X015090Y006673D02*
X016242Y006673D01*
X016242Y007551D02*
X015119Y007551D01*
X015090Y007609D02*
X016242Y007609D01*
X016242Y007668D02*
X015031Y007668D01*
X014973Y007726D02*
X016242Y007726D01*
X016242Y007785D02*
X014885Y007785D01*
X014832Y007668D02*
X014436Y007668D01*
X014436Y007609D02*
X014891Y007609D01*
X014999Y007141D02*
X014436Y007141D01*
X014436Y007083D02*
X014999Y007083D01*
X014999Y007024D02*
X014436Y007024D01*
X014436Y006966D02*
X014999Y006966D01*
X014999Y006907D02*
X014436Y006907D01*
X014464Y006849D02*
X014999Y006849D01*
X014999Y006790D02*
X014522Y006790D01*
X014522Y006615D02*
X014999Y006615D01*
X014186Y006939D02*
X014060Y006813D01*
X013737Y006813D01*
X013936Y006790D02*
X012874Y006790D01*
X012874Y006732D02*
X013936Y006732D01*
X014186Y006939D02*
X014186Y008153D01*
X014624Y008591D01*
X014843Y008838D02*
X016242Y008838D01*
X016242Y008896D02*
X014825Y008896D01*
X014813Y008885D02*
X014901Y008973D01*
X014901Y009052D01*
X015126Y009052D01*
X015126Y009012D01*
X015214Y008924D01*
X015533Y008924D01*
X015621Y009012D01*
X015621Y009331D01*
X015533Y009419D01*
X015214Y009419D01*
X015126Y009331D01*
X015126Y009292D01*
X014901Y009292D01*
X014901Y009351D01*
X014813Y009439D01*
X014435Y009439D01*
X014347Y009351D01*
X014347Y008973D01*
X014435Y008885D01*
X014813Y008885D01*
X014883Y008955D02*
X015183Y008955D01*
X015126Y009013D02*
X014901Y009013D01*
X014901Y008779D02*
X016242Y008779D01*
X016242Y008721D02*
X014901Y008721D01*
X014901Y008662D02*
X016242Y008662D01*
X016242Y008604D02*
X014901Y008604D01*
X014901Y008545D02*
X016242Y008545D01*
X016242Y008487D02*
X014901Y008487D01*
X014901Y008428D02*
X016242Y008428D01*
X016242Y008370D02*
X014869Y008370D01*
X014514Y008311D02*
X016242Y008311D01*
X016242Y008253D02*
X014455Y008253D01*
X014397Y008194D02*
X016242Y008194D01*
X016242Y008136D02*
X014338Y008136D01*
X014306Y008077D02*
X016242Y008077D01*
X016242Y008019D02*
X014306Y008019D01*
X014306Y007960D02*
X016242Y007960D01*
X016242Y007902D02*
X014306Y007902D01*
X014306Y007843D02*
X016242Y007843D01*
X016241Y008955D02*
X015564Y008955D01*
X015621Y009013D02*
X016236Y009013D01*
X016232Y009072D02*
X015621Y009072D01*
X015621Y009130D02*
X016222Y009130D01*
X016203Y009189D02*
X015621Y009189D01*
X015621Y009247D02*
X016184Y009247D01*
X016165Y009306D02*
X015621Y009306D01*
X015588Y009364D02*
X016146Y009364D01*
X016127Y009423D02*
X014829Y009423D01*
X014887Y009364D02*
X015159Y009364D01*
X015126Y009306D02*
X014901Y009306D01*
X014634Y009172D02*
X014624Y009162D01*
X014634Y009172D02*
X015374Y009172D01*
X015999Y009598D02*
X013964Y009598D01*
X013964Y009540D02*
X016042Y009540D01*
X016084Y009481D02*
X013964Y009481D01*
X013964Y009423D02*
X014419Y009423D01*
X014360Y009364D02*
X013964Y009364D01*
X013964Y009306D02*
X014347Y009306D01*
X014347Y009247D02*
X013964Y009247D01*
X013964Y009189D02*
X014347Y009189D01*
X014347Y009130D02*
X013964Y009130D01*
X013964Y009072D02*
X014347Y009072D01*
X014347Y009013D02*
X013964Y009013D01*
X013964Y008955D02*
X014364Y008955D01*
X014423Y008896D02*
X013964Y008896D01*
X013964Y008838D02*
X014404Y008838D01*
X014347Y008779D02*
X013964Y008779D01*
X013964Y008721D02*
X014347Y008721D01*
X014347Y008662D02*
X013964Y008662D01*
X013935Y008604D02*
X014347Y008604D01*
X014347Y008545D02*
X013876Y008545D01*
X013654Y008487D02*
X014347Y008487D01*
X014292Y008428D02*
X013595Y008428D01*
X013537Y008370D02*
X014233Y008370D01*
X014175Y008311D02*
X013478Y008311D01*
X013374Y008376D02*
X013624Y008626D01*
X013624Y009126D01*
X013927Y009657D02*
X015957Y009657D01*
X015897Y009715D02*
X013868Y009715D01*
X012624Y009126D02*
X012624Y008876D01*
X012374Y008626D01*
X012124Y008626D01*
X011874Y008376D01*
X011874Y008126D01*
X011311Y007564D01*
X011311Y007126D01*
X011148Y006966D02*
X011079Y006966D01*
X011089Y007024D02*
X011020Y007024D01*
X010962Y007083D02*
X011082Y007083D01*
X011082Y007141D02*
X010903Y007141D01*
X010851Y007200D02*
X010845Y007200D01*
X010999Y007376D02*
X010999Y007501D01*
X011624Y008126D01*
X011624Y009126D01*
X011964Y009130D02*
X012284Y009130D01*
X012284Y009072D02*
X011964Y009072D01*
X011964Y009013D02*
X012284Y009013D01*
X012284Y008955D02*
X011964Y008955D01*
X011964Y008896D02*
X012284Y008896D01*
X012284Y008838D02*
X011964Y008838D01*
X011964Y008779D02*
X012284Y008779D01*
X012049Y008721D02*
X011964Y008721D01*
X011964Y008662D02*
X011990Y008662D01*
X012154Y008487D02*
X012252Y008487D01*
X012311Y008376D02*
X012186Y008251D01*
X012311Y008376D02*
X013374Y008376D01*
X012820Y008077D02*
X012336Y008077D01*
X012415Y008253D02*
X014116Y008253D01*
X014306Y007785D02*
X014328Y007785D01*
X014066Y007024D02*
X014020Y007024D01*
X013441Y006205D02*
X012806Y006205D01*
X012806Y006147D02*
X013411Y006147D01*
X013411Y006088D02*
X012806Y006088D01*
X012827Y006030D02*
X013358Y006030D01*
X013374Y005876D02*
X012811Y005876D01*
X012686Y006001D01*
X012686Y006689D01*
X012735Y006907D02*
X012605Y006907D01*
X012532Y006966D02*
X012751Y006966D01*
X012754Y007024D02*
X012459Y007024D01*
X012786Y007083D02*
X011540Y007083D01*
X011540Y007141D02*
X012829Y007141D01*
X012829Y007200D02*
X011540Y007200D01*
X011503Y007258D02*
X012829Y007258D01*
X012829Y007317D02*
X011445Y007317D01*
X011431Y007375D02*
X012829Y007375D01*
X012829Y007434D02*
X011431Y007434D01*
X011431Y007492D02*
X012829Y007492D01*
X012829Y007551D02*
X011468Y007551D01*
X011526Y007609D02*
X012829Y007609D01*
X012828Y007668D02*
X011585Y007668D01*
X011643Y007726D02*
X012770Y007726D01*
X012746Y007785D02*
X011702Y007785D01*
X011760Y007843D02*
X012730Y007843D01*
X012730Y007902D02*
X011819Y007902D01*
X011877Y007960D02*
X012743Y007960D01*
X012767Y008019D02*
X011936Y008019D01*
X011994Y008077D02*
X012036Y008077D01*
X011504Y008428D02*
X011458Y008428D01*
X011504Y008487D02*
X007369Y008487D01*
X007369Y008545D02*
X009371Y008545D01*
X009380Y008536D02*
X009867Y008536D01*
X009964Y008633D01*
X009964Y009620D01*
X009867Y009716D01*
X009380Y009716D01*
X009284Y009620D01*
X009284Y008633D01*
X009380Y008536D01*
X009313Y008604D02*
X007369Y008604D01*
X007369Y008662D02*
X009284Y008662D01*
X009284Y008721D02*
X007369Y008721D01*
X007369Y008779D02*
X009284Y008779D01*
X009284Y008838D02*
X007369Y008838D01*
X007369Y008896D02*
X009284Y008896D01*
X009284Y008955D02*
X007369Y008955D01*
X007369Y009013D02*
X009284Y009013D01*
X009284Y009072D02*
X007369Y009072D01*
X007352Y009130D02*
X009284Y009130D01*
X009321Y009657D02*
X000754Y009657D01*
X000754Y009715D02*
X009379Y009715D01*
X009868Y009715D02*
X010379Y009715D01*
X010380Y009716D02*
X010284Y009620D01*
X010284Y008633D01*
X010380Y008536D01*
X010536Y008536D01*
X010553Y008519D01*
X010694Y008519D01*
X010712Y008536D01*
X010867Y008536D01*
X010964Y008633D01*
X010964Y009620D01*
X010867Y009716D01*
X010380Y009716D01*
X010321Y009657D02*
X009927Y009657D01*
X009964Y009598D02*
X010284Y009598D01*
X010284Y009540D02*
X009964Y009540D01*
X009964Y009481D02*
X010284Y009481D01*
X010284Y009423D02*
X009964Y009423D01*
X009964Y009364D02*
X010284Y009364D01*
X010284Y009306D02*
X009964Y009306D01*
X009964Y009247D02*
X010284Y009247D01*
X010284Y009189D02*
X009964Y009189D01*
X009964Y009130D02*
X010284Y009130D01*
X010284Y009072D02*
X009964Y009072D01*
X009964Y009013D02*
X010284Y009013D01*
X010284Y008955D02*
X009964Y008955D01*
X009964Y008896D02*
X010284Y008896D01*
X010284Y008838D02*
X009964Y008838D01*
X009964Y008779D02*
X010284Y008779D01*
X010284Y008721D02*
X009964Y008721D01*
X009964Y008662D02*
X010284Y008662D01*
X010313Y008604D02*
X009935Y008604D01*
X009876Y008545D02*
X010371Y008545D01*
X010624Y008876D02*
X010624Y009126D01*
X010964Y009130D02*
X011284Y009130D01*
X011284Y009072D02*
X010964Y009072D01*
X010964Y009013D02*
X011284Y009013D01*
X011284Y008955D02*
X010964Y008955D01*
X010964Y008896D02*
X011284Y008896D01*
X011284Y008838D02*
X010964Y008838D01*
X010964Y008779D02*
X011284Y008779D01*
X011284Y008721D02*
X010964Y008721D01*
X010964Y008662D02*
X011284Y008662D01*
X011313Y008604D02*
X010935Y008604D01*
X010876Y008545D02*
X011371Y008545D01*
X011164Y008428D02*
X007369Y008428D01*
X007369Y008370D02*
X011106Y008370D01*
X011311Y008251D02*
X011311Y008189D01*
X011186Y008064D01*
X010004Y007200D02*
X009949Y007200D01*
X010004Y007141D02*
X008676Y007141D01*
X008676Y007200D02*
X009549Y007200D01*
X009490Y007258D02*
X008676Y007258D01*
X008676Y007317D02*
X009472Y007317D01*
X009472Y007375D02*
X008676Y007375D01*
X008676Y007434D02*
X009472Y007434D01*
X009472Y007492D02*
X008676Y007492D01*
X008676Y007551D02*
X009472Y007551D01*
X009472Y007609D02*
X008635Y007609D01*
X008002Y007609D02*
X007744Y007609D01*
X007744Y007551D02*
X007961Y007551D01*
X007961Y007492D02*
X007744Y007492D01*
X007744Y007434D02*
X007961Y007434D01*
X007961Y007375D02*
X007744Y007375D01*
X007744Y007317D02*
X007961Y007317D01*
X007961Y007258D02*
X007744Y007258D01*
X007742Y007200D02*
X007961Y007200D01*
X007961Y007141D02*
X007731Y007141D01*
X007731Y007083D02*
X007961Y007083D01*
X008001Y007024D02*
X007691Y007024D01*
X007624Y007258D02*
X007416Y007258D01*
X007416Y007317D02*
X007624Y007317D01*
X007624Y007375D02*
X007416Y007375D01*
X007416Y007434D02*
X007624Y007434D01*
X007624Y007492D02*
X007416Y007492D01*
X007416Y007551D02*
X007624Y007551D01*
X007624Y007609D02*
X007375Y007609D01*
X007524Y007726D02*
X006749Y007726D01*
X006749Y007668D02*
X007582Y007668D01*
X007693Y007726D02*
X009543Y007726D01*
X009534Y007785D02*
X007635Y007785D01*
X007576Y007843D02*
X009476Y007843D01*
X009472Y007902D02*
X007518Y007902D01*
X007459Y007960D02*
X009472Y007960D01*
X009472Y008019D02*
X007401Y008019D01*
X007369Y008077D02*
X009472Y008077D01*
X009472Y008136D02*
X007369Y008136D01*
X007369Y008194D02*
X009472Y008194D01*
X009499Y008253D02*
X007369Y008253D01*
X007369Y008311D02*
X009557Y008311D01*
X009484Y007668D02*
X007744Y007668D01*
X007465Y007785D02*
X006749Y007785D01*
X006749Y007843D02*
X007407Y007843D01*
X007348Y007902D02*
X006749Y007902D01*
X006586Y007832D02*
X005958Y008460D01*
X006629Y008955D02*
X005221Y008955D01*
X005279Y009013D02*
X006629Y009013D01*
X006629Y009072D02*
X005338Y009072D01*
X004091Y007843D02*
X001124Y007843D01*
X001124Y007785D02*
X004032Y007785D01*
X004235Y007024D02*
X003776Y007024D01*
X003776Y006966D02*
X004176Y006966D01*
X004160Y006907D02*
X003776Y006907D01*
X003776Y006849D02*
X004160Y006849D01*
X004160Y006790D02*
X003776Y006790D01*
X003750Y006732D02*
X004176Y006732D01*
X004199Y006673D02*
X003692Y006673D01*
X003999Y006314D02*
X003999Y005314D01*
X003686Y005001D01*
X003186Y005001D01*
X003776Y004918D02*
X003871Y004918D01*
X003831Y004977D02*
X003930Y004977D01*
X003890Y005035D02*
X003988Y005035D01*
X003948Y005094D02*
X004047Y005094D01*
X004007Y005152D02*
X004105Y005152D01*
X004065Y005211D02*
X004164Y005211D01*
X004119Y005269D02*
X004230Y005269D01*
X004119Y005328D02*
X005373Y005328D01*
X005344Y005386D02*
X004119Y005386D01*
X004119Y005445D02*
X005344Y005445D01*
X005344Y005503D02*
X004119Y005503D01*
X004119Y005562D02*
X005344Y005562D01*
X005383Y005620D02*
X004119Y005620D01*
X004119Y005796D02*
X004167Y005796D01*
X004160Y005854D02*
X004119Y005854D01*
X004119Y005913D02*
X004160Y005913D01*
X004160Y005971D02*
X004119Y005971D01*
X004119Y006030D02*
X004185Y006030D01*
X004190Y006088D02*
X004119Y006088D01*
X004119Y006147D02*
X004160Y006147D01*
X004160Y006205D02*
X004119Y006205D01*
X004119Y006264D02*
X004160Y006305D01*
X003999Y006314D02*
X004219Y006534D01*
X004378Y006534D01*
X004870Y006534D02*
X005154Y006534D01*
X006586Y007316D02*
X006586Y007832D01*
X006749Y007609D02*
X007057Y007609D01*
X007016Y007551D02*
X006786Y007551D01*
X006786Y007492D02*
X007016Y007492D01*
X007016Y007434D02*
X006786Y007434D01*
X006786Y007375D02*
X007016Y007375D01*
X007016Y007317D02*
X006786Y007317D01*
X006786Y007258D02*
X007016Y007258D01*
X007101Y007083D02*
X007331Y007083D01*
X007371Y007024D02*
X007061Y007024D01*
X009064Y006729D02*
X009476Y006729D01*
X009596Y006849D01*
X009878Y006849D01*
X009878Y006534D02*
X009656Y006534D01*
X009536Y006414D01*
X009064Y006414D01*
X009064Y006099D02*
X009596Y006099D01*
X009716Y006219D01*
X009878Y006219D01*
X009878Y005904D02*
X009776Y005904D01*
X009656Y005784D01*
X009064Y005784D01*
X009395Y006849D02*
X009427Y006849D01*
X009485Y006907D02*
X009337Y006907D01*
X011137Y006907D02*
X011206Y006907D01*
X011196Y006849D02*
X011427Y006849D01*
X011416Y006907D02*
X011485Y006907D01*
X011475Y006966D02*
X011544Y006966D01*
X011533Y007024D02*
X011602Y007024D01*
X011316Y006790D02*
X011302Y006790D01*
X011781Y006622D02*
X012096Y006622D01*
X012124Y006650D01*
X012311Y006626D01*
X012285Y006147D02*
X012309Y006147D01*
X012316Y006088D02*
X012285Y006088D01*
X012285Y006030D02*
X012316Y006030D01*
X012316Y005971D02*
X012256Y005971D01*
X012216Y005913D02*
X012312Y005913D01*
X012316Y005854D02*
X012216Y005854D01*
X012213Y005796D02*
X012345Y005796D01*
X012418Y005737D02*
X012154Y005737D01*
X012096Y005679D02*
X012491Y005679D01*
X012564Y005620D02*
X012037Y005620D01*
X011979Y005562D02*
X012637Y005562D01*
X012096Y005849D02*
X011624Y005376D01*
X011624Y003876D01*
X011561Y002695D02*
X013423Y002695D01*
X013466Y002637D02*
X011631Y002637D01*
X011686Y002578D02*
X014075Y002578D01*
X013987Y002520D02*
X011711Y002520D01*
X011735Y002461D02*
X013937Y002461D01*
X013913Y002403D02*
X011740Y002403D01*
X011740Y002344D02*
X013899Y002344D01*
X013899Y002286D02*
X011733Y002286D01*
X011708Y002227D02*
X013912Y002227D01*
X014186Y002314D02*
X014366Y002493D01*
X014366Y002849D01*
X014771Y002812D02*
X016203Y002812D01*
X016184Y002754D02*
X014771Y002754D01*
X014771Y002695D02*
X016165Y002695D01*
X016146Y002637D02*
X014771Y002637D01*
X014860Y002578D02*
X016126Y002578D01*
X016083Y002520D02*
X014948Y002520D01*
X014998Y002461D02*
X016041Y002461D01*
X015998Y002403D02*
X015022Y002403D01*
X015036Y002344D02*
X015956Y002344D01*
X015895Y002286D02*
X015036Y002286D01*
X015023Y002227D02*
X015814Y002227D01*
X015734Y002169D02*
X014999Y002169D01*
X014951Y002110D02*
X015635Y002110D01*
X015455Y002052D02*
X014866Y002052D01*
X014632Y002052D02*
X014303Y002052D01*
X014388Y002110D02*
X014547Y002110D01*
X014498Y002169D02*
X014437Y002169D01*
X014461Y002227D02*
X014474Y002227D01*
X014651Y002411D02*
X014749Y002314D01*
X014651Y002411D02*
X014651Y003134D01*
X014499Y003690D02*
X015561Y003690D01*
X015561Y003748D02*
X014499Y003748D01*
X013096Y003134D02*
X013088Y003126D01*
X014069Y002052D02*
X011547Y002052D01*
X011200Y002052D02*
X008547Y002052D01*
X008626Y002110D02*
X011122Y002110D01*
X011015Y002286D02*
X008733Y002286D01*
X008740Y002344D02*
X011008Y002344D01*
X011008Y002403D02*
X008740Y002403D01*
X008735Y002461D02*
X011013Y002461D01*
X011037Y002520D02*
X008711Y002520D01*
X008686Y002578D02*
X011061Y002578D01*
X011116Y002637D02*
X008631Y002637D01*
X008561Y002695D02*
X008731Y002695D01*
X008672Y002754D02*
X008358Y002754D01*
X008311Y002876D02*
X007749Y002314D01*
X005749Y002314D01*
X005490Y002403D02*
X003305Y002403D01*
X003446Y002461D02*
X005432Y002461D01*
X005373Y002520D02*
X003522Y002520D01*
X003581Y002578D02*
X005315Y002578D01*
X005256Y002637D02*
X003639Y002637D01*
X003670Y002695D02*
X005198Y002695D01*
X005139Y002754D02*
X003695Y002754D01*
X003719Y002812D02*
X005081Y002812D01*
X005022Y002871D02*
X003743Y002871D01*
X003746Y002929D02*
X004964Y002929D01*
X004905Y002988D02*
X003746Y002988D01*
X003746Y003046D02*
X004847Y003046D01*
X004788Y003105D02*
X003746Y003105D01*
X003730Y003163D02*
X004730Y003163D01*
X004671Y003222D02*
X004418Y003222D01*
X004477Y003280D02*
X004613Y003280D01*
X004554Y003339D02*
X004535Y003339D01*
X004999Y003376D02*
X004999Y003439D01*
X004999Y003376D02*
X005874Y002501D01*
X007686Y002501D01*
X008311Y003126D01*
X009124Y003126D01*
X008874Y002876D02*
X008311Y002876D01*
X008249Y003314D02*
X008686Y003314D01*
X008999Y003626D01*
X008999Y003876D01*
X008717Y003514D02*
X007306Y003514D01*
X007248Y003456D02*
X008659Y003456D01*
X008329Y003631D02*
X008308Y003631D01*
X008014Y003631D02*
X007993Y003631D01*
X007249Y003631D02*
X007048Y003631D01*
X007101Y003690D02*
X007249Y003690D01*
X007249Y003748D02*
X007101Y003748D01*
X007101Y003807D02*
X007249Y003807D01*
X007249Y003865D02*
X007101Y003865D01*
X007101Y003924D02*
X007249Y003924D01*
X007249Y003982D02*
X007101Y003982D01*
X007101Y004041D02*
X007249Y004041D01*
X006926Y004333D02*
X005945Y004333D01*
X006158Y004275D02*
X005067Y004275D01*
X005053Y004333D02*
X005423Y004333D01*
X005364Y004392D02*
X005184Y004392D01*
X004870Y004154D02*
X005596Y004154D01*
X006385Y004275D02*
X006473Y004275D01*
X006499Y003865D02*
X006701Y003865D01*
X006701Y003807D02*
X006499Y003807D01*
X006499Y003748D02*
X006701Y003748D01*
X006701Y003690D02*
X006499Y003690D01*
X006499Y003631D02*
X006754Y003631D01*
X006499Y003573D02*
X007195Y003573D01*
X007137Y003514D02*
X006499Y003514D01*
X006499Y003456D02*
X007078Y003456D01*
X007020Y003397D02*
X006499Y003397D01*
X006499Y003339D02*
X006999Y003339D01*
X006999Y003280D02*
X006499Y003280D01*
X006499Y003222D02*
X006999Y003222D01*
X006999Y003163D02*
X006499Y003163D01*
X006499Y003105D02*
X006999Y003105D01*
X006981Y003046D02*
X006516Y003046D01*
X006575Y002988D02*
X006923Y002988D01*
X007832Y002227D02*
X008039Y002227D01*
X008063Y002169D02*
X000754Y002169D01*
X000754Y002110D02*
X008122Y002110D01*
X008200Y002052D02*
X000754Y002052D01*
X000754Y004041D02*
X001034Y004041D01*
X001034Y004099D02*
X000754Y004099D01*
X000754Y004158D02*
X001034Y004158D01*
X001034Y004216D02*
X000754Y004216D01*
X000754Y004275D02*
X001064Y004275D01*
X001122Y004333D02*
X000754Y004333D01*
X001624Y005001D02*
X001686Y005001D01*
X002374Y004876D02*
X002624Y004626D01*
X003749Y004626D01*
X004221Y005099D01*
X004378Y005099D01*
X003843Y005328D02*
X003693Y005328D01*
X003752Y005269D02*
X003785Y005269D01*
X003776Y004860D02*
X003813Y004860D01*
X003874Y004189D02*
X003874Y004126D01*
X001113Y005679D02*
X000754Y005679D01*
X000754Y005737D02*
X001054Y005737D01*
X001034Y005796D02*
X000754Y005796D01*
X000754Y005854D02*
X001034Y005854D01*
X001034Y005913D02*
X000754Y005913D01*
X000754Y005971D02*
X001034Y005971D01*
X001034Y006030D02*
X000754Y006030D01*
X000754Y006088D02*
X001034Y006088D01*
X001034Y006147D02*
X000754Y006147D01*
X000754Y006205D02*
X001034Y006205D01*
X001053Y006264D02*
X000754Y006264D01*
X000754Y006322D02*
X001111Y006322D01*
X001034Y007083D02*
X000754Y007083D01*
X000754Y007141D02*
X001034Y007141D01*
X001034Y007200D02*
X000754Y007200D01*
X000754Y007258D02*
X001047Y007258D01*
X001106Y007317D02*
X000754Y007317D01*
X000754Y007375D02*
X002205Y007375D01*
X002264Y007317D02*
X002142Y007317D01*
X002200Y007258D02*
X002322Y007258D01*
X002381Y007200D02*
X002214Y007200D01*
X002214Y007141D02*
X002439Y007141D01*
X002498Y007083D02*
X002214Y007083D01*
X002214Y007024D02*
X002556Y007024D01*
X002566Y006966D02*
X002214Y006966D01*
X002147Y007434D02*
X000754Y007434D01*
X000754Y007492D02*
X002088Y007492D01*
X002030Y007551D02*
X000754Y007551D01*
X000754Y007609D02*
X001971Y007609D01*
X001038Y007668D02*
X000754Y007668D01*
X000754Y007726D02*
X001004Y007726D01*
X001004Y007785D02*
X000754Y007785D01*
X000754Y007843D02*
X001004Y007843D01*
X001004Y007902D02*
X000754Y007902D01*
X000754Y007960D02*
X001004Y007960D01*
X001004Y008019D02*
X000754Y008019D01*
X000754Y008077D02*
X001004Y008077D01*
X001004Y008136D02*
X000754Y008136D01*
X000754Y008194D02*
X001004Y008194D01*
X001004Y008253D02*
X000754Y008253D01*
X000754Y008311D02*
X001004Y008311D01*
X001010Y008370D02*
X000754Y008370D01*
X000754Y008428D02*
X001069Y008428D01*
X000754Y009774D02*
X015816Y009774D01*
X015736Y009832D02*
X000754Y009832D01*
X000754Y009891D02*
X015640Y009891D01*
X015460Y009949D02*
X000754Y009949D01*
X009017Y002695D02*
X011187Y002695D01*
X008008Y002403D02*
X008007Y002403D01*
X008008Y002344D02*
X007949Y002344D01*
X007890Y002286D02*
X008015Y002286D01*
X012096Y005849D02*
X012096Y006130D01*
X013374Y005876D02*
X013562Y006065D01*
X013737Y006065D01*
X012284Y009189D02*
X011964Y009189D01*
X011964Y009247D02*
X012284Y009247D01*
X012284Y009306D02*
X011964Y009306D01*
X011964Y009364D02*
X012284Y009364D01*
X012284Y009423D02*
X011964Y009423D01*
X011964Y009481D02*
X012284Y009481D01*
X012284Y009540D02*
X011964Y009540D01*
X011964Y009598D02*
X012284Y009598D01*
X012321Y009657D02*
X011927Y009657D01*
X011868Y009715D02*
X012379Y009715D01*
X011379Y009715D02*
X010868Y009715D01*
X010927Y009657D02*
X011321Y009657D01*
X011284Y009598D02*
X010964Y009598D01*
X010964Y009540D02*
X011284Y009540D01*
X011284Y009481D02*
X010964Y009481D01*
X010964Y009423D02*
X011284Y009423D01*
X011284Y009364D02*
X010964Y009364D01*
X010964Y009306D02*
X011284Y009306D01*
X011284Y009247D02*
X010964Y009247D01*
X010964Y009189D02*
X011284Y009189D01*
D21*
X010624Y009376D03*
X010124Y009001D03*
X011124Y009751D03*
X012124Y009001D03*
X012186Y008251D03*
X011311Y008251D03*
X010999Y007376D03*
X011311Y007126D03*
X010686Y006564D03*
X010686Y006189D03*
X011249Y005126D03*
X011874Y004876D03*
X012374Y004939D03*
X012374Y004564D03*
X013061Y004501D03*
X013561Y003939D03*
X014186Y005001D03*
X014186Y005376D03*
X013561Y005126D03*
X013186Y005126D03*
X012999Y006314D03*
X013436Y006439D03*
X013811Y006439D03*
X014499Y006439D03*
X014874Y007126D03*
X014874Y007501D03*
X014561Y008064D03*
X013811Y007501D03*
X013374Y007501D03*
X012624Y007251D03*
X012311Y006626D03*
X011311Y004501D03*
X009686Y004189D03*
X008999Y003876D03*
X008374Y004626D03*
X007374Y004626D03*
X006374Y004626D03*
X005311Y003876D03*
X004999Y003439D03*
X004311Y003439D03*
X003874Y004126D03*
X003624Y002189D03*
X005311Y002189D03*
X007249Y003189D03*
X007624Y003189D03*
X008874Y002876D03*
X008874Y002189D03*
X009811Y002189D03*
X009936Y003001D03*
X011936Y002189D03*
X013311Y002189D03*
X015374Y002689D03*
X015749Y002689D03*
X015999Y004126D03*
X015374Y004439D03*
X015374Y004814D03*
X015999Y005564D03*
X015436Y006626D03*
X015999Y007251D03*
X015999Y008564D03*
X014936Y009751D03*
X013124Y009751D03*
X009124Y009751D03*
X008186Y009751D03*
X007624Y008939D03*
X007624Y008501D03*
X006374Y009751D03*
X004936Y009814D03*
X004499Y008939D03*
X003874Y008939D03*
X003186Y008939D03*
X002686Y008939D03*
X001811Y009814D03*
X000936Y008689D03*
X000936Y006501D03*
X000936Y005501D03*
X000999Y003439D03*
X001686Y002189D03*
X006374Y005626D03*
X007374Y005626D03*
X008374Y005626D03*
X008374Y006626D03*
X007374Y006626D03*
X006374Y006626D03*
X003561Y009814D03*
D22*
X001874Y008001D03*
X001374Y008001D03*
X002936Y007001D03*
X003436Y007001D03*
X003436Y005939D03*
X002936Y005939D03*
X006874Y009376D03*
X012999Y007876D03*
D23*
X012999Y007001D01*
X013124Y006876D01*
X014761Y006813D02*
X014874Y006926D01*
X014874Y007126D01*
X010624Y008689D02*
X010624Y009376D01*
X010624Y009126D01*
X006980Y008939D02*
X006874Y009045D01*
X006874Y009376D01*
X005909Y009376D01*
X005338Y009376D02*
X005338Y009313D01*
X004186Y008161D01*
X006874Y007289D02*
X006901Y007316D01*
X006874Y007289D02*
X006874Y004876D01*
X006874Y004626D01*
X007216Y004284D01*
X007216Y003936D01*
M02*
