G75*
G70*
%OFA0B0*%
%FSLAX24Y24*%
%IPPOS*%
%LPD*%
%AMOC8*
5,1,8,0,0,1.08239X$1,22.5*
%
%ADD10C,0.1064*%
%ADD11C,0.0204*%
%ADD12C,0.0680*%
%ADD13C,0.0552*%
%ADD14C,0.0174*%
%ADD15C,0.0437*%
D10*
X003124Y003001D03*
D11*
X010136Y004614D02*
X010612Y004614D01*
X010612Y004138D01*
X010136Y004138D01*
X010136Y004614D01*
X010136Y004341D02*
X010612Y004341D01*
X010612Y004544D02*
X010136Y004544D01*
D12*
X009374Y004376D03*
X009374Y003376D03*
X010374Y003376D03*
X010374Y002376D03*
X009374Y002376D03*
D13*
X008374Y002376D03*
X011374Y002376D03*
D14*
X002077Y003798D02*
X002077Y004204D01*
X002077Y003798D02*
X001171Y003798D01*
X001171Y004204D01*
X002077Y004204D01*
X002077Y003971D02*
X001171Y003971D01*
X001171Y004144D02*
X002077Y004144D01*
X002077Y004798D02*
X002077Y005204D01*
X002077Y004798D02*
X001171Y004798D01*
X001171Y005204D01*
X002077Y005204D01*
X002077Y004971D02*
X001171Y004971D01*
X001171Y005144D02*
X002077Y005144D01*
X002077Y005798D02*
X002077Y006204D01*
X002077Y005798D02*
X001171Y005798D01*
X001171Y006204D01*
X002077Y006204D01*
X002077Y005971D02*
X001171Y005971D01*
X001171Y006144D02*
X002077Y006144D01*
X002077Y006798D02*
X002077Y007204D01*
X002077Y006798D02*
X001171Y006798D01*
X001171Y007204D01*
X002077Y007204D01*
X002077Y006971D02*
X001171Y006971D01*
X001171Y007144D02*
X002077Y007144D01*
X002077Y007798D02*
X002077Y008204D01*
X002077Y007798D02*
X001171Y007798D01*
X001171Y008204D01*
X002077Y008204D01*
X002077Y007971D02*
X001171Y007971D01*
X001171Y008144D02*
X002077Y008144D01*
D15*
X001874Y008001D03*
X001374Y008001D03*
X002936Y007001D03*
X003436Y007001D03*
X003436Y005939D03*
X002936Y005939D03*
X006874Y009376D03*
X012999Y007876D03*
M02*
